{
.formatVersion = 3;
axes = (
{
name = Weight;
tag = wght;
}
);
classes = (
{
code = "Decyr Elcyr vecyr zhecyr zecyr kacyr elcyr yucyr";
name = loclCYR_ss02;
},
{
code = "Decyr.loclBGR Elcyr.loclBGR vecyr.loclBGR zhecyr.loclBGR zecyr.loclBGR kacyr.loclBGR elcyr.loclBGR yucyr.loclBGR";
name = loclBGR_ss02;
},
{
code = "gravecomb acutecomb circumflexcomb brevecomb dieresiscomb macroncomb dotaccentcomb hungarumlautcomb tildecomb ringcomb caroncomb commaturnedabovecomb";
name = ccmp;
},
{
code = "zero one two three four five six seven eight nine";
name = ordn_sinf_subs_sups_numr_dnom;
},
{

glyphs = (
{
glyphname = .notdef;
leftMetricsKey = "=0";
rightMetricsKey = "=0";
layers = (
{
layerId = "31A26675-4074-4365-ADEA-834199CB2297";
shapes = (
{
closed = 1;
nodes = (
(224.4,0,l),
(1711.248,0,l),
(1711.248,1482.752,l),
(224.4,1482.752,l)
);
},
{
closed = 1;
nodes = (
(1019.024,1366.016,l),
(1536.144,1366.016,l),
(1536.144,604.16,l),
(1019.024,604.16,l)
);
},
{
closed = 1;
nodes = (
(915.6,1366.016,l),
(915.6,604.16,l),
(764.048,604.16,l),
(764.048,748.544,l),
(549.008,1069.056,l),
(549.008,604.16,l),
(398.48,604.16,l),
(398.48,1366.016,l),
(549.008,1366.016,l),
(764.048,1041.408,l),
(764.048,1366.016,l)
);
},
{
closed = 1;
nodes = (
(398.48,455.68,l),
(628.88,455.68,l),
(628.88,389.12,l),
(465.04,389.12,l),
(465.04,183.296,l),
(561.296,183.296,l),
(561.296,251.904,l),
(515.216,251.904,l),
(515.216,320.512,l),
(628.88,320.512,l),
(628.88,116.736,l),
(398.48,116.736,l)
);
},
{
closed = 1;
nodes = (
(678.032,455.68,l),
(745.616,455.68,l),
(745.616,183.296,l),
(882.832,183.296,l),
(882.832,116.736,l),
(678.032,116.736,l)
);
},
{
closed = 1;
nodes = (
(794.768,455.68,l),
(862.352,455.68,l),
(862.352,320.512,l),
(938.128,320.512,l),
(938.128,455.68,l),
(1004.688,455.68,l),
(1004.688,116.736,l),
(938.128,116.736,l),
(938.128,251.904,l),
(794.768,251.904,l)
);
},
{
closed = 1;
nodes = (
(1059.984,455.68,l),
(1271.952,455.68,l),
(1271.952,251.904,l),
(1126.544,251.904,l),
(1126.544,116.736,l),
(1059.984,116.736,l)
);
},
{
closed = 1;
nodes = (
(1327.248,455.68,l),
(1393.808,455.68,l),
(1393.808,320.512,l),
(1469.584,320.512,l),
(1469.584,455.68,l),
(1536.144,455.68,l),
(1536.144,116.736,l),
(1469.584,116.736,l),
(1469.584,251.904,l),
(1393.808,251.904,l),
(1393.808,116.736,l),
(1327.248,116.736,l)
);
},
{
closed = 1;
nodes = (
(1171.6,1214.464,l),
(1171.6,754.688,l),
(1386.64,754.688,l),
(1386.64,1214.464,l)
);
},
{
closed = 1;
nodes = (
(1126.544,389.12,l),
(1126.544,320.512,l),
(1203.344,320.512,l),
(1203.344,389.12,l)
);
}
);
width = 1830;
},
{
layerId = "57FF79F6-5737-48C1-BD5F-8B84E303409D";
shapes = (
{
closed = 1;
nodes = (
(224.4,0,l),
(1711.248,0,l),
(1711.248,1482.752,l),
(224.4,1482.752,l)
);
},
{
closed = 1;
nodes = (
(1019.024,1366.016,l),
(1536.144,1366.016,l),
(1536.144,604.16,l),
(1019.024,604.16,l)
);
},
{
closed = 1;
nodes = (
(915.6,1366.016,l),
(915.6,604.16,l),
(764.048,604.16,l),
(764.048,748.544,l),
(549.008,1069.056,l),
(549.008,604.16,l),
(398.48,604.16,l),
(398.48,1366.016,l),
(549.008,1366.016,l),
(764.048,1041.408,l),
(764.048,1366.016,l)
);
},
{
closed = 1;
nodes = (
(398.48,455.68,l),
(628.88,455.68,l),
(628.88,389.12,l),
(465.04,389.12,l),
(465.04,183.296,l),
(561.296,183.296,l),
(561.296,251.904,l),
(515.216,251.904,l),
(515.216,320.512,l),
(628.88,320.512,l),
(628.88,116.736,l),
(398.48,116.736,l)
);
},
{
closed = 1;
nodes = (
(678.032,455.68,l),
(745.616,455.68,l),
(745.616,183.296,l),
(882.832,183.296,l),
(882.832,116.736,l),
(678.032,116.736,l)
);
},
{
closed = 1;
nodes = (
(794.768,455.68,l),
(862.352,455.68,l),
(862.352,320.512,l),
(938.128,320.512,l),
(938.128,455.68,l),
(1004.688,455.68,l),
(1004.688,116.736,l),
(938.128,116.736,l),
(938.128,251.904,l),
(794.768,251.904,l)
);
},
{
closed = 1;
nodes = (
(1059.984,455.68,l),
(1271.952,455.68,l),
(1271.952,251.904,l),
(1126.544,251.904,l),
(1126.544,116.736,l),
(1059.984,116.736,l)
);
},
{
closed = 1;
nodes = (
(1327.248,455.68,l),
(1393.808,455.68,l),
(1393.808,320.512,l),
(1469.584,320.512,l),
(1469.584,455.68,l),
(1536.144,455.68,l),
(1536.144,116.736,l),
(1469.584,116.736,l),
(1469.584,251.904,l),
(1393.808,251.904,l),
(1393.808,116.736,l),
(1327.248,116.736,l)
);
},
{
closed = 1;
nodes = (
(1171.6,1214.464,l),
(1171.6,754.688,l),
(1386.64,754.688,l),
(1386.64,1214.464,l)
);
},
{
closed = 1;
nodes = (
(1126.544,389.12,l),
(1126.544,320.512,l),
(1203.344,320.512,l),
(1203.344,389.12,l)
);
}
);
width = 1830;
},
{
layerId = "730F33E1-68ED-45B5-8902-551965799117";
shapes = (
{
closed = 1;
nodes = (
(224.4,0,l),
(1711.248,0,l),
(1711.248,1482.752,l),
(224.4,1482.752,l)
);
},
{
closed = 1;
nodes = (
(1019.024,1366.016,l),
(1536.144,1366.016,l),
(1536.144,604.16,l),
(1019.024,604.16,l)
);
},
{
closed = 1;
nodes = (
(915.6,1366.016,l),
(915.6,604.16,l),
(764.048,604.16,l),
(764.048,748.544,l),
(549.008,1069.056,l),
(549.008,604.16,l),
(398.48,604.16,l),
(398.48,1366.016,l),
(549.008,1366.016,l),
(764.048,1041.408,l),
(764.048,1366.016,l)
);
},
{
closed = 1;
nodes = (
(398.48,455.68,l),
(628.88,455.68,l),
(628.88,389.12,l),
(465.04,389.12,l),
(465.04,183.296,l),
(561.296,183.296,l),
(561.296,251.904,l),
(515.216,251.904,l),
(515.216,320.512,l),
(628.88,320.512,l),
(628.88,116.736,l),
(398.48,116.736,l)
);
},
{
closed = 1;
nodes = (
(678.032,455.68,l),
(745.616,455.68,l),
(745.616,183.296,l),
(882.832,183.296,l),
(882.832,116.736,l),
(678.032,116.736,l)
);
},
{
closed = 1;
nodes = (
(794.768,455.68,l),
(862.352,455.68,l),
(862.352,320.512,l),
(938.128,320.512,l),
(938.128,455.68,l),
(1004.688,455.68,l),
(1004.688,116.736,l),
(938.128,116.736,l),
(938.128,251.904,l),
(794.768,251.904,l)
);
},
{
closed = 1;
nodes = (
(1059.984,455.68,l),
(1271.952,455.68,l),
(1271.952,251.904,l),
(1126.544,251.904,l),
(1126.544,116.736,l),
(1059.984,116.736,l)
);
},
{
closed = 1;
nodes = (
(1327.248,455.68,l),
(1393.808,455.68,l),
(1393.808,320.512,l),
(1469.584,320.512,l),
(1469.584,455.68,l),
(1536.144,455.68,l),
(1536.144,116.736,l),
(1469.584,116.736,l),
(1469.584,251.904,l),
(1393.808,251.904,l),
(1393.808,116.736,l),
(1327.248,116.736,l)
);
},
{
closed = 1;
nodes = (
(1171.6,1214.464,l),
(1171.6,754.688,l),
(1386.64,754.688,l),
(1386.64,1214.464,l)
);
},
{
closed = 1;
nodes = (
(1126.544,389.12,l),
(1126.544,320.512,l),
(1203.344,320.512,l),
(1203.344,389.12,l)
);
}
);
width = 1830;
},
{
layerId = "67A62FEC-841D-491B-BA5E-8BAEF7B2DF33";
shapes = (
{
closed = 1;
nodes = (
(224.4,0,l),
(1711.248,0,l),
(1711.248,1482.752,l),
(224.4,1482.752,l)
);
},
{
closed = 1;
nodes = (
(1019.024,1366.016,l),
(1536.144,1366.016,l),
(1536.144,604.16,l),
(1019.024,604.16,l)
);
},
{
closed = 1;
nodes = (
(915.6,1366.016,l),
(915.6,604.16,l),
(764.048,604.16,l),
(764.048,748.544,l),
(549.008,1069.056,l),
(549.008,604.16,l),
(398.48,604.16,l),
(398.48,1366.016,l),
(549.008,1366.016,l),
(764.048,1041.408,l),
(764.048,1366.016,l)
);
},
{
closed = 1;
nodes = (
(398.48,455.68,l),
(628.88,455.68,l),
(628.88,389.12,l),
(465.04,389.12,l),
(465.04,183.296,l),
(561.296,183.296,l),
(561.296,251.904,l),
(515.216,251.904,l),
(515.216,320.512,l),
(628.88,320.512,l),
(628.88,116.736,l),
(398.48,116.736,l)
);
},
{
closed = 1;
nodes = (
(678.032,455.68,l),
(745.616,455.68,l),
(745.616,183.296,l),
(882.832,183.296,l),
(882.832,116.736,l),
(678.032,116.736,l)
);
},
{
closed = 1;
nodes = (
(794.768,455.68,l),
(862.352,455.68,l),
(862.352,320.512,l),
(938.128,320.512,l),
(938.128,455.68,l),
(1004.688,455.68,l),
(1004.688,116.736,l),
(938.128,116.736,l),
(938.128,251.904,l),
(794.768,251.904,l)
);
},
{
closed = 1;
nodes = (
(1059.984,455.68,l),
(1271.952,455.68,l),
(1271.952,251.904,l),
(1126.544,251.904,l),
(1126.544,116.736,l),
(1059.984,116.736,l)
);
},
{
closed = 1;
nodes = (
(1327.248,455.68,l),
(1393.808,455.68,l),
(1393.808,320.512,l),
(1469.584,320.512,l),
(1469.584,455.68,l),
(1536.144,455.68,l),
(1536.144,116.736,l),
(1469.584,116.736,l),
(1469.584,251.904,l),
(1393.808,251.904,l),
(1393.808,116.736,l),
(1327.248,116.736,l)
);
},
{
closed = 1;
nodes = (
(1171.6,1214.464,l),
(1171.6,754.688,l),
(1386.64,754.688,l),
(1386.64,1214.464,l)
);
},
{
closed = 1;
nodes = (
(1126.544,389.12,l),
(1126.544,320.512,l),
(1203.344,320.512,l),
(1203.344,389.12,l)
);
}
);
width = 1830;
}
);
leftKerningGroup = B;
},
{
glyphname = exclam;
layers = (
{
layerId = "31A26675-4074-4365-ADEA-834199CB2297";
shapes = (
{
closed = 1;
nodes = (
(416.768,453.632,l),
(678.912,1467.392,l),
(409.6,1467.392,l),
(205.824,453.632,l)
);
},
{
closed = 1;
nodes = (
(355.328,0,l),
(419.84,292.864,l),
(124.928,292.864,l),
(60.416,0,l)
);
}
);
width = 649;
},
{
layerId = "57FF79F6-5737-48C1-BD5F-8B84E303409D";
shapes = (
{
closed = 1;
nodes = (
(402.432,438.272,l),
(668.672,1468.416,l),
(421.888,1468.416,l),
(214.016,438.272,l)
);
},
{
closed = 1;
nodes = (
(344.064,0,l),
(404.48,270.336,l),
(132.096,270.336,l),
(71.68,0,l)
);
}
);
width = 650;
},
{
layerId = "730F33E1-68ED-45B5-8902-551965799117";
shapes = (
{
closed = 1;
nodes = (
(360.192,395.264,l),
(637.952,1469.184,l),
(457.984,1469.184,l),
(238.592,395.264,l)
);
},
{
closed = 1;
nodes = (
(311.808,0,l),
(358.4,203.52,l),
(152.832,203.52,l),
(107.008,0,l)
);
}
);
width = 652;
},
{
layerId = "67A62FEC-841D-491B-BA5E-8BAEF7B2DF33";
shapes = (
{
closed = 1;
nodes = (
(346.112,380.928,l),
(627.712,1469.44,l),
(470.016,1469.44,l),
(246.784,380.928,l)
);
},
{
closed = 1;
nodes = (
(301.056,0,l),
(343.04,181.248,l),
(159.744,181.248,l),
(118.784,0,l)
);
}
);
width = 653;
}
);
leftKerningGroup = B;
unicode = 33;
},
{
glyphname = quotedbl;
leftMetricsKey = "=120";
rightMetricsKey = "=|";
layers = (
{
layerId = "31A26675-4074-4365-ADEA-834199CB2297";
shapes = (
{
closed = 1;
nodes = (
(199,850,l),
(430,850,l),
(568,1448,l),
(337,1448,l)
);
},
{
closed = 1;
nodes = (
(619,850,l),
(850,850,l),
(988,1448,l),
(757,1448,l)
);
}
);
width = 892;
},
{
layerId = "57FF79F6-5737-48C1-BD5F-8B84E303409D";
leftMetricsKey = "=140";
shapes = (
{
closed = 1;
nodes = (
(228,888,l),
(438,888,l),
(567,1448,l),
(358,1448,l)
);
},
{
closed = 1;
nodes = (
(584,888,l),
(794,888,l),
(923,1448,l),
(714,1448,l)
);
}
);
width = 847;
},
{
layerId = "730F33E1-68ED-45B5-8902-551965799117";
leftMetricsKey = "=155";
shapes = (
{
closed = 1;
nodes = (
(268.5,998.25,l),
(411,998.25,l),
(514.5,1448,l),
(372.25,1448,l)
);
},
{
closed = 1;
nodes = (
(584.75,998.25,l),
(727.25,998.25,l),
(830.75,1448,l),
(688.5,1448,l)
);
}
);
width = 770;
},
{
layerId = "67A62FEC-841D-491B-BA5E-8BAEF7B2DF33";
leftMetricsKey = "=160";
shapes = (
{
closed = 1;
nodes = (
(282,1035,l),
(402,1035,l),
(497,1448,l),
(377,1448,l)
);
},
{
closed = 1;
nodes = (
(585,1035,l),
(705,1035,l),
(800,1448,l),
(680,1448,l)
);
}
);
width = 745;
}
);
leftKerningGroup = B;
unicode = 34;
},
{
glyphname = numbersign;
layers = (
{
layerId = "31A26675-4074-4365-ADEA-834199CB2297";
shapes = (
{
closed = 1;
nodes = (
(762.88,0,l),
(951.296,404.48,l),
(1235.968,404.48,l),
(1285.12,611.328,l),
(1039.36,611.328,l),
(1147.904,857.088,l),
(1424.384,857.088,l),
(1471.488,1052.672,l),
(1233.92,1052.672,l),
(1427.456,1468.416,l),
(1206.272,1468.416,l),
(1005.568,1020.928,l),
(777.216,1020.928,l),
(978.944,1468.416,l),
(757.76,1468.416,l),
(566.272,1063.936,l),
(281.6,1063.936,l),
(232.448,857.088,l),
(477.184,857.088,l),
(369.664,611.328,l),
(92.16,611.328,l),
(46.08,415.744,l),
(283.648,415.744,l),
(93.184,0,l),
(314.368,0,l),
(507.904,446.464,l),
(740.352,446.464,l),
(543.744,0,l)
);
},
{
closed = 1;
nodes = (
(820.224,611.328,l),
(588.8,611.328,l),
(697.344,857.088,l),
(928.768,857.088,l)
);
}
);
width = 1417;
},
{
layerId = "57FF79F6-5737-48C1-BD5F-8B84E303409D";
shapes = (
{
closed = 1;
nodes = (
(752.64,0,l),
(944.128,415.744,l),
(1226.752,415.744,l),
(1270.784,600.064,l),
(1022.976,600.064,l),
(1140.736,868.352,l),
(1415.168,868.352,l),
(1457.152,1044.48,l),
(1218.56,1044.48,l),
(1413.12,1468.416,l),
(1214.464,1468.416,l),
(1014.784,1020.928,l),
(762.88,1020.928,l),
(964.608,1468.416,l),
(765.952,1468.416,l),
(572.416,1052.672,l),
(289.792,1052.672,l),
(245.76,868.352,l),
(492.544,868.352,l),
(375.808,600.064,l),
(100.352,600.064,l),
(58.368,423.936,l),
(297.984,423.936,l),
(106.496,0,l),
(304.128,0,l),
(498.688,446.464,l),
(752.64,446.464,l),
(556.032,0,l)
);
},
{
closed = 1;
nodes = (
(826.368,600.064,l),
(572.416,600.064,l),
(690.176,868.352,l),
(944.128,868.352,l)
);
}
);
width = 1415;
},
{
layerId = "730F33E1-68ED-45B5-8902-551965799117";
shapes = (
{
closed = 1;
nodes = (
(724.224,0,l),
(923.392,449.536,l),
(1199.872,449.536,l),
(1228.544,566.272,l),
(974.592,566.272,l),
(1121.536,902.912,l),
(1389.056,902.912,l),
(1417.216,1020.672,l),
(1172.48,1020.672,l),
(1370.88,1468.416,l),
(1241.344,1468.416,l),
(1042.432,1020.16,l),
(721.408,1020.16,l),
(921.6,1468.416,l),
(791.296,1468.416,l),
(590.848,1020.416,l),
(312.832,1020.416,l),
(284.928,902.912,l),
(539.392,902.912,l),
(393.472,566.272,l),
(124.16,566.272,l),
(96,446.976,l),
(340.992,446.976,l),
(144.896,0,l),
(274.944,0,l),
(470.272,447.232,l),
(791.808,447.232,l),
(594.432,0,l)
);
},
{
closed = 1;
nodes = (
(844.8,566.272,l),
(523.264,566.272,l),
(670.208,902.912,l),
(990.976,902.912,l)
);
}
);
width = 1411;
},
{
layerId = "67A62FEC-841D-491B-BA5E-8BAEF7B2DF33";
shapes = (
{
closed = 1;
nodes = (
(714.752,0,l),
(916.48,460.8,l),
(1190.912,460.8,l),
(1214.464,555.008,l),
(958.464,555.008,l),
(1115.136,914.432,l),
(1380.352,914.432,l),
(1403.904,1012.736,l),
(1157.12,1012.736,l),
(1356.8,1468.416,l),
(1250.304,1468.416,l),
(1051.648,1019.904,l),
(707.584,1019.904,l),
(907.264,1468.416,l),
(799.744,1468.416,l),
(596.992,1009.664,l),
(320.512,1009.664,l),
(297.984,914.432,l),
(555.008,914.432,l),
(399.36,555.008,l),
(132.096,555.008,l),
(108.544,454.656,l),
(355.328,454.656,l),
(157.696,0,l),
(265.216,0,l),
(460.8,447.488,l),
(804.864,447.488,l),
(607.232,0,l)
);
},
{
closed = 1;
nodes = (
(850.944,555.008,l),
(506.88,555.008,l),
(663.552,914.432,l),
(1006.592,914.432,l)
);
}
);
width = 1410;
}
);
leftKerningGroup = B;
unicode = 35;
},
{
glyphname = dollar;
layers = (
{
layerId = "31A26675-4074-4365-ADEA-834199CB2297";
shapes = (
{
closed = 1;
nodes = (
(541.192,-251.904,l),
(601.608,-19.456,l),
(894.472,16.384,o),
(1117.704,243.712,o),
(1117.704,505.856,cs),
(1117.704,865.28,o),
(558.6,857.088,o),
(558.6,1037.312,cs),
(558.6,1129.472,o),
(668.168,1217.536,o),
(782.856,1217.536,cs),
(880.136,1217.536,o),
(942.6,1177.6,o),
(964.104,1101.824,c),
(1221.128,1214.464,l),
(1176.072,1351.68,o),
(1078.792,1434.624,o),
(930.312,1463.296,c),
(991.752,1698.816,l),
(756.232,1698.816,l),
(695.816,1464.32,l),
(440.84,1404.928,o),
(270.856,1219.584,o),
(270.856,1002.496,cs),
(270.856,624.64,o),
(833.032,669.696,o),
(833.032,468.992,cs),
(833.032,343.04,o),
(702.984,240.64,o),
(542.216,240.64,cs),
(392.712,240.64,o),
(312.84,303.104,o),
(312.84,418.816,cs),
(312.84,425.984,o),
(313.864,433.152,o),
(314.888,446.464,c),
(29.192,410.624,l),
(29.192,378.88,ls),
(29.192,182.272,o),
(159.24,33.792,o),
(368.136,-10.24,c),
(305.672,-251.904,l)
);
}
);
width = 1229;
},
{
layerId = "57FF79F6-5737-48C1-BD5F-8B84E303409D";
shapes = (
{
closed = 1;
nodes = (
(522.808,-251.904,l),
(583.224,-18.432,l),
(878.136,15.36,o),
(1098.296,237.568,o),
(1098.296,499.712,cs),
(1098.296,870.4,o),
(542.264,843.776,o),
(542.264,1040.384,cs),
(542.264,1143.808,o),
(661.048,1243.136,o),
(784.952,1243.136,cs),
(886.328,1243.136,o),
(950.84,1201.152,o),
(977.464,1116.16,c),
(1205.816,1218.56,l),
(1158.712,1354.752,o),
(1057.336,1439.744,o),
(911.928,1464.32,c),
(973.368,1698.816,l),
(767.544,1698.816,l),
(707.128,1464.32,l),
(456.248,1413.12,o),
(284.216,1227.776,o),
(284.216,1009.664,cs),
(284.216,650.24,o),
(843.32,675.84,o),
(843.32,471.04,cs),
(843.32,327.68,o),
(708.152,216.064,o),
(533.048,216.064,cs),
(377.4,216.064,o),
(293.432,282.624,o),
(293.432,406.528,cs),
(293.432,414.72,o),
(294.456,427.008,o),
(295.48,438.272,c),
(39.48,404.48,l),
(39.48,371.712,ls),
(39.48,174.08,o),
(169.528,27.648,o),
(379.448,-10.24,c),
(316.984,-251.904,l)
);
}
);
width = 1229;
},
{
layerId = "730F33E1-68ED-45B5-8902-551965799117";
shapes = (
{
closed = 1;
nodes = (
(469.942,-252.672,l),
(530.358,-16.128,l),
(837.558,-7.68,o),
(1043.894,156.16,o),
(1043.894,444.416,cs),
(1043.894,845.824,o),
(494.006,758.528,o),
(494.006,1068.8,cs),
(494.006,1219.072,o),
(625.846,1318.4,o),
(791.222,1318.4,cs),
(898.742,1318.4,o),
(989.366,1254.144,o),
(1017.526,1159.936,c),
(1162.934,1231.616,l),
(1120.438,1359.36,o),
(1002.934,1450.496,o),
(859.83,1465.088,c),
(920.502,1698.816,l),
(803.766,1698.816,l),
(742.582,1464.32,l),
(494.774,1443.84,o),
(322.742,1276.928,o),
(322.742,1049.6,cs),
(322.742,648.704,o),
(875.702,741.12,o),
(875.702,424.96,cs),
(875.702,230.144,o),
(732.086,141.568,o),
(508.598,141.568,cs),
(336.054,141.568,o),
(235.19,225.792,o),
(235.19,370.432,cs),
(235.19,384,o),
(236.214,397.824,o),
(238.006,412.16,c),
(68.79,383.744,l),
(68.79,367.104,ls),
(68.79,153.344,o),
(214.198,19.2,o),
(413.366,-11.776,c),
(352.438,-252.672,l)
);
}
);
width = 1229;
},
{
layerId = "67A62FEC-841D-491B-BA5E-8BAEF7B2DF33";
shapes = (
{
closed = 1;
nodes = (
(452.32,-252.928,l),
(512.736,-15.36,l),
(824.032,-15.36,o),
(1025.76,129.024,o),
(1025.76,425.984,cs),
(1025.76,837.632,o),
(477.92,730.112,o),
(477.92,1078.272,cs),
(477.92,1244.16,o),
(614.112,1343.488,o),
(793.312,1343.488,cs),
(902.88,1343.488,o),
(1002.208,1271.808,o),
(1030.88,1174.528,c),
(1148.64,1235.968,l),
(1107.68,1360.896,o),
(984.8,1454.08,o),
(842.464,1465.344,c),
(902.88,1698.816,l),
(815.84,1698.816,l),
(754.4,1464.32,l),
(507.616,1454.08,o),
(335.584,1293.312,o),
(335.584,1062.912,cs),
(335.584,648.192,o),
(886.496,762.88,o),
(886.496,409.6,cs),
(886.496,197.632,o),
(740.064,116.736,o),
(500.448,116.736,cs),
(322.272,116.736,o),
(215.776,206.848,o),
(215.776,358.4,cs),
(215.776,373.76,o),
(216.8,388.096,o),
(218.848,403.456,c),
(78.56,376.832,l),
(78.56,365.568,ls),
(78.56,146.432,o),
(229.088,16.384,o),
(424.672,-12.288,c),
(364.256,-252.928,l)
);
}
);
width = 1229;
}
);
leftKerningGroup = B;
unicode = 36;
},
{
glyphname = percent;
leftMetricsKey = "=125";
rightMetricsKey = "=|";
layers = (
{
layerId = "31A26675-4074-4365-ADEA-834199CB2297";
leftMetricsKey = "=57";
shapes = (
{
closed = 1;
nodes = (
(1300,-14,o),
(1466,180,o),
(1466,412,cs),
(1466,578,o),
(1374,681,o),
(1226,681,cs),
(1023,681,o),
(857,488,o),
(857,252,cs),
(857,82,o),
(945,-14,o),
(1101,-14,cs)
);
},
{
closed = 1;
nodes = (
(1074,185,o),
(1055,216,o),
(1055,279,cs),
(1055,377,o),
(1133,480,o),
(1208,480,cs),
(1248,480,o),
(1265,453,o),
(1265,391,cs),
(1265,284,o),
(1192,185,o),
(1113,185,cs)
);
},
{
closed = 1;
nodes = (
(361.472,-27.648,l),
(1537.024,1504.256,l),
(1289.216,1504.256,l),
(113.664,-27.648,l)
);
},
{
closed = 1;
nodes = (
(636,775,o),
(802,969,o),
(802,1201,cs),
(802,1367,o),
(710,1470,o),
(562,1470,cs),
(359,1470,o),
(193,1277,o),
(193,1041,cs),
(193,871,o),
(281,775,o),
(437,775,cs)
);
},
{
closed = 1;
nodes = (
(410,974,o),
(391,1005,o),
(391,1068,cs),
(391,1166,o),
(469,1269,o),
(544,1269,cs),
(584,1269,o),
(601,1242,o),
(601,1180,cs),
(601,1073,o),
(528,974,o),
(449,974,cs)
);
}
);
width = 1559;
},
{
layerId = "57FF79F6-5737-48C1-BD5F-8B84E303409D";
leftMetricsKey = "=75";
shapes = (
{
closed = 1;
nodes = (
(1300,-10,o),
(1464,186,o),
(1464,413,cs),
(1464,575,o),
(1377,674,o),
(1233,674,cs),
(1037,674,o),
(875,482,o),
(875,248,cs),
(875,84,o),
(960,-10,o),
(1109,-10,cs)
);
},
{
closed = 1;
nodes = (
(1074,167,o),
(1051,197,o),
(1051,255,cs),
(1051,381,o),
(1131,496,o),
(1219,496,cs),
(1260,496,o),
(1285,464,o),
(1285,409,cs),
(1285,280,o),
(1206,167,o),
(1118,167,cs)
);
},
{
closed = 1;
nodes = (
(364.544,-20.48,l),
(1522.688,1488.896,l),
(1300.48,1488.896,l),
(142.336,-20.48,l)
);
},
{
closed = 1;
nodes = (
(637,786,o),
(801,982,o),
(801,1209,cs),
(801,1371,o),
(714,1470,o),
(570,1470,cs),
(374,1470,o),
(212,1278,o),
(212,1044,cs),
(212,880,o),
(297,786,o),
(446,786,cs)
);
},
{
closed = 1;
nodes = (
(411,963,o),
(388,993,o),
(388,1051,cs),
(388,1177,o),
(468,1292,o),
(556,1292,cs),
(597,1292,o),
(622,1260,o),
(622,1205,cs),
(622,1076,o),
(543,963,o),
(455,963,cs)
);
}
);
width = 1575;
},
{
layerId = "730F33E1-68ED-45B5-8902-551965799117";
shapes = (
{
closed = 1;
nodes = (
(1309.75,1.25,o),
(1461,192,o),
(1461,413,cs),
(1461,560,o),
(1389.75,650,o),
(1264.5,650,cs),
(1072.25,650,o),
(930.5,473.75,o),
(930.5,233,cs),
(930.5,84,o),
(1002.75,1.25,o),
(1133.75,1.25,cs)
);
},
{
closed = 1;
nodes = (
(1083.75,107.75,o),
(1044.25,151.25,o),
(1044.25,231,cs),
(1044.25,409.5,o),
(1131.75,544,o),
(1248.25,544,cs),
(1305.75,544,o),
(1345.75,495.5,o),
(1346.5,419.5,c),
(1346.5,249.25,o),
(1254.75,107.75,o),
(1144.25,107.75,cs)
);
},
{
closed = 1;
nodes = (
(372.386,-0.62,l),
(1480.172,1445.474,l),
(1334.62,1445.474,l),
(226.834,-0.62,l)
);
},
{
closed = 1;
nodes = (
(645.25,821.25,o),
(796.5,1012,o),
(796.5,1233,cs),
(796.5,1380,o),
(725.25,1470,o),
(600,1470,cs),
(407.75,1470,o),
(266,1293.75,o),
(266,1053,cs),
(266,904,o),
(338.25,821.25,o),
(469.25,821.25,cs)
);
},
{
closed = 1;
nodes = (
(419.25,927.75,o),
(379.75,971.25,o),
(379.75,1051,cs),
(379.75,1229.5,o),
(467.25,1364,o),
(583.75,1364,cs),
(641.25,1364,o),
(681.25,1315.5,o),
(682,1239.5,c),
(682,1069.25,o),
(590.25,927.75,o),
(479.75,927.75,cs)
);
}
);
width = 1622;
},
{
layerId = "67A62FEC-841D-491B-BA5E-8BAEF7B2DF33";
leftMetricsKey = "=142";
shapes = (
{
closed = 1;
nodes = (
(1313,5,o),
(1460,194,o),
(1460,413,cs),
(1460,555,o),
(1394,642,o),
(1275,642,cs),
(1084,642,o),
(949,471,o),
(949,228,cs),
(949,84,o),
(1017,5,o),
(1142,5,cs)
);
},
{
closed = 1;
nodes = (
(1087,88,o),
(1042,136,o),
(1042,223,cs),
(1042,419,o),
(1132,560,o),
(1258,560,cs),
(1321,560,o),
(1366,506,o),
(1367,423,cs),
(1367,239,o),
(1271,88,o),
(1153,88,cs)
);
},
{
closed = 1;
nodes = (
(375.,6.,l),
(1466.,1431.,l),
(1346.,1431.,l),
(255.,6.,l)
);
},
{
closed = 1;
nodes = (
(648,833,o),
(795,1022,o),
(795,1241,cs),
(795,1383,o),
(729,1470,o),
(610,1470,cs),
(419,1470,o),
(284,1299,o),
(284,1056,cs),
(284,912,o),
(352,833,o),
(477,833,cs)
);
},
{
closed = 1;
nodes = (
(422,916,o),
(377,964,o),
(377,1051,cs),
(377,1247,o),
(467,1388,o),
(593,1388,cs),
(656,1388,o),
(701,1334,o),
(702,1251,cs),
(702,1067,o),
(606,916,o),
(488,916,cs)
);
}
);
width = 1638;
}
);
unicode = 37;
},
{
glyphname = ampersand;
layers = (
{
layerId = "31A26675-4074-4365-ADEA-834199CB2297";
shapes = (
{
closed = 1;
nodes = (
(1040.384,-84.992,l),
(1275.904,94.208,l),
(1121.28,324.608,l),
(1211.392,437.248,o),
(1271.808,553.984,o),
(1302.528,674.816,c),
(1038.336,727.04,l),
(1028.096,668.672,o),
(1006.592,611.328,o),
(970.752,547.84,c),
(848.896,724.992,l),
(1067.008,847.872,o),
(1187.84,1002.496,o),
(1187.84,1160.192,cs),
(1187.84,1340.416,o),
(1048.576,1464.32,o),
(846.848,1464.32,cs),
(572.416,1464.32,o),
(360.448,1285.12,o),
(360.448,1049.6,cs),
(360.448,958.464,o),
(390.144,880.64,o),
(456.704,797.696,c),
(160.768,646.144,o),
(16.384,479.232,o),
(16.384,287.744,cs),
(16.384,91.136,o),
(175.104,-24.576,o),
(444.416,-24.576,cs),
(599.04,-24.576,o),
(758.784,26.624,o),
(904.192,123.904,c)
);
},
{
closed = 1;
nodes = (
(647.168,978.944,o),
(630.784,1025.024,o),
(630.784,1063.936,cs),
(630.784,1161.216,o),
(723.968,1247.232,o),
(829.44,1247.232,cs),
(893.952,1247.232,o),
(929.792,1218.56,o),
(929.792,1165.312,cs),
(929.792,1080.32,o),
(843.776,992.256,o),
(684.032,912.384,c)
);
},
{
closed = 1;
nodes = (
(355.328,210.944,o),
(309.248,269.312,o),
(309.248,322.56,cs),
(309.248,409.6,o),
(402.432,490.496,o),
(599.04,589.824,c),
(774.144,322.56,l),
(674.816,249.856,o),
(567.296,210.944,o),
(463.872,210.944,cs)
);
}
);
width = 1414;
},
{
layerId = "57FF79F6-5737-48C1-BD5F-8B84E303409D";
shapes = (
{
closed = 1;
nodes = (
(1048.576,-77.824,l),
(1256.448,79.872,l),
(1099.776,316.416,l),
(1189.888,430.08,o),
(1252.352,549.888,o),
(1287.168,677.888,c),
(1054.72,723.968,l),
(1038.336,651.264,o),
(1009.664,582.656,o),
(967.68,514.048,c),
(823.296,731.136,l),
(1057.792,866.304,o),
(1172.48,1011.712,o),
(1172.48,1177.6,cs),
(1172.48,1345.536,o),
(1039.36,1464.32,o),
(848.896,1464.32,cs),
(593.92,1464.32,o),
(379.904,1281.024,o),
(379.904,1061.888,cs),
(379.904,971.776,o),
(411.648,887.808,o),
(480.256,796.672,c),
(178.176,640,o),
(33.792,472.064,o),
(33.792,275.456,cs),
(33.792,93.184,o),
(193.536,-23.552,o),
(442.368,-23.552,cs),
(602.112,-23.552,o),
(763.904,31.744,o),
(910.336,137.216,c)
);
},
{
closed = 1;
nodes = (
(637.952,967.68,o),
(616.448,1026.048,o),
(616.448,1072.128,cs),
(616.448,1171.456,o),
(724.992,1268.736,o),
(834.56,1268.736,cs),
(905.216,1268.736,o),
(947.2,1233.92,o),
(947.2,1174.528,cs),
(947.2,1085.44,o),
(859.136,994.304,o),
(679.936,898.048,c)
);
},
{
closed = 1;
nodes = (
(337.92,188.416,o),
(293.888,248.832,o),
(293.888,312.32,cs),
(293.888,408.576,o),
(384,493.568,o),
(603.136,611.328,c),
(794.624,314.368,l),
(691.2,231.424,o),
(576.512,188.416,o),
(459.776,188.416,cs)
);
}
);
width = 1411;
},
{
layerId = "730F33E1-68ED-45B5-8902-551965799117";
shapes = (
{
closed = 1;
nodes = (
(1074.688,-57.856,l),
(1198.08,36.096,l),
(1037.568,290.304,l),
(1124.608,400.896,o),
(1193.216,532.992,o),
(1241.856,684.032,c),
(1103.872,713.984,l),
(1065.984,595.968,o),
(1019.648,498.944,o),
(959.232,412.672,c),
(748.032,748.032,l),
(997.888,890.112,o),
(1128.704,1044.736,o),
(1128.704,1199.872,cs),
(1128.704,1360.896,o),
(1021.696,1464.32,o),
(855.04,1464.32,cs),
(629.248,1464.32,o),
(435.968,1295.616,o),
(435.968,1098.752,cs),
(435.968,1009.408,o),
(470.016,918.528,o),
(550.144,791.296,c),
(231.168,616.192,o),
(74.496,452.864,o),
(74.496,266.24,cs),
(74.496,94.72,o),
(211.968,-22.016,o),
(415.488,-22.016,cs),
(596.736,-22.016,o),
(780.8,60.16,o),
(928.768,177.152,c)
);
},
{
closed = 1;
nodes = (
(605.696,954.624,o),
(574.208,1036.032,o),
(574.208,1095.168,cs),
(574.208,1218.304,o),
(707.328,1332.48,o),
(850.688,1332.48,cs),
(937.472,1332.48,o),
(999.424,1276.928,o),
(999.424,1199.872,cs),
(999.424,1094.656,o),
(886.016,977.408,o),
(666.88,855.04,c)
);
},
{
closed = 1;
nodes = (
(303.36,105.472,o),
(226.304,184.32,o),
(226.304,284.672,cs),
(226.304,414.72,o),
(349.44,526.592,o),
(616.96,674.304,c),
(856.832,290.56,l),
(739.584,192.256,o),
(589.568,105.472,o),
(431.36,105.472,cs)
);
}
);
width = 1404;
},
{
layerId = "67A62FEC-841D-491B-BA5E-8BAEF7B2DF33";
shapes = (
{
closed = 1;
nodes = (
(1083.392,-51.2,l),
(1178.624,21.504,l),
(1016.832,281.6,l),
(1102.848,391.168,o),
(1173.504,527.36,o),
(1226.752,686.08,c),
(1120.256,710.656,l),
(1075.2,577.536,o),
(1022.976,471.04,o),
(956.416,378.88,c),
(722.944,753.664,l),
(977.92,898.048,o),
(1114.112,1055.744,o),
(1114.112,1207.296,cs),
(1114.112,1366.016,o),
(1015.808,1464.32,o),
(857.088,1464.32,cs),
(641.024,1464.32,o),
(454.656,1300.48,o),
(454.656,1111.04,cs),
(454.656,1021.952,o),
(489.472,928.768,o),
(573.44,789.504,c),
(248.832,608.256,o),
(88.064,446.464,o),
(88.064,263.168,cs),
(88.064,95.232,o),
(218.112,-21.504,o),
(406.528,-21.504,cs),
(594.944,-21.504,o),
(786.432,69.632,o),
(934.912,190.464,c)
);
},
{
closed = 1;
nodes = (
(594.944,950.272,o),
(560.128,1039.36,o),
(560.128,1102.848,cs),
(560.128,1233.92,o),
(701.44,1353.728,o),
(856.064,1353.728,cs),
(948.224,1353.728,o),
(1016.832,1291.264,o),
(1016.832,1208.32,cs),
(1016.832,1097.728,o),
(894.976,971.776,o),
(662.528,840.704,c)
);
},
{
closed = 1;
nodes = (
(291.84,77.824,o),
(203.776,162.816,o),
(203.776,275.456,cs),
(203.776,416.768,o),
(337.92,537.6,o),
(621.568,695.296,c),
(877.568,282.624,l),
(755.712,179.2,o),
(593.92,77.824,o),
(421.888,77.824,cs)
);
}
);
width = 1402;
}
);
leftKerningGroup = B;
unicode = 38;
},
{
glyphname = quotesingle;
layers = (
{
layerId = "31A26675-4074-4365-ADEA-834199CB2297";
shapes = (
{
closed = 1;
nodes = (
(515.072,878.592,l),
(651.264,1476.608,l),
(418.816,1476.608,l),
(281.6,878.592,l)
);
}
);
width = 624;
},
{
layerId = "57FF79F6-5737-48C1-BD5F-8B84E303409D";
shapes = (
{
closed = 1;
nodes = (
(512,916.48,l),
(640,1476.608,l),
(430.08,1476.608,l),
(302.08,916.48,l)
);
}
);
width = 625;
},
{
layerId = "730F33E1-68ED-45B5-8902-551965799117";
shapes = (
{
closed = 1;
nodes = (
(504.32,1027.072,l),
(607.744,1476.608,l),
(465.408,1476.608,l),
(361.984,1027.072,l)
);
}
);
width = 627;
},
{
layerId = "67A62FEC-841D-491B-BA5E-8BAEF7B2DF33";
shapes = (
{
closed = 1;
nodes = (
(501.76,1063.936,l),
(596.992,1476.608,l),
(477.184,1476.608,l),
(381.952,1063.936,l)
);
}
);
width = 628;
}
);
leftKerningGroup = B;
unicode = 39;
},
{
glyphname = parenleft;
layers = (
{
layerId = "31A26675-4074-4365-ADEA-834199CB2297";
shapes = (
{
closed = 1;
nodes = (
(97.28,96.256,o),
(131.072,-58.296,o),
(199.68,-150.528,c),
(433.152,-150.528,l),
(347.136,2.12,o),
(304.128,156.672,o),
(304.128,309.248,cs),
(304.128,779.264,o),
(502.784,1286.144,o),
(849.92,1609.728,c),
(589.824,1609.728,l),
(260.096,1329.152,o),
(97.28,716.8,o),
(97.28,305.152,cs)
);
}
);
width = 589;
},
{
layerId = "57FF79F6-5737-48C1-BD5F-8B84E303409D";
shapes = (
{
closed = 1;
nodes = (
(110.592,193.536,o),
(130.048,2.048,o),
(214.016,-119.808,c),
(419.84,-119.808,l),
(336.896,28.672,o),
(295.936,180.224,o),
(295.936,334.848,cs),
(295.936,777.216,o),
(503.808,1277.952,o),
(822.272,1580.032,c),
(591.872,1580.032,l),
(273.408,1294.312,o),
(110.592,748.544,o),
(110.592,336.896,cs)
);
}
);
width = 587;
},
{
layerId = "730F33E1-68ED-45B5-8902-551965799117";
shapes = (
{
closed = 1;
nodes = (
(151.296,285.696,o),
(175.36,83.474,o),
(255.488,-37.632,c),
(379.904,-37.632,l),
(303.104,103.186,o),
(272.128,252.416,o),
(272.128,408.576,cs),
(272.128,794.112,o),
(471.552,1227.282,o),
(741.632,1496.32,c),
(597.248,1496.32,l),
(318.72,1228.3,o),
(151.296,812.288,o),
(151.296,427.52,cs)
);
}
);
width = 583;
},
{
layerId = "67A62FEC-841D-491B-BA5E-8BAEF7B2DF33";
shapes = (
{
closed = 1;
nodes = (
(164.864,316.416,o),
(190.464,110.616,o),
(269.312,-10.24,c),
(366.592,-10.24,l),
(291.84,128.024,o),
(264.192,276.48,o),
(264.192,433.152,cs),
(264.192,799.744,o),
(460.8,1210.392,o),
(714.752,1468.416,c),
(599.04,1468.416,l),
(333.824,1206.296,o),
(164.864,833.536,o),
(164.864,457.728,cs)
);
}
);
width = 581;
}
);
leftKerningGroup = B;
unicode = 40;
},
{
glyphname = parenright;
layers = (
{
layerId = "31A26675-4074-4365-ADEA-834199CB2297";
shapes = (
{
closed = 1;
nodes = (
(90.112,-149.504,l),
(411.648,115.304,o),
(596.992,761.856,o),
(596.992,1159.168,cs),
(596.992,1341.44,o),
(562.176,1503.824,o),
(493.568,1609.728,c),
(252.928,1609.728,l),
(336.896,1473.104,o),
(378.88,1301.504,o),
(378.88,1129.472,cs),
(378.88,657.408,o),
(176.128,180.84,o),
(-159.744,-149.504,c)
);
}
);
width = 588;
},
{
layerId = "57FF79F6-5737-48C1-BD5F-8B84E303409D";
shapes = (
{
closed = 1;
nodes = (
(88.064,-119.808,l),
(410.624,148.48,o),
(581.632,728.064,o),
(581.632,1127.424,cs),
(581.632,1310.72,o),
(546.816,1473.536,o),
(476.16,1580.032,c),
(264.192,1580.032,l),
(345.088,1441.792,o),
(385.024,1270.784,o),
(385.024,1101.824,cs),
(385.024,650.24,o),
(185.344,195.584,o),
(-134.144,-119.808,c)
);
}
);
width = 587;
},
{
layerId = "730F33E1-68ED-45B5-8902-551965799117";
shapes = (
{
closed = 1;
nodes = (
(80.384,-37.632,l),
(363.008,207.616,o),
(535.552,672,o),
(535.552,1035.264,cs),
(535.552,1198.592,o),
(506.112,1368.32,o),
(426.24,1496.32,c),
(300.288,1496.32,l),
(372.736,1353.472,o),
(405.76,1183.232,o),
(405.76,1021.184,cs),
(405.76,637.184,o),
(206.848,230.144,o),
(-58.112,-37.632,c)
);
}
);
width = 584;
},
{
layerId = "67A62FEC-841D-491B-BA5E-8BAEF7B2DF33";
shapes = (
{
closed = 1;
nodes = (
(77.824,-10.24,l),
(347.136,227.328,o),
(520.192,653.312,o),
(520.192,1004.544,cs),
(520.192,1161.216,o),
(492.544,1333.248,o),
(409.6,1468.416,c),
(312.32,1468.416,l),
(381.952,1324.032,o),
(412.672,1154.048,o),
(412.672,994.304,cs),
(412.672,632.832,o),
(214.016,241.664,o),
(-32.768,-10.24,c)
);
}
);
width = 583;
}
);
leftKerningGroup = B;
unicode = 41;
},
{
glyphname = asterisk;
layers = (
{
layerId = "31A26675-4074-4365-ADEA-834199CB2297";
shapes = (
{
closed = 1;
nodes = (
(439,849,l),
(595,1054,l),
(657,849,l),
(860,965,l),
(736,1116,l),
(971,1144,l),
(943,1333,l),
(721,1255,l),
(796,1447,l),
(569,1447,l),
(554,1255,l),
(361,1333,l),
(249,1144,l),
(467,1116,l),
(279,965,l)
);
}
);
width = 930;
},
{
layerId = "57FF79F6-5737-48C1-BD5F-8B84E303409D";
shapes = (
{
closed = 1;
nodes = (
(432,854,l),
(594,1067,l),
(658,854,l),
(839,958,l),
(713,1122,l),
(954,1153,l),
(931,1325,l),
(700,1241,l),
(778,1447,l),
(579,1447,l),
(560,1241,l),
(362,1325,l),
(262,1153,l),
(486,1122,l),
(290,958,l)
);
}
);
width = 923;
},
{
layerId = "730F33E1-68ED-45B5-8902-551965799117";
shapes = (
{
closed = 1;
nodes = (
(413.25,870.5,l),
(591,1106.75,l),
(662.5,871.25,l),
(774.5,942.25,l),
(641.75,1141.5,l),
(906.75,1182.25,l),
(895,1300.25,l),
(637.75,1199,l),
(727,1447,l),
(606,1447,l),
(579.5,1199,l),
(366.5,1300.25,l),
(301,1182.25,l),
(545.25,1141.5,l),
(325.25,941.5,l)
);
}
);
width = 902;
},
{
layerId = "67A62FEC-841D-491B-BA5E-8BAEF7B2DF33";
shapes = (
{
closed = 1;
nodes = (
(407,876,l),
(590,1120,l),
(664,877,l),
(753,937,l),
(618,1148,l),
(891,1192,l),
(883,1292,l),
(617,1185,l),
(710,1447,l),
(615,1447,l),
(586,1185,l),
(368,1292,l),
(314,1192,l),
(565,1148,l),
(337,936,l)
);
}
);
width = 895;
}
);
leftKerningGroup = B;
unicode = 42;
},
{
glyphname = plus;
layers = (
{
layerId = "31A26675-4074-4365-ADEA-834199CB2297";
shapes = (
{
closed = 1;
nodes = (
(744,109,l),
(744,532,l),
(1212,532,l),
(1212,745,l),
(744,745,l),
(744,1170,l),
(534,1170,l),
(534,745,l),
(66,745,l),
(66,532,l),
(534,532,l),
(534,109,l)
);
}
);
width = 1276;
},
{
layerId = "57FF79F6-5737-48C1-BD5F-8B84E303409D";
shapes = (
{
closed = 1;
nodes = (
(736,109,l),
(736,545,l),
(1204,545,l),
(1204,734,l),
(736,734,l),
(736,1170,l),
(548,1170,l),
(548,734,l),
(80,734,l),
(80,545,l),
(548,545,l),
(548,109,l)
);
}
);
width = 1283;
},
{
layerId = "730F33E1-68ED-45B5-8902-551965799117";
shapes = (
{
closed = 1;
nodes = (
(713.5,109,l),
(713.5,580.25,l),
(1182.25,580.25,l),
(1182.25,701,l),
(713.5,701,l),
(713.5,1169.25,l),
(591.5,1169.25,l),
(591.5,701,l),
(123.5,701,l),
(123.5,580.25,l),
(591.5,580.25,l),
(591.5,109,l)
);
}
);
width = 1306;
},
{
layerId = "67A62FEC-841D-491B-BA5E-8BAEF7B2DF33";
shapes = (
{
closed = 1;
nodes = (
(706,109,l),
(706,592,l),
(1175,592,l),
(1175,690,l),
(706,690,l),
(706,1169,l),
(606,1169,l),
(606,690,l),
(138,690,l),
(138,592,l),
(606,592,l),
(606,109,l)
);
}
);
width = 1313;
}
);
leftKerningGroup = B;
unicode = 43;
},
{
glyphname = comma;
layers = (
{
layerId = "63E1918D-1FC0-440A-8F20-CB7E9D337C03";
name = "#instance";
shapes = (
{
closed = 1;
nodes = (
(52.448,-231.424,l),
(371.936,267.264,l),
(192.736,267.264,l),
(-27.424,-231.424,l)
);
}
);
width = 614;
},
{
layerId = "31A26675-4074-4365-ADEA-834199CB2297";
shapes = (
{
closed = 1;
nodes = (
(100.352,-230.4,l),
(446.464,270.336,l),
(128,270.336,l),
(-90.112,-230.4,l)
);
}
);
width = 614;
},
{
layerId = "57FF79F6-5737-48C1-BD5F-8B84E303409D";
shapes = (
{
closed = 1;
nodes = (
(89.088,-230.4,l),
(430.08,270.336,l),
(139.264,270.336,l),
(-78.848,-230.4,l)
);
}
);
width = 614;
},
{
layerId = "730F33E1-68ED-45B5-8902-551965799117";
shapes = (
{
closed = 1;
nodes = (
(61.608,-231.168,l),
(386.472,268.032,l),
(179.368,268.032,l),
(-40.28,-231.168,l)
);
}
);
width = 614;
},
{
layerId = "67A62FEC-841D-491B-BA5E-8BAEF7B2DF33";
shapes = (
{
closed = 1;
nodes = (
(52.448,-231.424,l),
(371.936,267.264,l),
(192.736,267.264,l),
(-27.424,-231.424,l)
);
}
);
width = 614;
}
);
leftKerningGroup = B;
unicode = 44;
},
{
glyphname = hyphen;
leftMetricsKey = "=145";
rightMetricsKey = "=|";
layers = (
{
layerId = "31A26675-4074-4365-ADEA-834199CB2297";
shapes = (
{
closed = 1;
nodes = (
(760.501,490.426,l),
(820.824,749.736,l),
(201.28,749.736,l),
(140.981,490.426,l)
);
}
);
width = 911;
},
{
layerId = "57FF79F6-5737-48C1-BD5F-8B84E303409D";
shapes = (
{
closed = 1;
nodes = (
(750.592,544.768,l),
(796.903,735.208,l),
(198.887,735.208,l),
(153.6,544.768,l)
);
}
);
width = 891;
},
{
layerId = "730F33E1-68ED-45B5-8902-551965799117";
leftMetricsKey = "=176";
shapes = (
{
closed = 1;
nodes = (
(723.019,578.631,l),
(753.473,705.988,l),
(222.273,705.988,l),
(192.075,578.631,l)
);
}
);
width = 885;
},
{
layerId = "67A62FEC-841D-491B-BA5E-8BAEF7B2DF33";
leftMetricsKey = "=186";
shapes = (
{
closed = 1;
nodes = (
(713.829,589.918,l),
(738.997,696.248,l),
(230.069,696.248,l),
(204.901,589.918,l)
);
}
);
width = 883;
}
);
leftKerningGroup = B;
unicode = 45;
},
{
glyphname = period;
layers = (
{
layerId = "31A26675-4074-4365-ADEA-834199CB2297";
shapes = (
{
closed = 1;
nodes = (
(331.776,0,l),
(397.312,292.864,l),
(130.048,292.864,l),
(64.512,0,l)
);
}
);
width = 614;
},
{
layerId = "57FF79F6-5737-48C1-BD5F-8B84E303409D";
shapes = (
{
closed = 1;
nodes = (
(322.56,0,l),
(382.976,270.336,l),
(131.072,270.336,l),
(70.656,0,l)
);
}
);
width = 614;
},
{
layerId = "730F33E1-68ED-45B5-8902-551965799117";
shapes = (
{
closed = 1;
nodes = (
(307.968,0,l),
(354.56,203.52,l),
(148.736,203.52,l),
(101.376,0,l)
);
}
);
width = 614;
},
{
layerId = "67A62FEC-841D-491B-BA5E-8BAEF7B2DF33";
shapes = (
{
closed = 1;
nodes = (
(303.104,0,l),
(345.088,181.248,l),
(154.624,181.248,l),
(111.616,0,l)
);
}
);
width = 614;
}
);
leftKerningGroup = B;
unicode = 46;
},
{
glyphname = slash;
layers = (
{
layerId = "31A26675-4074-4365-ADEA-834199CB2297";
shapes = (
{
closed = 1;
nodes = (
(-17,-440,l),
(1253,1552,l),
(989,1552,l),
(-278,-440,l)
);
}
);
width = 955;
},
{
layerId = "57FF79F6-5737-48C1-BD5F-8B84E303409D";
shapes = (
{
closed = 1;
nodes = (
(-24,-440,l),
(1237,1552,l),
(998,1552,l),
(-260,-440,l)
);
}
);
width = 956;
},
{
layerId = "730F33E1-68ED-45B5-8902-551965799117";
shapes = (
{
closed = 1;
nodes = (
(-43.5,-440.75,l),
(1190.5,1552,l),
(1025.75,1552,l),
(-210.5,-440.75,l)
);
}
);
width = 961;
},
{
layerId = "67A62FEC-841D-491B-BA5E-8BAEF7B2DF33";
shapes = (
{
closed = 1;
nodes = (
(-50,-441,l),
(1175,1552,l),
(1035,1552,l),
(-194,-441,l)
);
}
);
width = 962;
}
);
leftKerningGroup = B;
unicode = 47;
},
{
glyphname = zero;
layers = (
{
layerId = "31A26675-4074-4365-ADEA-834199CB2297";
shapes = (
{
closed = 1;
nodes = (
(980,-20,o),
(1230,540,o),
(1230,930,cs),
(1230,1192,o),
(1116,1470,o),
(813,1470,cs),
(346,1470,o),
(105,908,o),
(105,508,cs),
(105,234,o),
(215,-20,o),
(525,-20,cs)
);
},
{
closed = 1;
nodes = (
(411,255,o),
(375,397,o),
(375,530,cs),
(375,732,o),
(504,1190,o),
(764,1190,cs),
(919,1190,o),
(948,1042,o),
(948,916,cs),
(948,725,o),
(816,255,o),
(570,255,cs)
);
}
);
width = 1229;
},
{
layerId = "57FF79F6-5737-48C1-BD5F-8B84E303409D";
shapes = (
{
closed = 1;
nodes = (
(927,-20,o),
(1217,517,o),
(1217,949,cs),
(1217,1202,o),
(1109,1470,o),
(807,1470,cs),
(341,1470,o),
(99,901,o),
(99,504,cs),
(99,209,o),
(220,-20,o),
(512,-20,cs)
);
},
{
closed = 1;
nodes = (
(377,226,o),
(342,384,o),
(342,520,cs),
(342,759,o),
(489,1219,o),
(762,1219,cs),
(931,1219,o),
(961,1054,o),
(961,928,cs),
(961,709,o),
(821,226,o),
(553,226,cs)
);
}
);
width = 1229;
},
{
layerId = "730F33E1-68ED-45B5-8902-551965799117";
shapes = (
{
closed = 1;
nodes = (
(900.75,-20,o),
(1175,571,o),
(1175,958,cs),
(1175,1202.75,o),
(1085,1470,o),
(787.5,1470,cs),
(339.5,1470,o),
(79.5,874,o),
(79.5,491.25,cs),
(79.5,223.25,o),
(168.25,-20,o),
(470.75,-20,cs)
);
},
{
closed = 1;
nodes = (
(287,133,o),
(240,315.75,o),
(240,487.75,cs),
(240,770.25,o),
(413.25,1311.25,o),
(756,1311.25,cs),
(955,1311.25,o),
(1002.25,1125.25,o),
(1002.25,964,cs),
(1002.25,694,o),
(831.5,133,o),
(496.75,133,cs)
);
}
);
width = 1229;
},
{
layerId = "67A62FEC-841D-491B-BA5E-8BAEF7B2DF33";
shapes = (
{
closed = 1;
nodes = (
(892,-20,o),
(1161,589,o),
(1161,961,cs),
(1161,1203,o),
(1077,1470,o),
(781,1470,cs),
(339,1470,o),
(73,865,o),
(73,487,cs),
(73,228,o),
(151,-20,o),
(457,-20,cs)
);
},
{
closed = 1;
nodes = (
(257,102,o),
(206,293,o),
(206,477,cs),
(206,774,o),
(388,1342,o),
(754,1342,cs),
(963,1342,o),
(1016,1149,o),
(1016,976,cs),
(1016,689,o),
(835,102,o),
(478,102,cs)
);
}
);
width = 1229;
}
);
leftKerningGroup = B;
unicode = 48;
},
{
glyphname = one;
layers = (
{
layerId = "63E1918D-1FC0-440A-8F20-CB7E9D337C03";
name = "#instance";
shapes = (
{
closed = 1;
nodes = (
(621.568,0,l),
(954.368,1446.912,l),
(829.44,1446.912,l),
(804.864,1327.104,o),
(718.848,1236.992,o),
(591.872,1236.992,cs),
(378.408,1236.992,l),
(352.808,1123.328,l),
(741.376,1123.328,l),
(482.304,0,l)
);
}
);
width = 1229;
},
{
layerId = "31A26675-4074-4365-ADEA-834199CB2297";
shapes = (
{
closed = 1;
nodes = (
(735.232,0,l),
(1069.056,1446.912,l),
(792.576,1446.912,l),
(773.12,1337.344,o),
(711.68,1256.448,o),
(593.92,1256.448,cs),
(358.936,1256.448,l),
(310.808,1038.336,l),
(690.176,1038.336,l),
(449.536,0,l)
);
}
);
width = 1229;
},
{
layerId = "57FF79F6-5737-48C1-BD5F-8B84E303409D";
shapes = (
{
closed = 1;
nodes = (
(716.8,0,l),
(1050.624,1446.912,l),
(804.864,1446.912,l),
(781.312,1334.272,o),
(723.968,1252.352,o),
(598.016,1252.352,cs),
(363.032,1252.352,l),
(319,1054.72,l),
(704.512,1054.72,l),
(460.8,0,l)
);
}
);
width = 1229;
},
{
layerId = "730F33E1-68ED-45B5-8902-551965799117";
shapes = (
{
closed = 1;
nodes = (
(645.376,0,l),
(978.432,1446.912,l),
(823.296,1446.912,l),
(798.976,1328.896,o),
(720.128,1240.832,o),
(593.408,1240.832,cs),
(374.564,1240.832,l),
(344.356,1106.176,l),
(732.16,1106.176,l),
(476.928,0,l)
);
}
);
width = 1229;
},
{
layerId = "67A62FEC-841D-491B-BA5E-8BAEF7B2DF33";
shapes = (
{
closed = 1;
nodes = (
(621.568,0,l),
(954.368,1446.912,l),
(829.44,1446.912,l),
(804.864,1327.104,o),
(718.848,1236.992,o),
(591.872,1236.992,cs),
(378.408,1236.992,l),
(352.808,1123.328,l),
(741.376,1123.328,l),
(482.304,0,l)
);
}
);
width = 1229;
}
);
leftKerningGroup = B;
unicode = 49;
},
{
glyphname = two;
layers = (
{
layerId = "31A26675-4074-4365-ADEA-834199CB2297";
shapes = (
{
closed = 1;
nodes = (
(-71.68,0,l),
(1054.72,0,l),
(1116.16,261.12,l),
(485.376,261.12,l),
(886.784,458.752,o),
(1226.752,848.896,o),
(1226.752,1111.04,cs),
(1226.752,1320.96,o),
(1063.936,1468.416,o),
(830.464,1468.416,cs),
(547.84,1468.416,o),
(269.312,1231.872,o),
(199.68,933.888,c),
(472.064,892.928,l),
(522.24,1085.44,o),
(648.192,1207.296,o),
(797.696,1207.296,cs),
(889.856,1207.296,o),
(940.032,1165.312,o),
(940.032,1086.464,cs),
(940.032,889.856,o),
(487.424,488.448,o),
(-23.552,231.424,c)
);
}
);
width = 1229;
},
{
layerId = "57FF79F6-5737-48C1-BD5F-8B84E303409D";
shapes = (
{
closed = 1;
nodes = (
(-56.32,0,l),
(1040.384,0,l),
(1094.656,231.424,l),
(430.08,231.424,l),
(884.736,465.92,o),
(1214.464,839.68,o),
(1214.464,1121.28,cs),
(1214.464,1329.152,o),
(1058.816,1468.416,o),
(828.416,1468.416,cs),
(555.989,1468.416,o),
(303.604,1257.365,o),
(223.608,972.285,c),
(468.095,928.526,l),
(525.958,1119.426,o),
(650.91,1234.944,o),
(802.816,1234.944,cs),
(902.144,1234.944,o),
(956.416,1186.816,o),
(956.416,1100.8,cs),
(956.416,893.952,o),
(566.272,535.552,o),
(-12.288,211.968,c)
);
}
);
width = 1229;
},
{
layerId = "730F33E1-68ED-45B5-8902-551965799117";
shapes = (
{
closed = 1;
nodes = (
(-33.28,0,l),
(974.336,0,l),
(1007.104,143.872,l),
(240.384,143.872,l),
(820.992,456.704,o),
(1187.584,841.216,o),
(1187.584,1142.016,cs),
(1187.584,1334.528,o),
(1047.296,1468.416,o),
(823.04,1468.416,cs),
(557.557,1468.416,o),
(332.413,1278.181,o),
(260.19,995.711,c),
(417.312,968.643,l),
(475.554,1180.721,o),
(629.672,1317.888,o),
(810.496,1317.888,cs),
(937.472,1317.888,o),
(1014.784,1236.736,o),
(1014.784,1126.912,cs),
(1014.784,867.072,o),
(614.656,484.096,o),
(-0.768,150.528,c)
);
}
);
width = 1229;
},
{
layerId = "67A62FEC-841D-491B-BA5E-8BAEF7B2DF33";
shapes = (
{
closed = 1;
nodes = (
(-25.6,0,l),
(952.32,0,l),
(977.92,114.688,l),
(177.152,114.688,l),
(799.744,453.632,o),
(1178.624,841.728,o),
(1178.624,1148.928,cs),
(1178.624,1336.32,o),
(1043.456,1468.416,o),
(821.248,1468.416,cs),
(558.08,1468.416,o),
(342.016,1285.12,o),
(272.384,1003.52,c),
(400.384,982.016,l),
(458.752,1201.152,o),
(622.592,1345.536,o),
(813.056,1345.536,cs),
(949.248,1345.536,o),
(1034.24,1253.376,o),
(1034.24,1135.616,cs),
(1034.24,858.112,o),
(630.784,466.944,o),
(3.072,130.048,c)
);
}
);
width = 1229;
}
);
leftKerningGroup = B;
unicode = 50;
},
{
glyphname = three;
layers = (
{
layerId = "63E1918D-1FC0-440A-8F20-CB7E9D337C03";
name = "#instance";
shapes = (
{
closed = 1;
nodes = (
(785,-20,o),
(1031,204,o),
(1031,506,cs),
(1031,646,o),
(972,733,o),
(847,775,c),
(1012,857,o),
(1113,1013,o),
(1113,1185,cs),
(1113,1353,o),
(977,1468,o),
(780,1468,cs),
(545,1468,o),
(351,1321,o),
(299,1104,c),
(417,1081,l),
(454,1234,o),
(602,1347,o),
(765,1347,cs),
(891,1347,o),
(982,1266,o),
(982,1155,cs),
(982,962,o),
(833,829,o),
(618,829,cs),
(575,829,l),
(547,706,l),
(652,706,ls),
(798,706,o),
(907,615,o),
(907,492,cs),
(907,279,o),
(705,97,o),
(468,97,cs),
(299,97,o),
(184,192,o),
(184,332,cs),
(184,357,o),
(187,383,o),
(193,407,c),
(68,400,l),
(58,361,o),
(53,325,o),
(53,292,cs),
(53,102,o),
(210,-20,o),
(453,-20,cs)
);
}
);
width = 1229;
},
{
layerId = "31A26675-4074-4365-ADEA-834199CB2297";
shapes = (
{
closed = 1;
nodes = (
(863,-20,o),
(1143,207,o),
(1143,518,cs),
(1143,631,o),
(1105,713,o),
(1023,774,c),
(1139,864,o),
(1210,1000,o),
(1210,1133,cs),
(1210,1328,o),
(1045,1468,o),
(816,1468,cs),
(527,1468,o),
(293,1292,o),
(240,1034,c),
(507,993,l),
(538,1115,o),
(642,1196,o),
(770,1196,cs),
(867,1196,o),
(928,1158,o),
(928,1098,cs),
(928,987,o),
(827,896,o),
(703,896,cs),
(548,896,l),
(486,639,l),
(657,639,ls),
(793,639,o),
(871,593,o),
(871,512,cs),
(871,368,o),
(714,249,o),
(526,249,cs),
(391,249,o),
(312,311,o),
(312,418,cs),
(312,437,o),
(314,457,o),
(318,480,c),
(43,480,l),
(33,442,o),
(28,401,o),
(28,362,cs),
(28,134,o),
(211,-20,o),
(481,-20,cs)
);
}
);
width = 1229;
},
{
layerId = "57FF79F6-5737-48C1-BD5F-8B84E303409D";
shapes = (
{
closed = 1;
nodes = (
(858,-20,o),
(1126,207,o),
(1126,515,cs),
(1126,633,o),
(1082,719,o),
(994,774,c),
(1121,869,o),
(1196,1006,o),
(1196,1143,cs),
(1196,1336,o),
(1038,1468,o),
(805,1468,cs),
(536,1468,o),
(322,1304,o),
(258,1049,c),
(495,1011,l),
(528,1141,o),
(641,1227,o),
(776,1227,cs),
(881,1227,o),
(945,1182,o),
(945,1110,cs),
(945,986,o),
(834,883,o),
(700,883,cs),
(560,883,l),
(505,652,l),
(660,652,ls),
(801,652,o),
(885,599,o),
(885,509,cs),
(885,352,o),
(716,218,o),
(520,218,cs),
(378,218,o),
(293,286,o),
(293,400,cs),
(293,424,o),
(295,444,o),
(300,465,c),
(54,465,l),
(45,427,o),
(40,387,o),
(40,349,cs),
(40,126,o),
(219,-20,o),
(493,-20,cs)
);
}
);
width = 1229;
},
{
layerId = "730F33E1-68ED-45B5-8902-551965799117";
shapes = (
{
closed = 1;
nodes = (
(803.25,-20,o),
(1054.75,204.75,o),
(1054.75,508.25,cs),
(1054.75,642.75,o),
(999.5,729.5,o),
(883.75,774.75,c),
(1039.25,860,o),
(1133.75,1011.25,o),
(1133.75,1174.5,cs),
(1133.75,1348.75,o),
(992.25,1468,o),
(786.25,1468,cs),
(542.75,1468,o),
(343.75,1316.75,o),
(288.75,1090.25,c),
(436.5,1063.5,l),
(472.5,1210.75,o),
(611.75,1317,o),
(767.75,1317,cs),
(888.5,1317,o),
(972.75,1245,o),
(972.75,1143.75,cs),
(972.75,968,o),
(833.25,842.5,o),
(638.5,842.5,cs),
(571.25,842.5,l),
(536.5,692.5,l),
(654,692.5,ls),
(798.75,692.5,o),
(901.5,611,o),
(901.5,496.25,cs),
(901.5,297.25,o),
(707.75,127.25,o),
(481,127.25,cs),
(318.75,127.25,o),
(211.25,215.5,o),
(211.25,349,cs),
(211.25,373.75,o),
(214,398.25,o),
(219.75,421.5,c),
(64.5,416.25,l),
(54.75,377.5,o),
(49.75,340.5,o),
(49.75,306.25,cs),
(49.75,108,o),
(212.25,-20,o),
(463,-20,cs)
);
}
);
width = 1229;
},
{
layerId = "67A62FEC-841D-491B-BA5E-8BAEF7B2DF33";
shapes = (
{
closed = 1;
nodes = (
(785,-20,o),
(1031,204,o),
(1031,506,cs),
(1031,646,o),
(972,733,o),
(847,775,c),
(1012,857,o),
(1113,1013,o),
(1113,1185,cs),
(1113,1353,o),
(977,1468,o),
(780,1468,cs),
(545,1468,o),
(351,1321,o),
(299,1104,c),
(417,1081,l),
(454,1234,o),
(602,1347,o),
(765,1347,cs),
(891,1347,o),
(982,1266,o),
(982,1155,cs),
(982,962,o),
(833,829,o),
(618,829,cs),
(575,829,l),
(547,706,l),
(652,706,ls),
(798,706,o),
(907,615,o),
(907,492,cs),
(907,279,o),
(705,97,o),
(468,97,cs),
(299,97,o),
(184,192,o),
(184,332,cs),
(184,357,o),
(187,383,o),
(193,407,c),
(68,400,l),
(58,361,o),
(53,325,o),
(53,292,cs),
(53,102,o),
(210,-20,o),
(453,-20,cs)
);
}
);
width = 1229;
}
);
leftKerningGroup = B;
unicode = 51;
},
{
glyphname = four;
layers = (
{
layerId = "31A26675-4074-4365-ADEA-834199CB2297";
shapes = (
{
closed = 1;
nodes = (
(849.92,0,l),
(920.576,324.608,l),
(1139.712,324.608,l),
(1198.08,591.872,l),
(978.944,591.872,l),
(1167.36,1446.912,l),
(924.672,1446.912,l),
(33.792,489.472,l),
(0,324.608,l),
(634.88,324.608,l),
(565.248,0,l)
);
},
{
closed = 1;
nodes = (
(693.248,591.872,l),
(430.08,591.872,l),
(780.288,982.016,l)
);
}
);
width = 1229;
},
{
layerId = "57FF79F6-5737-48C1-BD5F-8B84E303409D";
shapes = (
{
closed = 1;
nodes = (
(825.344,0,l),
(900.096,338.944,l),
(1121.28,338.944,l),
(1173.504,577.536,l),
(952.32,577.536,l),
(1145.856,1446.912,l),
(924.672,1446.912,l),
(32.768,487.424,l),
(2.048,338.944,l),
(643.072,338.944,l),
(569.344,0,l)
);
},
{
closed = 1;
nodes = (
(695.296,577.536,l),
(385.024,577.536,l),
(797.696,1031.168,l)
);
}
);
width = 1229;
},
{
layerId = "730F33E1-68ED-45B5-8902-551965799117";
shapes = (
{
closed = 1;
nodes = (
(747.008,0,l),
(834.816,385.792,l),
(1062.144,385.792,l),
(1094.4,531.456,l),
(867.072,531.456,l),
(1075.968,1446.912,l),
(924.672,1446.912,l),
(29.696,480.512,l),
(8.96,385.792,l),
(669.184,385.792,l),
(581.632,0,l)
);
},
{
closed = 1;
nodes = (
(701.44,531.456,l),
(241.408,531.456,l),
(851.456,1186.304,l)
);
}
);
width = 1229;
},
{
layerId = "67A62FEC-841D-491B-BA5E-8BAEF7B2DF33";
shapes = (
{
closed = 1;
nodes = (
(720.896,0,l),
(813.056,401.408,l),
(1042.432,401.408,l),
(1068.032,516.096,l),
(838.656,516.096,l),
(1052.672,1446.912,l),
(924.672,1446.912,l),
(28.672,478.208,l),
(11.264,401.408,l),
(677.888,401.408,l),
(585.728,0,l)
);
},
{
closed = 1;
nodes = (
(703.488,516.096,l),
(193.536,516.096,l),
(869.376,1238.016,l)
);
}
);
width = 1229;
}
);
leftKerningGroup = B;
unicode = 52;
},
{
glyphname = five;
layers = (
{
layerId = "31A26675-4074-4365-ADEA-834199CB2297";
shapes = (
{
closed = 1;
nodes = (
(891.904,-20.48,o),
(1181.696,226.304,o),
(1181.696,620.544,cs),
(1181.696,850.944,o),
(1013.76,1009.664,o),
(769.024,1009.664,cs),
(705.536,1009.664,o),
(603.136,993.28,o),
(533.504,955.392,c),
(635.904,1177.6,l),
(1238.016,1177.6,l),
(1299.456,1446.912,l),
(463.872,1446.912,l),
(143.36,675.84,l),
(397.312,607.232,l),
(465.92,687.104,o),
(578.56,744.448,o),
(667.648,744.448,cs),
(789.504,744.448,o),
(864.256,680.96,o),
(864.256,553.984,cs),
(864.256,393.216,o),
(750.592,244.736,o),
(549.888,244.736,cs),
(421.888,244.736,o),
(329.728,325.632,o),
(329.728,492.544,c),
(51.2,443.392,l),
(51.2,176.128,o),
(265.216,-20.48,o),
(555.008,-20.48,cs)
);
}
);
width = 1229;
},
{
layerId = "57FF79F6-5737-48C1-BD5F-8B84E303409D";
shapes = (
{
closed = 1;
nodes = (
(877.568,-20.48,o),
(1138.688,228.352,o),
(1138.688,590.848,cs),
(1138.688,825.344,o),
(972.8,994.304,o),
(740.352,994.304,cs),
(650.24,994.304,o),
(582.656,979.968,o),
(512,944.128,c),
(630.784,1208.32,l),
(1230.848,1208.32,l),
(1285.12,1446.912,l),
(478.208,1446.912,l),
(163.84,686.08,l),
(388.096,616.448,l),
(463.872,704.512,o),
(575.488,760.832,o),
(674.816,760.832,cs),
(802.816,760.832,o),
(879.616,692.224,o),
(879.616,577.536,cs),
(879.616,355.328,o),
(741.376,214.016,o),
(522.24,214.016,cs),
(384,214.016,o),
(312.32,303.104,o),
(312.32,476.16,c),
(64.512,430.08,l),
(64.512,173.056,o),
(248.832,-20.48,o),
(494.592,-20.48,cs)
);
}
);
width = 1229;
},
{
layerId = "730F33E1-68ED-45B5-8902-551965799117";
shapes = (
{
closed = 1;
nodes = (
(801.536,-20.48,o),
(1079.552,255.232,o),
(1079.552,582.4,cs),
(1079.552,803.072,o),
(934.4,948.992,o),
(714.24,948.992,cs),
(600.32,948.992,o),
(503.552,915.456,o),
(417.536,847.36,c),
(600.832,1298.176,l),
(1193.216,1298.176,l),
(1227.52,1446.912,l),
(503.552,1446.912,l),
(208.384,715.264,l),
(342.016,645.632,l),
(423.168,742.144,o),
(553.216,804.608,o),
(673.28,804.608,cs),
(823.552,804.608,o),
(911.872,719.872,o),
(911.872,574.464,cs),
(911.872,333.056,o),
(720.64,127.232,o),
(494.592,127.232,cs),
(322.56,127.232,o),
(243.968,221.696,o),
(243.968,427.776,c),
(84.48,388.608,l),
(84.48,144.64,o),
(239.616,-20.48,o),
(470.016,-20.48,cs)
);
}
);
width = 1229;
},
{
layerId = "67A62FEC-841D-491B-BA5E-8BAEF7B2DF33";
shapes = (
{
closed = 1;
nodes = (
(776.192,-20.48,o),
(1059.84,264.192,o),
(1059.84,579.584,cs),
(1059.84,795.648,o),
(921.6,933.888,o),
(705.536,933.888,cs),
(583.68,933.888,o),
(477.184,893.952,o),
(386.048,815.104,c),
(590.848,1328.128,l),
(1180.672,1328.128,l),
(1208.32,1446.912,l),
(512,1446.912,l),
(223.232,724.992,l),
(326.656,655.36,l),
(409.6,754.688,o),
(545.792,819.2,o),
(672.768,819.2,cs),
(830.464,819.2,o),
(922.624,729.088,o),
(922.624,573.44,cs),
(922.624,325.632,o),
(713.728,98.304,o),
(485.376,98.304,cs),
(302.08,98.304,o),
(221.184,194.56,o),
(221.184,411.648,c),
(91.136,374.784,l),
(91.136,135.168,o),
(236.544,-20.48,o),
(461.824,-20.48,cs)
);
}
);
width = 1229;
}
);
leftKerningGroup = B;
unicode = 53;
},
{
glyphname = six;
layers = (
{
layerId = "31A26675-4074-4365-ADEA-834199CB2297";
shapes = (
{
closed = 1;
nodes = (
(822.272,-20.48,o),
(1162.24,243.712,o),
(1162.24,588.8,cs),
(1162.24,851.968,o),
(1012.736,989.184,o),
(775.168,989.184,cs),
(754.688,989.184,o),
(733.184,988.16,o),
(711.68,986.112,c),
(1142.784,1446.912,l),
(802.816,1446.912,l),
(202.752,752.64,ls),
(111.616,646.144,o),
(59.392,536.576,o),
(59.392,393.216,cs),
(59.392,144.384,o),
(254.976,-20.48,o),
(495.616,-20.48,cs)
);
},
{
closed = 1;
nodes = (
(447.488,252.928,o),
(342.016,308.224,o),
(342.016,423.936,cs),
(342.016,582.656,o),
(522.24,730.112,o),
(673.792,730.112,cs),
(777.216,730.112,o),
(877.568,676.864,o),
(877.568,561.152,cs),
(877.568,404.48,o),
(702.464,252.928,o),
(550.912,252.928,cs)
);
}
);
width = 1229;
},
{
layerId = "57FF79F6-5737-48C1-BD5F-8B84E303409D";
shapes = (
{
closed = 1;
nodes = (
(819.2,-20.48,o),
(1145.856,250.88,o),
(1145.856,575.488,cs),
(1145.856,812.032,o),
(991.232,973.824,o),
(740.352,973.824,cs),
(721.92,973.824,o),
(703.488,972.8,o),
(684.032,970.752,c),
(1115.136,1446.912,l),
(813.056,1446.912,l),
(214.016,744.448,ls),
(119.808,634.88,o),
(72.704,515.072,o),
(72.704,386.048,cs),
(72.704,135.168,o),
(267.264,-20.48,o),
(504.832,-20.48,cs)
);
},
{
closed = 1;
nodes = (
(424.96,222.208,o),
(324.608,291.84,o),
(324.608,411.648,cs),
(324.608,583.68,o),
(513.024,746.496,o),
(684.032,746.496,cs),
(795.648,746.496,o),
(892.928,677.888,o),
(892.928,559.104,cs),
(892.928,382.976,o),
(705.536,222.208,o),
(536.576,222.208,cs)
);
}
);
width = 1229;
},
{
layerId = "730F33E1-68ED-45B5-8902-551965799117";
shapes = (
{
closed = 1;
nodes = (
(780.8,-20.48,o),
(1076.736,257.792,o),
(1076.736,565.504,cs),
(1076.736,812.032,o),
(899.072,926.976,o),
(684.288,926.976,cs),
(643.584,926.976,o),
(592.128,917.504,o),
(548.864,897.792,c),
(1007.616,1446.912,l),
(819.968,1446.912,l),
(225.536,717.568,ls),
(140.544,613.376,o),
(88.832,490.496,o),
(88.832,359.168,cs),
(88.832,132.864,o),
(254.208,-20.48,o),
(477.184,-20.48,cs)
);
},
{
closed = 1;
nodes = (
(356.608,132.352,o),
(252.416,234.24,o),
(252.416,379.392,cs),
(252.416,592.128,o),
(452.352,785.664,o),
(664.832,785.664,cs),
(807.168,785.664,o),
(913.664,695.552,o),
(913.664,548.352,cs),
(913.664,340.736,o),
(709.376,132.352,o),
(501.248,132.352,cs)
);
}
);
width = 1229;
},
{
layerId = "67A62FEC-841D-491B-BA5E-8BAEF7B2DF33";
shapes = (
{
closed = 1;
nodes = (
(768,-20.48,o),
(1053.696,260.096,o),
(1053.696,562.176,cs),
(1053.696,812.032,o),
(868.352,911.36,o),
(665.6,911.36,cs),
(617.472,911.36,o),
(555.008,899.072,o),
(503.808,873.472,c),
(971.776,1446.912,l),
(822.272,1446.912,l),
(229.376,708.608,ls),
(147.456,606.208,o),
(94.208,482.304,o),
(94.208,350.208,cs),
(94.208,132.096,o),
(249.856,-20.48,o),
(467.968,-20.48,cs)
);
},
{
closed = 1;
nodes = (
(333.824,102.4,o),
(228.352,215.04,o),
(228.352,368.64,cs),
(228.352,594.944,o),
(432.128,798.72,o),
(658.432,798.72,cs),
(811.008,798.72,o),
(920.576,701.44,o),
(920.576,544.768,cs),
(920.576,326.656,o),
(710.656,102.4,o),
(489.472,102.4,cs)
);
}
);
width = 1229;
}
);
leftKerningGroup = B;
unicode = 54;
},
{
glyphname = seven;
layers = (
{
layerId = "31A26675-4074-4365-ADEA-834199CB2297";
shapes = (
{
closed = 1;
nodes = (
(390.144,0,l),
(1335.296,1298.432,l),
(1369.088,1446.912,l),
(299.008,1446.912,l),
(237.568,1180.672,l),
(950.272,1180.672,l),
(64.512,0,l)
);
}
);
width = 1229;
},
{
layerId = "57FF79F6-5737-48C1-BD5F-8B84E303409D";
shapes = (
{
closed = 1;
nodes = (
(381.952,0,l),
(1325.056,1314.816,l),
(1354.752,1446.912,l),
(310.272,1446.912,l),
(256,1210.368,l),
(983.04,1210.368,l),
(90.112,0,l)
);
}
);
width = 1229;
},
{
layerId = "730F33E1-68ED-45B5-8902-551965799117";
shapes = (
{
closed = 1;
nodes = (
(333.568,0,l),
(1273.6,1363.2,l),
(1291.776,1446.912,l),
(323.328,1446.912,l),
(289.024,1297.92,l),
(1059.84,1297.92,l),
(143.872,0,l)
);
}
);
width = 1229;
},
{
layerId = "67A62FEC-841D-491B-BA5E-8BAEF7B2DF33";
shapes = (
{
closed = 1;
nodes = (
(317.44,0,l),
(1256.448,1379.328,l),
(1270.784,1446.912,l),
(327.68,1446.912,l),
(300.032,1327.104,l),
(1085.44,1327.104,l),
(161.792,0,l)
);
}
);
width = 1229;
}
);
leftKerningGroup = B;
unicode = 55;
},
{
glyphname = eight;
layers = (
{
layerId = "31A26675-4074-4365-ADEA-834199CB2297";
shapes = (
{
closed = 1;
nodes = (
(810,-20,o),
(1152,145,o),
(1152,510,cs),
(1152,616,o),
(1116,707,o),
(1026,768,c),
(1137,857,o),
(1225,984,o),
(1225,1130,cs),
(1225,1362,o),
(1030,1468,o),
(821,1468,cs),
(550,1468,o),
(260,1294,o),
(260,995,cs),
(260,922,o),
(280,854,o),
(326,797,c),
(154,703,o),
(36,535,o),
(36,336,cs),
(36,90,o),
(276,-20,o),
(492,-20,cs)
);
},
{
closed = 1;
nodes = (
(622,894,o),
(539,914,o),
(539,1000,cs),
(539,1123,o),
(679,1200,o),
(790,1200,cs),
(857,1200,o),
(945,1183,o),
(945,1099,cs),
(945,975,o),
(803,894,o),
(692,894,cs)
);
},
{
closed = 1;
nodes = (
(447,243,o),
(323,266,o),
(323,380,cs),
(323,557,o),
(501,642,o),
(656,642,cs),
(741,642,o),
(870,620,o),
(870,510,cs),
(870,340,o),
(686,243,o),
(537,243,cs)
);
}
);
width = 1229;
},
{
layerId = "57FF79F6-5737-48C1-BD5F-8B84E303409D";
shapes = (
{
closed = 1;
nodes = (
(813,-20,o),
(1136,158,o),
(1136,506,cs),
(1136,621,o),
(1090,709,o),
(998,770,c),
(1135,865,o),
(1210,1001,o),
(1210,1146,cs),
(1210,1368,o),
(1019,1468,o),
(822,1468,cs),
(558,1468,o),
(276,1293,o),
(276,1001,cs),
(276,914,o),
(302,846,o),
(354,795,c),
(182,700,o),
(49,539,o),
(49,335,cs),
(49,84,o),
(278,-20,o),
(503,-20,cs)
);
},
{
closed = 1;
nodes = (
(581,879,o),
(525,924,o),
(525,1002,cs),
(525,1140,o),
(672,1231,o),
(797,1231,cs),
(894,1231,o),
(963,1190,o),
(963,1112,cs),
(963,975,o),
(816,879,o),
(690,879,cs)
);
},
{
closed = 1;
nodes = (
(403,212,o),
(305,261,o),
(305,368,cs),
(305,554,o),
(495,658,o),
(660,658,cs),
(758,658,o),
(885,628,o),
(885,507,cs),
(885,324,o),
(695,212,o),
(530,212,cs)
);
}
);
width = 1229;
},
{
layerId = "730F33E1-68ED-45B5-8902-551965799117";
shapes = (
{
closed = 1;
nodes = (
(780.75,-20,o),
(1069.25,169.25,o),
(1069.25,496.25,cs),
(1069.25,625.5,o),
(1010.5,719.5,o),
(895.25,775.25,c),
(1051,859,o),
(1153.75,1001.75,o),
(1153.75,1177.5,cs),
(1153.75,1374,o),
(987.5,1468,o),
(809.25,1468,cs),
(554.25,1468,o),
(303,1287,o),
(303,1015.25,cs),
(303,917,o),
(339.5,839.25,o),
(419.25,786,c),
(218.75,700.75,o),
(67,531.5,o),
(67,305,cs),
(67,72.75,o),
(273.5,-20,o),
(479,-20,cs)
);
},
{
closed = 1;
nodes = (
(547.25,834,o),
(465,893.25,o),
(465,1011,cs),
(465,1183.5,o),
(625.5,1320.25,o),
(793.25,1320.25,cs),
(906,1320.25,o),
(993.75,1259.75,o),
(993.75,1145.75,cs),
(993.75,974.25,o),
(834.75,834,o),
(666.75,834,cs)
);
},
{
closed = 1;
nodes = (
(358.75,122,o),
(233.75,189,o),
(233.75,332.75,cs),
(233.75,554,o),
(436.5,705.25,o),
(646.5,705.25,cs),
(774.5,705.25,o),
(905.25,640,o),
(905.25,495.75,cs),
(905.25,278.25,o),
(702.5,122,o),
(495.5,122,cs)
);
}
);
width = 1229;
},
{
layerId = "67A62FEC-841D-491B-BA5E-8BAEF7B2DF33";
shapes = (
{
closed = 1;
nodes = (
(770,-20,o),
(1047,173,o),
(1047,493,cs),
(1047,627,o),
(984,723,o),
(861,777,c),
(1023,857,o),
(1135,1002,o),
(1135,1188,cs),
(1135,1376,o),
(977,1468,o),
(805,1468,cs),
(553,1468,o),
(312,1285,o),
(312,1020,cs),
(312,918,o),
(352,837,o),
(441,783,c),
(231,701,o),
(73,529,o),
(73,295,cs),
(73,69,o),
(272,-20,o),
(471,-20,cs)
);
},
{
closed = 1;
nodes = (
(536,819,o),
(445,883,o),
(445,1014,cs),
(445,1198,o),
(610,1350,o),
(792,1350,cs),
(910,1350,o),
(1004,1283,o),
(1004,1157,cs),
(1004,974,o),
(841,819,o),
(659,819,cs)
);
},
{
closed = 1;
nodes = (
(344,92,o),
(210,165,o),
(210,321,cs),
(210,554,o),
(417,721,o),
(642,721,cs),
(780,721,o),
(912,644,o),
(912,492,cs),
(912,263,o),
(705,92,o),
(484,92,cs)
);
}
);
width = 1229;
}
);
leftKerningGroup = B;
unicode = 56;
},
{
glyphname = nine;
layers = (
{
layerId = "31A26675-4074-4365-ADEA-834199CB2297";
shapes = (
{
closed = 1;
nodes = (
(523.264,0,l),
(1124.352,694.272,ls),
(1213.44,796.672,o),
(1268.736,916.48,o),
(1268.736,1052.672,cs),
(1268.736,1300.48,o),
(1073.152,1468.416,o),
(831.488,1468.416,cs),
(498.688,1468.416,o),
(164.864,1203.2,o),
(164.864,858.112,cs),
(164.864,646.144,o),
(334.848,504.832,o),
(547.84,504.832,cs),
(586.752,504.832,o),
(626.688,509.952,o),
(667.648,519.168,c),
(180.224,0,l)
);
},
{
closed = 1;
nodes = (
(550.912,715.776,o),
(446.464,772.096,o),
(446.464,885.76,cs),
(446.464,1043.456,o),
(624.64,1193.984,o),
(777.216,1193.984,cs),
(880.64,1193.984,o),
(985.088,1140.736,o),
(985.088,1024,cs),
(985.088,866.304,o),
(804.864,715.776,o),
(653.312,715.776,cs)
);
}
);
width = 1229;
},
{
layerId = "57FF79F6-5737-48C1-BD5F-8B84E303409D";
shapes = (
{
closed = 1;
nodes = (
(514.048,0,l),
(1113.088,702.464,ls),
(1207.296,812.032,o),
(1254.4,931.84,o),
(1254.4,1060.864,cs),
(1254.4,1314.816,o),
(1061.888,1468.416,o),
(822.272,1468.416,cs),
(505.856,1468.416,o),
(181.248,1198.08,o),
(181.248,871.424,cs),
(181.248,683.008,o),
(312.32,503.808,o),
(508.928,503.808,cs),
(585.728,503.808,o),
(671.744,525.312,o),
(721.92,564.224,c),
(209.92,0,l)
);
},
{
closed = 1;
nodes = (
(530.432,700.416,o),
(432.128,771.072,o),
(432.128,888.832,cs),
(432.128,1064.96,o),
(621.568,1224.704,o),
(790.528,1224.704,cs),
(903.168,1224.704,o),
(1002.496,1155.072,o),
(1002.496,1036.288,cs),
(1002.496,858.112,o),
(813.056,700.416,o),
(642.048,700.416,cs)
);
}
);
width = 1229;
},
{
layerId = "730F33E1-68ED-45B5-8902-551965799117";
shapes = (
{
closed = 1;
nodes = (
(426.496,0,l),
(1057.792,729.344,ls),
(1143.552,828.16,o),
(1192.96,961.024,o),
(1192.96,1088.512,cs),
(1192.96,1314.048,o),
(1025.792,1468.416,o),
(805.376,1468.416,cs),
(499.712,1468.416,o),
(205.056,1189.632,o),
(205.056,880.64,cs),
(205.056,662.272,o),
(360.704,526.848,o),
(572.672,526.848,cs),
(631.04,526.848,o),
(689.408,536.832,o),
(739.584,555.008,c),
(239.872,0,l)
);
},
{
closed = 1;
nodes = (
(471.296,661.248,o),
(367.616,750.336,o),
(367.616,899.584,cs),
(367.616,1108.736,o),
(574.72,1314.56,o),
(783.616,1314.56,cs),
(922.368,1314.56,o),
(1029.376,1209.6,o),
(1029.376,1069.312,cs),
(1029.376,854.272,o),
(829.184,661.248,o),
(616.704,661.248,cs)
);
}
);
width = 1229;
},
{
layerId = "67A62FEC-841D-491B-BA5E-8BAEF7B2DF33";
shapes = (
{
closed = 1;
nodes = (
(397.312,0,l),
(1039.36,738.304,ls),
(1122.304,833.536,o),
(1172.48,970.752,o),
(1172.48,1097.728,cs),
(1172.48,1313.792,o),
(1013.76,1468.416,o),
(799.744,1468.416,cs),
(497.664,1468.416,o),
(212.992,1186.816,o),
(212.992,883.712,cs),
(212.992,655.36,o),
(376.832,534.528,o),
(593.92,534.528,cs),
(646.144,534.528,o),
(695.296,540.672,o),
(745.472,551.936,c),
(249.856,0,l)
);
},
{
closed = 1;
nodes = (
(451.584,648.192,o),
(346.112,743.424,o),
(346.112,903.168,cs),
(346.112,1123.328,o),
(559.104,1344.512,o),
(781.312,1344.512,cs),
(928.768,1344.512,o),
(1038.336,1227.776,o),
(1038.336,1080.32,cs),
(1038.336,852.992,o),
(834.56,648.192,o),
(608.256,648.192,cs)
);
}
);
width = 1229;
}
);
leftKerningGroup = B;
unicode = 57;
},
{
glyphname = colon;
layers = (
{
layerId = "31A26675-4074-4365-ADEA-834199CB2297";
shapes = (
{
closed = 1;
nodes = (
(500.736,684.032,l),
(569.344,976.896,l),
(274.432,976.896,l),
(206.848,684.032,l)
);
},
{
closed = 1;
nodes = (
(345.088,0,l),
(410.624,292.864,l),
(115.712,292.864,l),
(50.176,0,l)
);
}
);
width = 614;
},
{
layerId = "57FF79F6-5737-48C1-BD5F-8B84E303409D";
shapes = (
{
closed = 1;
nodes = (
(494.592,706.56,l),
(557.056,976.896,l),
(284.672,976.896,l),
(222.208,706.56,l)
);
},
{
closed = 1;
nodes = (
(332.8,0,l),
(394.24,270.336,l),
(121.856,270.336,l),
(60.416,0,l)
);
}
);
width = 614;
},
{
layerId = "730F33E1-68ED-45B5-8902-551965799117";
shapes = (
{
closed = 1;
nodes = (
(471.414,772.608,l),
(518.518,976.128,l),
(312.95,976.128,l),
(265.846,772.608,l)
);
},
{
closed = 1;
nodes = (
(294.262,0,l),
(341.11,203.52,l),
(136.31,203.52,l),
(89.462,0,l)
);
}
);
width = 614;
},
{
layerId = "67A62FEC-841D-491B-BA5E-8BAEF7B2DF33";
shapes = (
{
closed = 1;
nodes = (
(463.688,794.624,l),
(505.672,975.872,l),
(322.376,975.872,l),
(280.392,794.624,l)
);
},
{
closed = 1;
nodes = (
(281.416,0,l),
(323.4,181.248,l),
(141.128,181.248,l),
(99.144,0,l)
);
}
);
width = 614;
}
);
leftKerningGroup = B;
unicode = 58;
},
{
glyphname = semicolon;
layers = (
{
layerId = "31A26675-4074-4365-ADEA-834199CB2297";
shapes = (
{
closed = 1;
nodes = (
(476.16,684.032,l),
(543.744,976.896,l),
(248.832,976.896,l),
(179.2,684.032,l)
);
},
{
closed = 1;
nodes = (
(101.376,-230.4,l),
(449.536,270.336,l),
(129.024,270.336,l),
(-88.064,-230.4,l)
);
}
);
width = 614;
},
{
layerId = "57FF79F6-5737-48C1-BD5F-8B84E303409D";
shapes = (
{
closed = 1;
nodes = (
(474.112,706.56,l),
(536.576,976.896,l),
(264.192,976.896,l),
(200.704,706.56,l)
);
},
{
closed = 1;
nodes = (
(90.112,-230.4,l),
(432.128,270.336,l),
(140.288,270.336,l),
(-77.824,-230.4,l)
);
}
);
width = 614;
},
{
layerId = "730F33E1-68ED-45B5-8902-551965799117";
shapes = (
{
closed = 1;
nodes = (
(466.264,772.608,l),
(513.368,976.128,l),
(308.568,976.128,l),
(260.44,772.608,l)
);
},
{
closed = 1;
nodes = (
(53.848,-231.168,l),
(377.432,268.032,l),
(170.072,268.032,l),
(-48.04,-231.168,l)
);
}
);
width = 614;
},
{
layerId = "67A62FEC-841D-491B-BA5E-8BAEF7B2DF33";
shapes = (
{
closed = 1;
nodes = (
(463.648,794.624,l),
(505.632,975.872,l),
(323.36,975.872,l),
(280.352,794.624,l)
);
},
{
closed = 1;
nodes = (
(41.76,-231.424,l),
(359.2,267.264,l),
(180,267.264,l),
(-38.112,-231.424,l)
);
}
);
width = 614;
}
);
leftKerningGroup = B;
unicode = 59;
},
{
glyphname = less;
layers = (
{
layerId = "31A26675-4074-4365-ADEA-834199CB2297";
shapes = (
{
closed = 1;
nodes = (
(1061.888,149.504,l),
(1178.624,351.232,l),
(476.16,690.176,l),
(1178.624,1029.12,l),
(1061.888,1229.824,l),
(25.6,690.176,l)
);
}
);
width = 1271;
},
{
layerId = "57FF79F6-5737-48C1-BD5F-8B84E303409D";
shapes = (
{
closed = 1;
nodes = (
(1054.72,155.648,l),
(1160.192,337.92,l),
(450.56,690.176,l),
(1160.192,1042.432,l),
(1054.72,1224.704,l),
(46.08,690.176,l)
);
}
);
width = 1267;
},
{
layerId = "730F33E1-68ED-45B5-8902-551965799117";
shapes = (
{
closed = 1;
nodes = (
(1034.752,172.544,l),
(1107.2,296.448,l),
(372.992,690.176,l),
(1107.2,1082.368,l),
(1034.752,1207.04,l),
(107.52,690.176,l)
);
}
);
width = 1255;
},
{
layerId = "67A62FEC-841D-491B-BA5E-8BAEF7B2DF33";
shapes = (
{
closed = 1;
nodes = (
(1028.096,178.176,l),
(1089.536,282.624,l),
(347.136,690.176,l),
(1089.536,1095.68,l),
(1028.096,1201.152,l),
(128,690.176,l)
);
}
);
width = 1251;
}
);
leftKerningGroup = B;
unicode = 60;
},
{
glyphname = equal;
layers = (
{
layerId = "31A26675-4074-4365-ADEA-834199CB2297";
shapes = (
{
closed = 1;
nodes = (
(1085.44,762.88,l),
(1085.44,996.352,l),
(212.992,996.352,l),
(212.992,762.88,l)
);
},
{
closed = 1;
nodes = (
(1085.44,378.88,l),
(1085.44,613.376,l),
(212.992,613.376,l),
(212.992,378.88,l)
);
}
);
width = 1297;
},
{
layerId = "57FF79F6-5737-48C1-BD5F-8B84E303409D";
shapes = (
{
closed = 1;
nodes = (
(1074.176,770.048,l),
(1074.176,980.992,l),
(224.256,980.992,l),
(224.256,770.048,l)
);
},
{
closed = 1;
nodes = (
(1074.176,394.24,l),
(1074.176,606.208,l),
(224.256,606.208,l),
(224.256,394.24,l)
);
}
);
width = 1298;
},
{
layerId = "730F33E1-68ED-45B5-8902-551965799117";
shapes = (
{
closed = 1;
nodes = (
(1042.688,791.552,l),
(1042.688,936.448,l),
(258.816,936.448,l),
(258.816,791.552,l)
);
},
{
closed = 1;
nodes = (
(1042.688,438.784,l),
(1042.688,583.168,l),
(258.816,583.168,l),
(258.816,438.784,l)
);
}
);
width = 1302;
},
{
layerId = "67A62FEC-841D-491B-BA5E-8BAEF7B2DF33";
shapes = (
{
closed = 1;
nodes = (
(1032.192,798.72,l),
(1032.192,921.6,l),
(270.336,921.6,l),
(270.336,798.72,l)
);
},
{
closed = 1;
nodes = (
(1032.192,453.632,l),
(1032.192,575.488,l),
(270.336,575.488,l),
(270.336,453.632,l)
);
}
);
width = 1303;
}
);
leftKerningGroup = B;
unicode = 61;
},
{
glyphname = greater;
layers = (
{
layerId = "31A26675-4074-4365-ADEA-834199CB2297";
shapes = (
{
closed = 1;
nodes = (
(208.896,149.504,l),
(1245.184,690.176,l),
(208.896,1229.824,l),
(92.16,1029.12,l),
(794.624,690.176,l),
(92.16,351.232,l)
);
}
);
width = 1272;
},
{
layerId = "57FF79F6-5737-48C1-BD5F-8B84E303409D";
shapes = (
{
closed = 1;
nodes = (
(211.968,155.648,l),
(1220.608,690.176,l),
(211.968,1224.704,l),
(106.496,1042.432,l),
(816.128,690.176,l),
(106.496,337.92,l)
);
}
);
width = 1267;
},
{
layerId = "730F33E1-68ED-45B5-8902-551965799117";
shapes = (
{
closed = 1;
nodes = (
(219.648,172.544,l),
(1147.648,690.176,l),
(219.648,1207.04,l),
(147.968,1082.368,l),
(881.408,690.176,l),
(147.968,296.448,l)
);
}
);
width = 1254;
},
{
layerId = "67A62FEC-841D-491B-BA5E-8BAEF7B2DF33";
shapes = (
{
closed = 1;
nodes = (
(222.208,178.176,l),
(1123.328,690.176,l),
(222.208,1201.152,l),
(161.792,1095.68,l),
(903.168,690.176,l),
(161.792,282.624,l)
);
}
);
width = 1249;
}
);
leftKerningGroup = B;
unicode = 62;
},
{
glyphname = question;
layers = (
{
layerId = "31A26675-4074-4365-ADEA-834199CB2297";
shapes = (
{
closed = 1;
nodes = (
(596.992,449.536,l),
(611.328,520.192,ls),
(627.712,603.136,o),
(677.888,648.192,o),
(738.304,676.864,cs),
(937.984,772.096,o),
(1097.728,908.288,o),
(1097.728,1124.352,cs),
(1097.728,1344.512,o),
(952.32,1468.416,o),
(694.272,1468.416,cs),
(398.336,1468.416,o),
(206.848,1262.12,o),
(144.384,980.52,c),
(379.904,980.992,l),
(417.792,1143.808,o),
(532.48,1238.016,o),
(706.56,1238.016,cs),
(798.72,1238.016,o),
(859.136,1185.792,o),
(859.136,1103.872,cs),
(859.136,1013.76,o),
(749.568,917.504,o),
(634.88,866.304,cs),
(450.56,785.408,o),
(423.936,722.944,o),
(378.88,515.072,cs),
(364.544,449.536,l)
);
},
{
closed = 1;
nodes = (
(530.432,0,l),
(594.944,292.864,l),
(300.032,292.864,l),
(235.52,0,l)
);
}
);
width = 1011;
},
{
layerId = "57FF79F6-5737-48C1-BD5F-8B84E303409D";
shapes = (
{
closed = 1;
nodes = (
(588.8,434.176,l),
(620.544,570.368,ls),
(631.808,615.424,o),
(672.768,645.12,o),
(762.88,687.104,cs),
(958.464,779.264,o),
(1090.56,905.216,o),
(1090.56,1141.76,cs),
(1090.56,1370.112,o),
(902.144,1468.416,o),
(700.416,1468.416,cs),
(416.768,1468.416,o),
(230.4,1274.336,o),
(165.888,1005.024,c),
(379.904,1004.544,l),
(413.696,1161.216,o),
(512,1260.544,o),
(688.128,1260.544,cs),
(801.792,1260.544,o),
(876.544,1224.704,o),
(876.544,1135.616,cs),
(876.544,1000.448,o),
(779.264,936.96,o),
(671.744,881.664,cs),
(530.432,808.96,o),
(456.704,764.928,o),
(415.744,593.92,cs),
(377.856,434.176,l)
);
},
{
closed = 1;
nodes = (
(524.288,0,l),
(584.704,270.336,l),
(312.32,270.336,l),
(251.904,0,l)
);
}
);
width = 1021;
},
{
layerId = "730F33E1-68ED-45B5-8902-551965799117";
shapes = (
{
closed = 1;
nodes = (
(563.456,391.168,l),
(592.896,519.68,ls),
(628.736,678.4,o),
(663.552,708.864,o),
(797.44,770.816,cs),
(973.056,852.992,o),
(1082.112,970.496,o),
(1082.112,1174.016,cs),
(1082.112,1380.864,o),
(902.912,1468.416,o),
(720.384,1468.416,cs),
(488.192,1468.416,o),
(282.624,1304.144,o),
(229.632,1074.768,c),
(379.904,1074.432,l),
(416.768,1228.032,o),
(561.152,1327.36,o),
(719.616,1327.36,cs),
(830.976,1327.36,o),
(935.68,1288.448,o),
(935.68,1168.64,cs),
(935.68,1026.56,o),
(835.328,937.728,o),
(716.288,878.592,cs),
(547.328,795.136,o),
(496.64,741.12,o),
(452.608,541.696,cs),
(419.328,391.168,l)
);
},
{
closed = 1;
nodes = (
(507.392,0,l),
(553.984,203.52,l),
(348.416,203.52,l),
(301.824,0,l)
);
}
);
width = 1053;
},
{
layerId = "67A62FEC-841D-491B-BA5E-8BAEF7B2DF33";
shapes = (
{
closed = 1;
nodes = (
(555.008,376.832,l),
(583.68,502.784,ls),
(627.712,699.392,o),
(660.48,730.112,o),
(808.96,798.72,cs),
(977.92,877.568,o),
(1079.296,992.256,o),
(1079.296,1184.768,cs),
(1079.296,1384.448,o),
(903.168,1468.416,o),
(727.04,1468.416,cs),
(512,1468.416,o),
(300.032,1314.08,o),
(250.88,1098.016,c),
(379.904,1097.728,l),
(417.792,1250.304,o),
(577.536,1349.632,o),
(730.112,1349.632,cs),
(840.704,1349.632,o),
(955.392,1309.696,o),
(955.392,1179.648,cs),
(955.392,1035.264,o),
(854.016,937.984,o),
(731.136,877.568,cs),
(552.96,790.528,o),
(509.952,733.184,o),
(464.896,524.288,cs),
(433.152,376.832,l)
);
},
{
closed = 1;
nodes = (
(501.76,0,l),
(543.744,181.248,l),
(360.448,181.248,l),
(318.464,0,l)
);
}
);
width = 1064;
}
);
leftKerningGroup = B;
unicode = 63;
},
{
glyphname = at;
layers = (
{
layerId = "31A26675-4074-4365-ADEA-834199CB2297";
shapes = (
{
closed = 1;
nodes = (
(929.792,-356.352,o),
(1040.384,-343.04,o),
(1149.952,-306.176,c),
(1108.992,-96.256,l),
(1022.976,-123.904,o),
(939.008,-140.288,o),
(848.896,-140.288,cs),
(552.96,-140.288,o),
(273.408,17.408,o),
(273.408,344.064,cs),
(273.408,834.56,o),
(733.184,1259.52,o),
(1215.488,1259.52,cs),
(1526.784,1259.52,o),
(1785.856,1082.368,o),
(1785.856,749.568,cs),
(1785.856,526.336,o),
(1642.496,129.024,o),
(1368.064,129.024,cs),
(1340.416,129.024,o),
(1314.816,153.6,o),
(1314.816,200.704,cs),
(1314.816,234.496,o),
(1345.536,338.944,o),
(1416.192,491.52,cs),
(1665.024,1031.168,l),
(1447.936,1043.456,l),
(1410.048,960.512,l),
(1360.896,1054.72,o),
(1270.784,1093.632,o),
(1168.384,1093.632,cs),
(830.464,1093.632,o),
(518.144,667.648,o),
(518.144,344.064,cs),
(518.144,164.864,o),
(610.304,36.864,o),
(798.72,36.864,cs),
(914.432,36.864,o),
(1019.904,77.824,o),
(1111.04,148.48,c),
(1111.04,-13.312,o),
(1189.888,-84.992,o),
(1353.728,-84.992,cs),
(1759.232,-84.992,o),
(1991.68,396.288,o),
(1991.68,749.568,cs),
(1991.68,1196.032,o),
(1677.312,1466.368,o),
(1243.136,1466.368,cs),
(632.832,1466.368,o),
(66.56,965.632,o),
(66.56,333.824,cs),
(66.56,-95.232,o),
(390.144,-356.352,o),
(815.104,-356.352,cs)
);
},
{
closed = 1;
nodes = (
(762.88,250.88,o),
(718.848,277.504,o),
(718.848,355.328,cs),
(718.848,578.56,o),
(940.032,879.616,o),
(1177.6,879.616,cs),
(1247.232,879.616,o),
(1295.36,855.04,o),
(1295.36,779.264,cs),
(1295.36,564.224,o),
(1058.816,250.88,o),
(836.608,250.88,cs)
);
}
);
width = 2041;
},
{
layerId = "57FF79F6-5737-48C1-BD5F-8B84E303409D";
shapes = (
{
closed = 1;
nodes = (
(948.224,-356.352,o),
(1055.744,-339.968,o),
(1155.072,-306.176,c),
(1116.16,-111.616,l),
(1030.144,-141.312,o),
(943.104,-155.648,o),
(854.016,-155.648,cs),
(537.6,-155.648,o),
(273.408,11.264,o),
(273.408,345.088,cs),
(273.408,843.776,o),
(732.16,1274.88,o),
(1226.752,1274.88,cs),
(1547.264,1274.88,o),
(1802.24,1096.704,o),
(1802.24,749.568,cs),
(1802.24,508.928,o),
(1649.664,109.568,o),
(1388.544,109.568,cs),
(1326.08,109.568,o),
(1307.648,157.696,o),
(1307.648,190.464,cs),
(1307.648,228.352,o),
(1315.84,258.048,o),
(1342.464,318.464,cs),
(1656.832,1025.024,l),
(1455.104,1036.288,l),
(1411.072,936.96,l),
(1381.376,1022.976,o),
(1302.528,1086.464,o),
(1170.432,1086.464,cs),
(828.416,1086.464,o),
(528.384,653.312,o),
(528.384,343.04,cs),
(528.384,167.936,o),
(619.52,44.032,o),
(802.816,44.032,cs),
(918.528,44.032,o),
(1026.048,84.992,o),
(1124.352,167.936,c),
(1111.04,0,o),
(1210.368,-77.824,o),
(1360.896,-77.824,cs),
(1764.352,-77.824,o),
(1993.728,408.576,o),
(1993.728,758.784,cs),
(1993.728,1153.024,o),
(1734.656,1466.368,o),
(1243.136,1466.368,cs),
(629.76,1466.368,o),
(80.896,945.152,o),
(80.896,327.68,cs),
(80.896,-107.52,o),
(406.528,-356.352,o),
(832.512,-356.352,cs)
);
},
{
closed = 1;
nodes = (
(760.832,243.712,o),
(713.728,272.384,o),
(713.728,355.328,cs),
(713.728,581.632,o),
(948.224,886.784,o),
(1186.816,886.784,cs),
(1265.664,886.784,o),
(1304.576,850.944,o),
(1304.576,779.264,cs),
(1304.576,561.152,o),
(1074.176,243.712,o),
(838.656,243.712,cs)
);
}
);
width = 2057;
},
{
layerId = "730F33E1-68ED-45B5-8902-551965799117";
shapes = (
{
closed = 1;
nodes = (
(964.352,-357.12,o),
(1069.568,-339.968,o),
(1171.2,-306.944,c),
(1136.128,-160,l),
(1049.344,-188.16,o),
(959.232,-201.728,o),
(868.608,-201.728,cs),
(539.136,-201.728,o),
(271.104,-24.832,o),
(271.104,325.888,cs),
(271.104,848.384,o),
(737.536,1320.96,o),
(1262.08,1320.96,cs),
(1599.488,1320.96,o),
(1853.696,1128.192,o),
(1853.696,773.376,cs),
(1853.696,513.536,o),
(1703.424,79.616,o),
(1399.296,79.616,cs),
(1331.456,79.616,o),
(1295.36,130.048,o),
(1295.36,203.52,cs),
(1295.36,261.376,o),
(1306.624,292.608,o),
(1346.304,378.368,cs),
(1633.792,1006.592,l),
(1478.144,1014.016,l),
(1413.376,862.464,l),
(1405.952,992.256,o),
(1313.28,1064.192,o),
(1176.576,1064.192,cs),
(853.76,1064.192,o),
(559.104,637.952,o),
(559.104,339.968,cs),
(559.104,175.616,o),
(643.328,65.536,o),
(815.104,65.536,cs),
(948.48,65.536,o),
(1075.2,131.072,o),
(1169.664,227.84,c),
(1132.76,65.25,o),
(1228.8,-56.32,o),
(1384.704,-56.32,cs),
(1784.32,-56.32,o),
(2000.64,441.6,o),
(2000.64,783.36,cs),
(2000.64,1199.872,o),
(1708.544,1466.368,o),
(1278.464,1466.368,cs),
(661.248,1466.368,o),
(123.136,930.56,o),
(123.136,310.016,cs),
(123.136,-120.576,o),
(444.16,-357.12,o),
(855.552,-357.12,cs)
);
},
{
closed = 1;
nodes = (
(753.152,219.904,o),
(698.368,257.024,o),
(698.368,354.56,cs),
(698.368,586.24,o),
(940.544,930.56,o),
(1186.048,930.56,cs),
(1276.416,930.56,o),
(1335.296,869.376,o),
(1335.296,777.728,cs),
(1335.296,543.488,o),
(1090.304,219.904,o),
(846.336,219.904,cs)
);
}
);
width = 2107;
},
{
layerId = "67A62FEC-841D-491B-BA5E-8BAEF7B2DF33";
shapes = (
{
closed = 1;
nodes = (
(969.728,-357.376,o),
(1074.176,-339.968,o),
(1176.576,-307.2,c),
(1142.784,-176.128,l),
(1055.744,-203.776,o),
(964.608,-217.088,o),
(873.472,-217.088,cs),
(539.648,-217.088,o),
(270.336,-36.864,o),
(270.336,319.488,cs),
(270.336,849.92,o),
(739.328,1336.32,o),
(1273.856,1336.32,cs),
(1616.896,1336.32,o),
(1870.848,1138.688,o),
(1870.848,781.312,cs),
(1870.848,515.072,o),
(1721.344,69.632,o),
(1402.88,69.632,cs),
(1333.248,69.632,o),
(1291.264,120.832,o),
(1291.264,207.872,cs),
(1291.264,272.384,o),
(1303.552,304.128,o),
(1347.584,398.336,cs),
(1626.112,1000.448,l),
(1485.824,1006.592,l),
(1414.144,837.632,l),
(1414.144,982.016,o),
(1316.864,1056.768,o),
(1178.624,1056.768,cs),
(862.208,1056.768,o),
(569.344,632.832,o),
(569.344,338.944,cs),
(569.344,178.176,o),
(651.264,72.704,o),
(819.2,72.704,cs),
(958.464,72.704,o),
(1091.584,146.432,o),
(1184.768,247.808,c),
(1140,87,o),
(1234.944,-49.152,o),
(1392.64,-49.152,cs),
(1790.976,-49.152,o),
(2002.944,452.608,o),
(2002.944,791.552,cs),
(2002.944,1215.488,o),
(1699.84,1466.368,o),
(1290.24,1466.368,cs),
(671.744,1466.368,o),
(137.216,925.696,o),
(137.216,304.128,cs),
(137.216,-124.928,o),
(456.704,-357.376,o),
(863.232,-357.376,cs)
);
},
{
closed = 1;
nodes = (
(750.592,211.968,o),
(693.248,251.904,o),
(693.248,354.304,cs),
(693.248,587.776,o),
(937.984,945.152,o),
(1185.792,945.152,cs),
(1280,945.152,o),
(1345.536,875.52,o),
(1345.536,777.216,cs),
(1345.536,537.6,o),
(1095.68,211.968,o),
(848.896,211.968,cs)
);
}
);
width = 2123;
}
);
leftKerningGroup = B;
unicode = 64;
},
{
glyphname = A;
layers = (
{
anchors = (
{
name = top;
position = "{922, 1620}";
},
{
name = ogonek;
position = "{1271, 0}";
},
{
name = bottom;
position = "{574, -120}";
}
);
guides = (
{
angle = 90;
position = "{922, 0}";
}
);
layerId = "31A26675-4074-4365-ADEA-834199CB2297";
shapes = (
{
closed = 1;
nodes = (
(1270.784,0,l),
(1016.832,1447.936,l),
(799.744,1447.936,l),
(-122.88,0,l),
(197.632,0,l),
(818.176,1019.904,l),
(961.536,0,l)
);
},
{
closed = 1;
nodes = (
(912.097,559.104,l),
(508.191,559.104,l),
(350.495,314.368,l),
(953.057,314.368,l)
);
}
);
width = 1388;
},
{
anchors = (
{
name = top;
position = "{866, 1620}";
},
{
name = ogonek;
position = "{1243, 0}";
},
{
name = bottom;
position = "{568, -120}";
}
);
guides = (
{
angle = 90;
position = "{866, 0}";
}
);
layerId = "57FF79F6-5737-48C1-BD5F-8B84E303409D";
shapes = (
{
closed = 1;
nodes = (
(1243.136,0,l),
(1000.448,1447.936,l),
(804.864,1447.936,l),
(-106.496,0,l),
(180.224,0,l),
(822.272,1064.96,l),
(966.656,0,l)
);
},
{
closed = 1;
nodes = (
(922.337,536.576,l),
(474.399,536.576,l),
(333.087,314.368,l),
(958.177,314.368,l)
);
}
);
width = 1375;
},
{
anchors = (
{
name = top;
position = "{847, 1620}";
},
{
name = ogonek;
position = "{1162, 0}";
},
{
name = bottom;
position = "{552, -120}";
}
);
guides = (
{
angle = 90;
position = "{922, 0}";
}
);
layerId = "730F33E1-68ED-45B5-8902-551965799117";
shapes = (
{
closed = 1;
nodes = (
(1161.728,0,l),
(952.064,1447.936,l),
(822.528,1447.936,l),
(-58.112,0,l),
(129.536,0,l),
(836.096,1198.592,l),
(982.784,0,l)
);
},
{
closed = 1;
nodes = (
(953.825,468.224,l),
(373.791,468.224,l),
(281.631,318.118,l),
(975.841,318.118,l)
);
}
);
width = 1342;
},
{
anchors = (
{
name = top;
position = "{841, 1620}";
},
{
name = ogonek;
position = "{1135, 0}";
},
{
name = bottom;
position = "{546, -120}";
}
);
guides = (
{
angle = 90;
position = "{841, 0}";
}
);
layerId = "67A62FEC-841D-491B-BA5E-8BAEF7B2DF33";
shapes = (
{
closed = 1;
nodes = (
(1134.592,0,l),
(935.936,1447.936,l),
(828.416,1447.936,l),
(-41.984,0,l),
(112.64,0,l),
(840.704,1243.136,l),
(988.16,0,l)
);
},
{
closed = 1;
nodes = (
(964.321,445.44,l),
(340.255,445.44,l),
(264.479,319.368,l),
(981.729,319.368,l)
);
}
);
width = 1331;
}
);
leftKerningGroup = A2;
rightKerningGroup = A;
unicode = 65;
},
{
glyphname = B;
leftMetricsKey = H;
rightMetricsKey = "=118";
layers = (
{
layerId = "31A26675-4074-4365-ADEA-834199CB2297";
rightMetricsKey = "=70";
shapes = (
{
closed = 1;
nodes = (
(669,0,ls),
(932,0,o),
(1227,203,o),
(1227,485,cs),
(1227,589,o),
(1183,723,o),
(1078,764,c),
(1212,833,o),
(1306,980,o),
(1306,1132,cs),
(1306,1355,o),
(1117,1448,o),
(919,1448,cs),
(392,1448,l),
(59,0,l)
);
},
{
closed = 1;
nodes = (
(553,881,l),
(623,1186,l),
(876,1186,ls),
(942,1186,o),
(1041,1167,o),
(1041,1082,cs),
(1041,965,o),
(932,881,o),
(821,881,cs)
);
},
{
closed = 1;
nodes = (
(414,279,l),
(495,632,l),
(792,632,ls),
(865,632,o),
(956,597,o),
(956,510,cs),
(956,383,o),
(833,279,o),
(712,279,cs)
);
}
);
width = 1314;
},
{
layerId = "57FF79F6-5737-48C1-BD5F-8B84E303409D";
rightMetricsKey = "=80";
shapes = (
{
closed = 1;
nodes = (
(640,0,ls),
(913,0,o),
(1205,186,o),
(1205,484,cs),
(1205,594,o),
(1157,719,o),
(1049,763,c),
(1190,833,o),
(1286,982,o),
(1286,1140,cs),
(1286,1363,o),
(1094,1448,o),
(898,1448,cs),
(402,1448,l),
(70,0,l)
);
},
{
closed = 1;
nodes = (
(528,864,l),
(608,1213,l),
(860,1213,ls),
(938,1213,o),
(1044,1196,o),
(1044,1098,cs),
(1044,959,o),
(920,864,o),
(788,864,cs)
);
},
{
closed = 1;
nodes = (
(386,248,l),
(476,640,l),
(780,640,ls),
(900,640,o),
(963,580,o),
(963,505,cs),
(963,356,o),
(828,248,o),
(688,248,cs)
);
}
);
width = 1303;
},
{
layerId = "730F33E1-68ED-45B5-8902-551965799117";
shapes = (
{
closed = 1;
nodes = (
(589,0,ls),
(881.5,0,o),
(1143.5,162,o),
(1143.5,479.5,cs),
(1143.5,608.25,o),
(1079,704.75,o),
(962.75,758.5,c),
(1121,839.75,o),
(1232,979,o),
(1232,1162.5,cs),
(1232,1393,o),
(995.75,1448,o),
(808.75,1448,cs),
(434.25,1448,l),
(101.5,0,l)
);
},
{
closed = 1;
nodes = (
(455.25,814.5,l),
(566,1295.5,l),
(817.25,1295.5,ls),
(921.5,1295.5,o),
(1056.75,1279.25,o),
(1056.75,1143.75,cs),
(1056.75,942.5,o),
(887,814.5,o),
(695.75,814.5,cs)
);
},
{
closed = 1;
nodes = (
(305,158,l),
(421.25,663.25,l),
(747.75,663.25,ls),
(874.5,663.25,o),
(982.5,625,o),
(982.5,490,cs),
(982.5,277.25,o),
(825,158,o),
(619,158,cs)
);
}
);
width = 1283;
},
{
layerId = "67A62FEC-841D-491B-BA5E-8BAEF7B2DF33";
rightMetricsKey = "=130";
shapes = (
{
closed = 1;
nodes = (
(572,0,ls),
(871,0,o),
(1123,154,o),
(1123,478,cs),
(1123,613,o),
(1053,700,o),
(934,757,c),
(1098,842,o),
(1214,978,o),
(1214,1170,cs),
(1214,1403,o),
(963,1448,o),
(779,1448,cs),
(445,1448,l),
(112,0,l)
);
},
{
closed = 1;
nodes = (
(431,798,l),
(552,1323,l),
(803,1323,ls),
(916,1323,o),
(1061,1307,o),
(1061,1159,cs),
(1061,937,o),
(876,798,o),
(665,798,cs)
);
},
{
closed = 1;
nodes = (
(278,128,l),
(403,671,l),
(737,671,ls),
(866,671,o),
(989,640,o),
(989,485,cs),
(989,251,o),
(824,128,o),
(596,128,cs)
);
}
);
width = 1276;
}
);
leftKerningGroup = B;
unicode = 66;
},
{
glyphname = C;
layers = (
{
anchors = (
{
name = top;
position = "{990, 1620}";
},
{
name = cedilla;
position = "{659, 0}";
}
);
guides = (
{
angle = 90;
position = "{990, 0}";
}
);
layerId = "31A26675-4074-4365-ADEA-834199CB2297";
shapes = (
{
closed = 1;
nodes = (
(987.136,-20.48,o),
(1231.872,124.928,o),
(1406.976,394.24,c),
(1163.264,526.336,l),
(1060.864,354.304,o),
(914.432,257.024,o),
(710.656,257.024,cs),
(510.976,257.024,o),
(384,345.088,o),
(384,555.008,cs),
(384,869.376,o),
(602.112,1217.536,o),
(945.152,1217.536,cs),
(1116.16,1217.536,o),
(1258.496,1137.664,o),
(1258.496,949.248,c),
(1549.312,1034.24,l),
(1498.112,1323.008,o),
(1273.856,1470.464,o),
(990.208,1470.464,cs),
(464.896,1470.464,o),
(97.28,1025.024,o),
(97.28,523.264,cs),
(97.28,176.128,o),
(325.632,-20.48,o),
(664.576,-20.48,cs)
);
}
);
width = 1466;
},
{
anchors = (
{
name = top;
position = "{1015, 1620}";
},
{
name = cedilla;
position = "{672, 0}";
}
);
guides = (
{
angle = 90;
position = "{1015, 0}";
}
);
layerId = "57FF79F6-5737-48C1-BD5F-8B84E303409D";
shapes = (
{
closed = 1;
nodes = (
(978.944,-20.48,o),
(1225.728,136.192,o),
(1390.592,386.048,c),
(1172.48,505.856,l),
(1058.816,321.536,o),
(909.312,226.304,o),
(704.512,226.304,cs),
(493.568,226.304,o),
(367.616,327.68,o),
(367.616,544.768,cs),
(367.616,878.592,o),
(590.848,1243.136,o),
(958.464,1243.136,cs),
(1139.712,1243.136,o),
(1266.688,1162.24,o),
(1278.976,968.704,c),
(1537.024,1044.48,l),
(1489.92,1331.2,o),
(1268.736,1470.464,o),
(990.208,1470.464,cs),
(472.064,1470.464,o),
(111.616,1026.048,o),
(111.616,524.288,cs),
(111.616,164.864,o),
(334.848,-20.48,o),
(674.816,-20.48,cs)
);
}
);
width = 1466;
},
{
anchors = (
{
name = top;
position = "{999, 1620}";
},
{
name = cedilla;
position = "{653, 0}";
}
);
guides = (
{
angle = 90;
position = "{990, 0}";
}
);
layerId = "730F33E1-68ED-45B5-8902-551965799117";
shapes = (
{
closed = 1;
nodes = (
(937.472,-20.48,o),
(1168.896,131.584,o),
(1324.544,362.24,c),
(1183.232,440.576,l),
(1066.496,247.808,o),
(897.024,143.36,o),
(673.792,143.36,cs),
(429.824,143.36,o),
(303.104,268.544,o),
(303.104,513.28,cs),
(303.104,883.2,o),
(533.248,1315.328,o),
(946.944,1315.328,cs),
(1138.944,1315.328,o),
(1300.48,1232.896,o),
(1318.144,1023.232,c),
(1480.192,1078.272,l),
(1433.856,1344.256,o),
(1228.032,1470.464,o),
(969.472,1470.464,cs),
(452.096,1470.464,o),
(132.352,976.896,o),
(132.352,501.248,cs),
(132.352,168.704,o),
(323.328,-20.48,o),
(653.312,-20.48,cs)
);
}
);
width = 1461;
},
{
anchors = (
{
name = top;
position = "{993, 1620}";
},
{
name = cedilla;
position = "{646, 0}";
}
);
guides = (
{
angle = 90;
position = "{993, 0}";
}
);
layerId = "67A62FEC-841D-491B-BA5E-8BAEF7B2DF33";
shapes = (
{
closed = 1;
nodes = (
(923.648,-20.48,o),
(1149.952,130.048,o),
(1302.528,354.304,c),
(1186.816,418.816,l),
(1069.056,223.232,o),
(892.928,115.712,o),
(663.552,115.712,cs),
(408.576,115.712,o),
(281.6,248.832,o),
(281.6,502.784,cs),
(281.6,884.736,o),
(514.048,1339.392,o),
(943.104,1339.392,cs),
(1138.688,1339.392,o),
(1311.744,1256.448,o),
(1331.2,1041.408,c),
(1461.248,1089.536,l),
(1415.168,1348.608,o),
(1214.464,1470.464,o),
(962.56,1470.464,cs),
(445.44,1470.464,o),
(139.264,960.512,o),
(139.264,493.568,cs),
(139.264,169.984,o),
(319.488,-20.48,o),
(646.144,-20.48,cs)
);
}
);
width = 1459;
}
);
leftKerningGroup = B;
unicode = 67;
},
{
glyphname = D;
layers = (
{
layerId = "31A26675-4074-4365-ADEA-834199CB2297";
shapes = (
{
closed = 1;
nodes = (
(497.664,0,ls),
(1063.936,0,o),
(1442.816,368.64,o),
(1442.816,924.672,cs),
(1442.816,1309.696,o),
(1169.408,1446.912,o),
(821.248,1446.912,cs),
(392.192,1446.912,l),
(59.392,0,l)
);
},
{
closed = 1;
nodes = (
(410.624,266.24,l),
(621.568,1178.624,l),
(769.024,1178.624,ls),
(954.368,1178.624,o),
(1159.168,1160.192,o),
(1159.168,923.648,cs),
(1159.168,531.456,o),
(930.816,266.24,o),
(521.216,266.24,cs)
);
}
);
width = 1442;
},
{
layerId = "57FF79F6-5737-48C1-BD5F-8B84E303409D";
shapes = (
{
closed = 1;
nodes = (
(492.544,0,ls),
(1044.48,0,o),
(1430.528,359.424,o),
(1430.528,927.744,cs),
(1430.528,1248.256,o),
(1235.968,1446.912,o),
(816.128,1446.912,cs),
(402.432,1446.912,l),
(69.632,0,l)
);
},
{
closed = 1;
nodes = (
(384,238.592,l),
(608.256,1208.32,l),
(770.048,1208.32,ls),
(976.896,1208.32,o),
(1176.576,1173.504,o),
(1176.576,924.672,cs),
(1176.576,521.216,o),
(929.792,238.592,o),
(509.952,238.592,cs)
);
}
);
width = 1443;
},
{
layerId = "730F33E1-68ED-45B5-8902-551965799117";
shapes = (
{
closed = 1;
nodes = (
(477.184,0,ls),
(1033.728,0,o),
(1396.736,393.216,o),
(1396.736,935.424,cs),
(1396.736,1313.536,o),
(1133.824,1446.912,o),
(767.744,1446.912,cs),
(434.688,1446.912,l),
(101.12,0,l)
);
},
{
closed = 1;
nodes = (
(307.2,154.88,l),
(570.624,1294.336,l),
(773.888,1294.336,ls),
(1025.28,1294.336,o),
(1229.568,1209.6,o),
(1229.568,926.208,cs),
(1229.568,493.568,o),
(925.952,154.88,o),
(477.696,154.88,cs)
);
}
);
width = 1448;
},
{
layerId = "67A62FEC-841D-491B-BA5E-8BAEF7B2DF33";
shapes = (
{
closed = 1;
nodes = (
(472.064,0,ls),
(1030.144,0,o),
(1385.472,404.48,o),
(1385.472,937.984,cs),
(1385.472,1335.296,o),
(1099.776,1446.912,o),
(751.616,1446.912,cs),
(445.44,1446.912,l),
(111.616,0,l)
);
},
{
closed = 1;
nodes = (
(281.6,126.976,l),
(558.08,1323.008,l),
(775.168,1323.008,ls),
(1041.408,1323.008,o),
(1247.232,1221.632,o),
(1247.232,926.72,cs),
(1247.232,484.352,o),
(924.672,126.976,o),
(466.944,126.976,cs)
);
}
);
width = 1449;
}
);
leftKerningGroup = B;
unicode = 68;
},
{
glyphname = E;
layers = (
{
anchors = (
{
name = top;
position = "{915, 1620}";
},
{
name = ogonek;
position = "{1029, 0}";
},
{
name = bottom;
position = "{591, -120}";
}
);
guides = (
{
angle = 90;
position = "{915, 0}";
}
);
layerId = "31A26675-4074-4365-ADEA-834199CB2297";
shapes = (
{
closed = 1;
nodes = (
(1029,0,l),
(1094,276,l),
(414,276,l),
(484,588,l),
(1133,588,l),
(1194,858,l),
(545,858,l),
(622,1179,l),
(1302,1179,l),
(1362,1448,l),
(392,1448,l),
(59,0,l)
);
}
);
width = 1275;
},
{
anchors = (
{
name = top;
position = "{841, 1620}";
},
{
name = ogonek;
position = "{1032, 0}";
},
{
name = bottom;
position = "{597, -120}";
}
);
guides = (
{
angle = 90;
position = "{841, 0}";
}
);
layerId = "57FF79F6-5737-48C1-BD5F-8B84E303409D";
shapes = (
{
closed = 1;
nodes = (
(1032,0,l),
(1089,246,l),
(386,246,l),
(468,604,l),
(1122,604,l),
(1177,843,l),
(522,843,l),
(608,1209,l),
(1311,1209,l),
(1365,1448,l),
(402,1448,l),
(70,0,l)
);
}
);
width = 1275;
},
{
anchors = (
{
name = top;
position = "{864, 1620}";
},
{
name = ogonek;
position = "{1040, 0}";
},
{
name = bottom;
position = "{570, -120}";
}
);
guides = (
{
angle = 90;
position = "{915, 0}";
}
);
layerId = "730F33E1-68ED-45B5-8902-551965799117";
shapes = (
{
closed = 1;
nodes = (
(1040.25,0,l),
(1075.5,156,l),
(306.5,156,l),
(420,652,l),
(1092.75,652,l),
(1126.75,795.75,l),
(455.25,795.75,l),
(570.5,1299.75,l),
(1339.5,1299.75,l),
(1373.25,1448,l),
(434.25,1448,l),
(101.5,0,l)
);
}
);
width = 1277;
},
{
anchors = (
{
name = top;
position = "{871, 1620}";
},
{
name = ogonek;
position = "{1043, 0}";
},
{
name = bottom;
position = "{561, -120}";
}
);
guides = (
{
angle = 90;
position = "{871, 0}";
}
);
layerId = "67A62FEC-841D-491B-BA5E-8BAEF7B2DF33";
shapes = (
{
closed = 1;
nodes = (
(1043,0,l),
(1071,126,l),
(280,126,l),
(404,668,l),
(1083,668,l),
(1110,780,l),
(433,780,l),
(558,1330,l),
(1349,1330,l),
(1376,1448,l),
(445,1448,l),
(112,0,l)
);
}
);
width = 1278;
}
);
leftKerningGroup = B;
unicode = 69;
},
{
glyphname = F;
layers = (
{
layerId = "31A26675-4074-4365-ADEA-834199CB2297";
shapes = (
{
closed = 1;
nodes = (
(349.184,0,l),
(484.352,587.776,l),
(1159.168,587.776,l),
(1219.584,858.112,l),
(544.768,858.112,l),
(621.568,1178.6,l),
(1386.496,1178.6,l),
(1447.936,1447.912,l),
(392.192,1447.912,l),
(59.392,0,l)
);
}
);
width = 1275;
},
{
layerId = "57FF79F6-5737-48C1-BD5F-8B84E303409D";
shapes = (
{
closed = 1;
nodes = (
(329.728,0,l),
(467.968,604.16,l),
(1142.784,604.16,l),
(1197.056,842.752,l),
(522.24,842.752,l),
(608.256,1209.32,l),
(1373.184,1209.32,l),
(1428.48,1447.912,l),
(402.432,1447.912,l),
(69.632,0,l)
);
}
);
width = 1265;
},
{
layerId = "730F33E1-68ED-45B5-8902-551965799117";
shapes = (
{
closed = 1;
nodes = (
(271.36,0,l),
(420.352,651.776,l),
(1096.704,651.776,l),
(1131.008,795.904,l),
(455.424,795.904,l),
(570.624,1299.944,l),
(1337.088,1299.944,l),
(1371.648,1447.912,l),
(434.688,1447.912,l),
(101.12,0,l)
);
}
);
width = 1237;
},
{
layerId = "67A62FEC-841D-491B-BA5E-8BAEF7B2DF33";
shapes = (
{
closed = 1;
nodes = (
(251.904,0,l),
(404.48,667.648,l),
(1081.344,667.648,l),
(1108.992,780.288,l),
(433.152,780.288,l),
(558.08,1330.152,l),
(1325.056,1330.152,l),
(1352.704,1447.912,l),
(445.44,1447.912,l),
(111.616,0,l)
);
}
);
width = 1228;
}
);
leftKerningGroup = B;
unicode = 70;
},
{
glyphname = G;
layers = (
{
anchors = (
{
name = top;
position = "{1014, 1620}";
},
{
name = bottom;
position = "{666, -120}";
}
);
guides = (
{
angle = 90;
position = "{1014, 0}";
}
);
layerId = "31A26675-4074-4365-ADEA-834199CB2297";
shapes = (
{
closed = 1;
nodes = (
(844.8,-20.48,o),
(1007.616,33.792,o),
(1126.4,172.032,c),
(1113.088,0,l),
(1339.392,0,l),
(1523.712,797.696,l),
(812.384,797.696,l),
(760.136,573.176,l),
(1189.888,573.44,l),
(1116.16,394.24,o),
(916.48,236.544,o),
(717.824,236.544,cs),
(509.952,236.544,o),
(384,334.848,o),
(384,550.912,cs),
(384,865.28,o),
(609.28,1219.584,o),
(952.32,1219.584,cs),
(1134.592,1219.584,o),
(1264.64,1146.88,o),
(1275.904,950.272,c),
(1548.288,1034.24,l),
(1490.944,1317.888,o),
(1273.856,1470.464,o),
(991.232,1470.464,cs),
(459.776,1470.464,o),
(99.328,1027.072,o),
(99.328,522.24,cs),
(99.328,176.128,o),
(327.68,-20.48,o),
(665.6,-20.48,cs)
);
}
);
width = 1579;
},
{
anchors = (
{
name = top;
position = "{942, 1620}";
},
{
name = bottom;
position = "{675, -120}";
}
);
guides = (
{
angle = 90;
position = "{942, 0}";
}
);
layerId = "57FF79F6-5737-48C1-BD5F-8B84E303409D";
shapes = (
{
closed = 1;
nodes = (
(856.064,-20.48,o),
(1028.096,50.176,o),
(1142.784,192.512,c),
(1118.208,0,l),
(1323.008,0,l),
(1503.232,782.336,l),
(822.624,782.336,l),
(774.496,577.536,l),
(1206.272,577.536,l),
(1124.352,370.688,o),
(930.816,211.968,o),
(702.464,211.968,cs),
(488.448,211.968,o),
(366.592,325.632,o),
(366.592,541.696,cs),
(366.592,876.544,o),
(594.944,1243.136,o),
(962.56,1243.136,cs),
(1149.952,1243.136,o),
(1269.76,1158.144,o),
(1290.24,968.704,c),
(1534.976,1044.48,l),
(1474.56,1326.08,o),
(1273.856,1470.464,o),
(990.208,1470.464,cs),
(475.136,1470.464,o),
(111.616,1030.144,o),
(111.616,524.288,cs),
(111.616,164.864,o),
(334.848,-20.48,o),
(674.816,-20.48,cs)
);
}
);
width = 1571;
},
{
anchors = (
{
name = top;
position = "{975, 1620}";
},
{
name = bottom;
position = "{674, -120}";
}
);
guides = (
{
angle = 90;
position = "{1014, 0}";
}
);
layerId = "730F33E1-68ED-45B5-8902-551965799117";
shapes = (
{
closed = 1;
nodes = (
(879.104,-20.48,o),
(1080.32,78.592,o),
(1195.008,257.792,c),
(1135.872,0,l),
(1276.16,0,l),
(1445.632,735.488,l),
(854.112,735.488,l),
(823.63,608.148,l),
(1256.192,608.256,l),
(1184.256,343.04,o),
(963.84,136.704,o),
(680.96,136.704,cs),
(437.76,136.704,o),
(315.136,276.48,o),
(315.136,514.816,cs),
(315.136,888.832,o),
(558.08,1312.256,o),
(971.776,1312.256,cs),
(1166.848,1312.256,o),
(1295.872,1218.048,o),
(1334.784,1024,c),
(1498.112,1075.968,l),
(1440,1336.064,o),
(1248.512,1470.464,o),
(987.136,1470.464,cs),
(476.672,1470.464,o),
(147.712,973.312,o),
(147.712,499.712,cs),
(147.712,166.4,o),
(338.688,-20.48,o),
(668.672,-20.48,cs)
);
}
);
width = 1550;
},
{
anchors = (
{
name = top;
position = "{986, 1620}";
},
{
name = bottom;
position = "{674, -120}";
}
);
guides = (
{
angle = 90;
position = "{986, 0}";
}
);
layerId = "67A62FEC-841D-491B-BA5E-8BAEF7B2DF33";
shapes = (
{
closed = 1;
nodes = (
(886.784,-20.48,o),
(1097.728,88.064,o),
(1212.416,279.552,c),
(1141.76,0,l),
(1260.544,0,l),
(1426.432,719.872,l),
(864.608,719.872,l),
(840.008,618.352,l),
(1272.832,618.496,l),
(1204.224,333.824,o),
(974.848,111.616,o),
(673.792,111.616,cs),
(420.864,111.616,o),
(297.984,260.096,o),
(297.984,505.856,cs),
(297.984,892.928,o),
(545.792,1335.296,o),
(974.848,1335.296,cs),
(1172.48,1335.296,o),
(1304.576,1238.016,o),
(1349.632,1042.432,c),
(1485.824,1086.464,l),
(1428.48,1339.392,o),
(1240.064,1470.464,o),
(986.112,1470.464,cs),
(477.184,1470.464,o),
(159.744,954.368,o),
(159.744,491.52,cs),
(159.744,166.912,o),
(339.968,-20.48,o),
(666.624,-20.48,cs)
);
}
);
width = 1543;
}
);
leftKerningGroup = B;
unicode = 71;
},
{
glyphname = H;
layers = (
{
anchors = (
{
name = top;
position = "{942, 1620}";
}
);
guides = (
{
angle = 90;
position = "{942, 0}";
}
);
layerId = "31A26675-4074-4365-ADEA-834199CB2297";
shapes = (
{
closed = 1;
nodes = (
(1242,0,l),
(1576,1448,l),
(1286,1448,l),
(1148,858,l),
(545,858,l),
(682,1448,l),
(392,1448,l),
(59,0,l),
(349,0,l),
(484,588,l),
(1086,588,l),
(952,0,l)
);
}
);
width = 1536;
},
{
anchors = (
{
name = top;
position = "{942, 1620}";
}
);
guides = (
{
angle = 90;
position = "{942, 0}";
}
);
layerId = "57FF79F6-5737-48C1-BD5F-8B84E303409D";
shapes = (
{
closed = 1;
nodes = (
(1223,0,l),
(1556,1448,l),
(1296,1448,l),
(1155,843,l),
(522,843,l),
(663,1448,l),
(402,1448,l),
(70,0,l),
(330,0,l),
(468,604,l),
(1101,604,l),
(963,0,l)
);
}
);
width = 1527;
},
{
anchors = (
{
name = top;
position = "{942, 1620}";
}
);
guides = (
{
angle = 90;
position = "{942, 0}";
}
);
layerId = "730F33E1-68ED-45B5-8902-551965799117";
shapes = (
{
closed = 1;
nodes = (
(1166,0,l),
(1499.75,1448,l),
(1329,1448,l),
(1179.75,795.75,l),
(455.25,795.75,l),
(604.5,1448,l),
(434.25,1448,l),
(101.5,0,l),
(271.5,0,l),
(420,652,l),
(1144.5,652,l),
(996.75,0,l)
);
}
);
width = 1502;
},
{
anchors = (
{
name = top;
position = "{942, 1620}";
}
);
guides = (
{
angle = 90;
position = "{942, 0}";
}
);
layerId = "67A62FEC-841D-491B-BA5E-8BAEF7B2DF33";
shapes = (
{
closed = 1;
nodes = (
(1147,0,l),
(1481,1448,l),
(1340,1448,l),
(1188,780,l),
(433,780,l),
(585,1448,l),
(445,1448,l),
(112,0,l),
(252,0,l),
(404,668,l),
(1159,668,l),
(1008,0,l)
);
}
);
width = 1493;
}
);
leftKerningGroup = B;
unicode = 72;
},
{
glyphname = I;
layers = (
{
anchors = (
{
name = top;
position = "{562, 1620}";
},
{
name = ogonek;
position = "{349, 0}";
},
{
name = bottom;
position = "{184, -120}";
}
);
guides = (
{
angle = 90;
position = "{562, 0}";
}
);
layerId = "31A26675-4074-4365-ADEA-834199CB2297";
shapes = (
{
closed = 1;
nodes = (
(349,0,l),
(682,1448,l),
(392,1448,l),
(59,0,l)
);
}
);
width = 642;
},
{
anchors = (
{
name = top;
position = "{522, 1620}";
},
{
name = ogonek;
position = "{330, 0}";
},
{
name = bottom;
position = "{169, -120}";
}
);
guides = (
{
angle = 90;
position = "{522, 0}";
}
);
layerId = "57FF79F6-5737-48C1-BD5F-8B84E303409D";
shapes = (
{
closed = 1;
nodes = (
(330,0,l),
(663,1448,l),
(402,1448,l),
(70,0,l)
);
}
);
width = 633;
},
{
anchors = (
{
name = top;
position = "{522, 1620}";
},
{
name = ogonek;
position = "{273, 0}";
},
{
name = bottom;
position = "{165, -120}";
}
);
guides = (
{
angle = 90;
position = "{562, 0}";
}
);
layerId = "730F33E1-68ED-45B5-8902-551965799117";
shapes = (
{
closed = 1;
nodes = (
(271.5,0,l),
(604.5,1448,l),
(434.25,1448,l),
(101.5,0,l)
);
}
);
width = 607;
},
{
anchors = (
{
name = top;
position = "{522, 1620}";
},
{
name = ogonek;
position = "{254, 0}";
},
{
name = bottom;
position = "{163, -120}";
}
);
guides = (
{
angle = 90;
position = "{522, 0}";
}
);
layerId = "67A62FEC-841D-491B-BA5E-8BAEF7B2DF33";
shapes = (
{
closed = 1;
nodes = (
(252,0,l),
(585,1448,l),
(445,1448,l),
(112,0,l)
);
}
);
width = 598;
}
);
leftKerningGroup = B;
unicode = 73;
},
{
glyphname = J;
layers = (
{
layerId = "31A26675-4074-4365-ADEA-834199CB2297";
shapes = (
{
closed = 1;
nodes = (
(753.664,-20.48,o),
(948.224,182.272,o),
(1025.024,513.024,cs),
(1240.064,1446.912,l),
(952.32,1446.912,l),
(740.352,536.576,ls),
(701.44,369.664,o),
(640,250.88,o),
(448.512,250.88,cs),
(337.92,250.88,o),
(289.792,310.272,o),
(289.792,416.768,cs),
(289.792,440.32,o),
(291.84,462.848,o),
(295.936,481.28,c),
(9.216,481.28,l),
(4.096,444.416,o),
(2.048,410.624,o),
(2.048,377.856,cs),
(2.048,140.288,o),
(165.888,-20.48,o),
(402.432,-20.48,cs)
);
}
);
width = 1170;
},
{
layerId = "57FF79F6-5737-48C1-BD5F-8B84E303409D";
shapes = (
{
closed = 1;
nodes = (
(752.64,-20.48,o),
(935.936,195.584,o),
(1008.64,512,cs),
(1224.704,1446.912,l),
(965.632,1446.912,l),
(752.64,528.384,ls),
(710.656,348.16,o),
(644.096,220.16,o),
(440.32,220.16,cs),
(320.512,220.16,o),
(270.336,289.792,o),
(270.336,399.36,cs),
(270.336,421.888,o),
(272.384,445.44,o),
(276.48,465.92,c),
(20.48,465.92,l),
(15.36,427.008,o),
(13.312,397.312,o),
(13.312,373.76,cs),
(13.312,125.952,o),
(172.032,-20.48,o),
(410.624,-20.48,cs)
);
}
);
width = 1166;
},
{
layerId = "730F33E1-68ED-45B5-8902-551965799117";
shapes = (
{
closed = 1;
nodes = (
(781.824,-20.48,o),
(906.752,263.936,o),
(1004.032,685.568,cs),
(1179.392,1446.912,l),
(1008.64,1446.912,l),
(791.04,504.576,ls),
(742.912,295.168,o),
(648.704,129.536,o),
(410.368,129.536,cs),
(273.664,129.536,o),
(213.504,219.904,o),
(213.504,347.136,cs),
(213.504,371.968,o),
(215.552,397.056,o),
(219.648,421.376,c),
(53.504,416.768,l),
(48.384,386.304,o),
(46.336,358.912,o),
(46.336,332.288,cs),
(46.336,90.624,o),
(200.448,-20.48,o),
(422.144,-20.48,cs)
);
}
);
width = 1157;
},
{
layerId = "67A62FEC-841D-491B-BA5E-8BAEF7B2DF33";
shapes = (
{
closed = 1;
nodes = (
(791.552,-20.48,o),
(897.024,286.72,o),
(1002.496,743.424,cs),
(1164.288,1446.912,l),
(1022.976,1446.912,l),
(803.84,496.64,ls),
(753.664,277.504,o),
(650.24,99.328,o),
(400.384,99.328,cs),
(258.048,99.328,o),
(194.56,196.608,o),
(194.56,329.728,cs),
(194.56,355.328,o),
(196.608,380.928,o),
(200.704,406.528,c),
(64.512,400.384,l),
(59.392,372.736,o),
(57.344,346.112,o),
(57.344,318.464,cs),
(57.344,78.848,o),
(209.92,-20.48,o),
(425.984,-20.48,cs)
);
}
);
width = 1154;
}
);
leftKerningGroup = B;
unicode = 74;
},
{
glyphname = K;
layers = (
{
anchors = (
{
name = bottom;
position = "{695, -120}";
}
);
layerId = "31A26675-4074-4365-ADEA-834199CB2297";
shapes = (
{
closed = 1;
nodes = (
(1414.144,0,l),
(1021.952,846.848,l),
(1751.04,1446.912,l),
(1354.752,1446.912,l),
(513.024,721.92,l),
(681.984,1446.912,l),
(392.192,1446.912,l),
(59.392,0,l),
(349.184,0,l),
(436.224,368.64,l),
(777.216,650.24,l),
(1056.768,0,l)
);
}
);
width = 1537;
},
{
anchors = (
{
name = bottom;
position = "{677, -120}";
}
);
layerId = "57FF79F6-5737-48C1-BD5F-8B84E303409D";
shapes = (
{
closed = 1;
nodes = (
(1388.544,0,l),
(1000.448,854.016,l),
(1717.248,1446.912,l),
(1364.992,1446.912,l),
(486.4,692.224,l),
(662.528,1446.912,l),
(402.432,1446.912,l),
(69.632,0,l),
(329.728,0,l),
(417.792,375.808,l),
(784.384,679.936,l),
(1072.128,0,l)
);
}
);
width = 1527;
},
{
anchors = (
{
name = bottom;
position = "{656, -120}";
}
);
layerId = "730F33E1-68ED-45B5-8902-551965799117";
shapes = (
{
closed = 1;
nodes = (
(1291.008,0,l),
(916.736,874.752,l),
(1598.976,1446.912,l),
(1372.672,1446.912,l),
(389.632,607.744,l),
(584.192,1446.912,l),
(413.952,1446.912,l),
(80.384,0,l),
(250.624,0,l),
(343.296,396.544,l),
(776.704,758.272,l),
(1091.328,0,l)
);
}
);
width = 1496;
},
{
anchors = (
{
name = bottom;
position = "{649, -120}";
}
);
layerId = "67A62FEC-841D-491B-BA5E-8BAEF7B2DF33";
shapes = (
{
closed = 1;
nodes = (
(1258.496,0,l),
(888.832,881.664,l),
(1559.552,1446.912,l),
(1375.232,1446.912,l),
(357.376,579.584,l),
(558.08,1446.912,l),
(417.792,1446.912,l),
(83.968,0,l),
(224.256,0,l),
(318.464,403.456,l),
(774.144,784.384,l),
(1097.728,0,l)
);
}
);
width = 1486;
}
);
leftKerningGroup = B;
unicode = 75;
},
{
glyphname = L;
layers = (
{
anchors = (
{
name = top;
position = "{519, 1620}";
},
{
name = bottom;
position = "{519, -120}";
},
{
name = center;
position = "{901, 774}";
}
);
guides = (
{
angle = 90;
position = "{519, 0}";
}
);
layerId = "31A26675-4074-4365-ADEA-834199CB2297";
shapes = (
{
closed = 1;
nodes = (
(967.68,0,l),
(1032.192,276.48,l),
(413.696,276.48,l),
(681.984,1447.936,l),
(392.192,1447.936,l),
(59.392,0,l)
);
}
);
width = 1095;
},
{
anchors = (
{
name = top;
position = "{546, 1620}";
},
{
name = bottom;
position = "{537, -120}";
},
{
name = center;
position = "{910, 774}";
}
);
guides = (
{
angle = 90;
position = "{546, 0}";
}
);
layerId = "57FF79F6-5737-48C1-BD5F-8B84E303409D";
shapes = (
{
closed = 1;
nodes = (
(948.224,0,l),
(1004.544,245.76,l),
(386.048,245.76,l),
(662.528,1447.936,l),
(402.432,1447.936,l),
(69.632,0,l)
);
}
);
width = 1089;
},
{
anchors = (
{
name = top;
position = "{516, 1620}";
},
{
name = bottom;
position = "{513, -120}";
},
{
name = center;
position = "{852, 774}";
}
);
guides = (
{
angle = 90;
position = "{519, 0}";
}
);
layerId = "730F33E1-68ED-45B5-8902-551965799117";
shapes = (
{
closed = 1;
nodes = (
(890.624,0,l),
(925.44,155.904,l),
(306.176,155.904,l),
(604.16,1447.936,l),
(434.688,1447.936,l),
(101.12,0,l)
);
}
);
width = 1072;
},
{
anchors = (
{
name = top;
position = "{506, 1620}";
},
{
name = bottom;
position = "{505, -120}";
},
{
name = center;
position = "{833, 774}";
}
);
guides = (
{
angle = 90;
position = "{506, 0}";
}
);
layerId = "67A62FEC-841D-491B-BA5E-8BAEF7B2DF33";
shapes = (
{
closed = 1;
nodes = (
(871.424,0,l),
(899.072,125.952,l),
(279.552,125.952,l),
(584.704,1447.936,l),
(445.44,1447.936,l),
(111.616,0,l)
);
}
);
width = 1066;
}
);
leftKerningGroup = B;
rightKerningGroup = A;
unicode = 76;
},
{
glyphname = M;
layers = (
{
layerId = "31A26675-4074-4365-ADEA-834199CB2297";
shapes = (
{
closed = 1;
nodes = (
(1556.48,0,l),
(1890.304,1446.912,l),
(1511.424,1446.912,l),
(910.336,458.752,l),
(766.976,1446.912,l),
(392.192,1446.912,l),
(59.392,0,l),
(334.848,0,l),
(570.368,1011.712,l),
(699.392,125.952,l),
(974.848,125.952,l),
(1514.496,1011.712,l),
(1278.976,0,l)
);
}
);
width = 1850;
},
{
layerId = "57FF79F6-5737-48C1-BD5F-8B84E303409D";
shapes = (
{
closed = 1;
nodes = (
(1537.024,0,l),
(1870.848,1446.912,l),
(1518.592,1446.912,l),
(894.976,417.792,l),
(750.592,1446.912,l),
(402.432,1446.912,l),
(69.632,0,l),
(318.464,0,l),
(570.368,1082.368,l),
(706.56,125.952,l),
(958.464,125.952,l),
(1539.072,1082.368,l),
(1287.168,0,l)
);
}
);
width = 1841;
},
{
layerId = "730F33E1-68ED-45B5-8902-551965799117";
shapes = (
{
closed = 1;
nodes = (
(1460.224,0,l),
(1794.816,1446.912,l),
(1529.344,1446.912,l),
(832.768,293.376,l),
(676.864,1446.912,l),
(413.952,1446.912,l),
(80.384,0,l),
(248.576,0,l),
(544.256,1272.832,l),
(708.096,125.952,l),
(890.88,125.952,l),
(1588.224,1272.832,l),
(1293.312,0,l)
);
}
);
width = 1813;
},
{
layerId = "67A62FEC-841D-491B-BA5E-8BAEF7B2DF33";
shapes = (
{
closed = 1;
nodes = (
(1434.624,0,l),
(1769.472,1446.912,l),
(1532.928,1446.912,l),
(812.032,251.904,l),
(652.288,1446.912,l),
(417.792,1446.912,l),
(83.968,0,l),
(225.28,0,l),
(535.552,1336.32,l),
(708.608,125.952,l),
(868.352,125.952,l),
(1604.608,1336.32,l),
(1295.36,0,l)
);
}
);
width = 1804;
}
);
leftKerningGroup = B;
unicode = 77;
},
{
glyphname = N;
layers = (
{
layerId = "31A26675-4074-4365-ADEA-834199CB2297";
shapes = (
{
closed = 1;
nodes = (
(1204.224,0,l),
(1538.048,1446.912,l),
(1260.544,1446.912,l),
(1041.408,510.976,l),
(657.408,1446.912,l),
(392.192,1446.912,l),
(59.392,0,l),
(334.848,0,l),
(555.008,937.984,l),
(937.984,0,l)
);
}
);
width = 1498;
},
{
layerId = "57FF79F6-5737-48C1-BD5F-8B84E303409D";
shapes = (
{
closed = 1;
nodes = (
(1184.768,0,l),
(1518.592,1446.912,l),
(1268.736,1446.912,l),
(1032.192,434.176,l),
(658.432,1446.912,l),
(402.432,1446.912,l),
(69.632,0,l),
(318.464,0,l),
(556.032,1014.784,l),
(926.72,0,l)
);
}
);
width = 1489;
},
{
layerId = "730F33E1-68ED-45B5-8902-551965799117";
shapes = (
{
closed = 1;
nodes = (
(1107.968,0,l),
(1441.024,1446.912,l),
(1274.112,1446.912,l),
(988.416,216.832,l),
(637.696,1446.912,l),
(413.952,1446.912,l),
(80.384,0,l),
(248.576,0,l),
(534.528,1232.128,l),
(880.64,0,l)
);
}
);
width = 1461;
},
{
layerId = "67A62FEC-841D-491B-BA5E-8BAEF7B2DF33";
shapes = (
{
closed = 1;
nodes = (
(1082.368,0,l),
(1415.168,1446.912,l),
(1275.904,1446.912,l),
(973.824,144.384,l),
(630.784,1446.912,l),
(417.792,1446.912,l),
(83.968,0,l),
(225.28,0,l),
(527.36,1304.576,l),
(865.28,0,l)
);
}
);
width = 1451;
}
);
leftKerningGroup = B;
unicode = 78;
},
{
glyphname = O;
layers = (
{
anchors = (
{
name = top;
position = "{1080, 1620}";
},
{
name = ogonek;
position = "{784, 0}";
},
{
name = pos;
position = "{1810, 1448}";
},
{
name = bottom;
position = "{663, -120}";
}
);
guides = (
{
angle = 90;
position = "{1080, 0}";
}
);
layerId = "31A26675-4074-4365-ADEA-834199CB2297";
shapes = (
{
closed = 1;
nodes = (
(1190,-20,o),
(1566,397,o),
(1566,918,cs),
(1566,1269,o),
(1348,1468,o),
(1000,1468,cs),
(472,1468,o),
(96,1048,o),
(96,519,cs),
(96,175,o),
(328,-20,o),
(663,-20,cs)
);
},
{
closed = 1;
nodes = (
(515,236,o),
(402,327,o),
(402,530,cs),
(402,841,o),
(601,1211,o),
(950,1211,cs),
(1150,1211,o),
(1261,1121,o),
(1261,915,cs),
(1261,603,o),
(1060,236,o),
(713,236,cs)
);
}
);
width = 1566;
},
{
anchors = (
{
name = top;
position = "{990, 1620}";
},
{
name = ogonek;
position = "{781, 0}";
},
{
name = pos;
position = "{1781, 1447}";
},
{
name = bottom;
position = "{673, -120}";
}
);
guides = (
{
angle = 90;
position = "{990, 0}";
}
);
layerId = "57FF79F6-5737-48C1-BD5F-8B84E303409D";
shapes = (
{
closed = 1;
nodes = (
(1191,-20,o),
(1551,420,o),
(1551,924,cs),
(1551,1283,o),
(1330,1468,o),
(990,1468,cs),
(474,1468,o),
(111,1030,o),
(111,522,cs),
(111,164,o),
(335,-20,o),
(673,-20,cs)
);
},
{
closed = 1;
nodes = (
(493,210,o),
(381,321,o),
(381,526,cs),
(381,858,o),
(592,1237,o),
(963,1237,cs),
(1171,1237,o),
(1282,1128,o),
(1282,920,cs),
(1282,588,o),
(1069,210,o),
(698,210,cs)
);
}
);
width = 1565;
},
{
anchors = (
{
name = top;
position = "{954, 1620}";
},
{
name = ogonek;
position = "{737, 0}";
},
{
name = pos;
position = "{1726, 1447}";
},
{
name = bottom;
position = "{604, -120}";
}
);
guides = (
{
angle = 90;
position = "{1080, 0}";
}
);
layerId = "730F33E1-68ED-45B5-8902-551965799117";
shapes = (
{
closed = 1;
nodes = (
(1166.25,-20,o),
(1489.5,465.75,o),
(1489.5,942.75,cs),
(1489.5,1274.75,o),
(1300.75,1468,o),
(970.5,1468,cs),
(456.75,1468,o),
(131.25,979.75,o),
(131.25,503.25,cs),
(131.25,172.25,o),
(320,-20,o),
(650.5,-20,cs)
);
},
{
closed = 1;
nodes = (
(436.75,135.75,o),
(306.75,273,o),
(306.75,505.75,cs),
(306.75,879,o),
(525.25,1310.5,o),
(947.25,1310.5,cs),
(1192.75,1310.5,o),
(1316.5,1172.25,o),
(1316.5,931.25,cs),
(1316.5,561.75,o),
(1085.5,135.75,o),
(669.5,135.75,cs)
);
}
);
width = 1522;
},
{
anchors = (
{
name = top;
position = "{942, 1620}";
},
{
name = ogonek;
position = "{722, 0}";
},
{
name = pos;
position = "{1708, 1447}";
},
{
name = bottom;
position = "{581, -120}";
}
);
guides = (
{
angle = 90;
position = "{942, 0}";
}
);
layerId = "67A62FEC-841D-491B-BA5E-8BAEF7B2DF33";
shapes = (
{
closed = 1;
nodes = (
(1158,-20,o),
(1469,481,o),
(1469,949,cs),
(1469,1272,o),
(1291,1468,o),
(964,1468,cs),
(451,1468,o),
(138,963,o),
(138,497,cs),
(138,175,o),
(315,-20,o),
(643,-20,cs)
);
},
{
closed = 1;
nodes = (
(418,111,o),
(282,257,o),
(282,499,cs),
(282,886,o),
(503,1335,o),
(942,1335,cs),
(1200,1335,o),
(1328,1187,o),
(1328,935,cs),
(1328,553,o),
(1091,111,o),
(660,111,cs)
);
}
);
width = 1508;
}
);
leftKerningGroup = B;
unicode = 79;
},
{
glyphname = P;
layers = (
{
layerId = "63E1918D-1FC0-440A-8F20-CB7E9D337C03";
name = "#instance";
shapes = (
{
closed = 1;
nodes = (
(251.904,0,l),
(404.48,664.576,l),
(598.016,664.576,ls),
(907.264,664.576,o),
(1212.416,789.504,o),
(1212.416,1146.88,cs),
(1212.416,1362.944,o),
(1024,1446.912,o),
(834.56,1446.912,cs),
(445.44,1446.912,l),
(111.616,0,l)
);
},
{
closed = 1;
nodes = (
(432.128,786.432,l),
(558.08,1325.056,l),
(819.2,1325.056,ls),
(945.152,1325.056,o),
(1075.2,1287.168,o),
(1075.2,1136.64,cs),
(1075.2,911.36,o),
(897.024,786.432,o),
(685.056,786.432,cs)
);
}
);
width = 1184;
},
{
layerId = "31A26675-4074-4365-ADEA-834199CB2297";
shapes = (
{
closed = 1;
nodes = (
(346.112,0,l),
(481.28,583.68,l),
(615.424,583.68,ls),
(940.034,583.68,o),
(1292.288,705.536,o),
(1292.288,1096.704,cs),
(1292.288,1350.656,o),
(1075.2,1446.912,o),
(852.992,1446.912,cs),
(392.192,1446.912,l),
(59.392,0,l)
);
},
{
closed = 1;
nodes = (
(542.72,857.088,l),
(616.448,1173.504,l),
(801.792,1173.504,ls),
(871.424,1173.504,o),
(1007.616,1170.432,o),
(1007.616,1072.128,cs),
(1007.616,911.36,o),
(847.872,857.088,o),
(714.752,857.088,cs)
);
}
);
width = 1247;
},
{
layerId = "57FF79F6-5737-48C1-BD5F-8B84E303409D";
shapes = (
{
closed = 1;
nodes = (
(326.656,0,l),
(465.92,600.064,l),
(666.624,600.064,ls),
(975.872,600.064,o),
(1275.904,766.976,o),
(1275.904,1106.944,cs),
(1275.904,1353.728,o),
(1061.888,1446.912,o),
(848.896,1446.912,cs),
(402.432,1446.912,l),
(69.632,0,l)
);
},
{
closed = 1;
nodes = (
(520.192,842.752,l),
(604.16,1204.224,l),
(812.032,1204.224,ls),
(951.296,1204.224,o),
(1020.928,1164.288,o),
(1020.928,1085.44,cs),
(1020.928,910.336,o),
(860.16,842.752,o),
(708.608,842.752,cs)
);
}
);
width = 1195;
},
{
layerId = "730F33E1-68ED-45B5-8902-551965799117";
shapes = (
{
closed = 1;
nodes = (
(270.592,0,l),
(419.84,648.448,l),
(615.168,648.448,ls),
(924.416,648.448,o),
(1228.288,783.872,o),
(1228.288,1136.896,cs),
(1228.288,1360.64,o),
(1033.472,1446.912,o),
(838.144,1446.912,cs),
(434.688,1446.912,l),
(101.12,0,l)
);
},
{
closed = 1;
nodes = (
(454.144,800.512,l),
(569.6,1294.848,l),
(817.408,1294.848,ls),
(946.688,1294.848,o),
(1061.632,1256.448,o),
(1061.632,1123.84,cs),
(1061.632,911.104,o),
(887.808,800.512,o),
(690.944,800.512,cs)
);
}
);
width = 1187;
},
{
layerId = "67A62FEC-841D-491B-BA5E-8BAEF7B2DF33";
shapes = (
{
closed = 1;
nodes = (
(251.904,0,l),
(404.48,664.576,l),
(598.016,664.576,ls),
(907.264,664.576,o),
(1212.416,789.504,o),
(1212.416,1146.88,cs),
(1212.416,1362.944,o),
(1024,1446.912,o),
(834.56,1446.912,cs),
(445.44,1446.912,l),
(111.616,0,l)
);
},
{
closed = 1;
nodes = (
(432.128,786.432,l),
(558.08,1325.056,l),
(819.2,1325.056,ls),
(945.152,1325.056,o),
(1075.2,1287.168,o),
(1075.2,1136.64,cs),
(1075.2,911.36,o),
(897.024,786.432,o),
(685.056,786.432,cs)
);
}
);
width = 1184;
}
);
leftKerningGroup = B;
unicode = 80;
},
{
glyphname = Q;
layers = (
{
layerId = "31A26675-4074-4365-ADEA-834199CB2297";
shapes = (
{
closed = 1;
nodes = (
(1234.944,-129.024,l),
(1463.296,47.104,l),
(1295.36,233.472,l),
(1467.392,413.696,o),
(1565.696,676.864,o),
(1565.696,924.672,cs),
(1565.696,1271.808,o),
(1340.416,1468.416,o),
(1000.448,1468.416,cs),
(479.232,1468.416,o),
(96.256,1051.648,o),
(96.256,528.384,cs),
(96.256,177.152,o),
(318.464,-20.48,o),
(662.528,-20.48,cs),
(808.96,-20.48,o),
(943.104,4.096,o),
(1073.152,73.728,c)
);
},
{
closed = 1;
nodes = (
(513.024,254.976,o),
(384,344.064,o),
(384,551.936,cs),
(384,866.304,o),
(609.28,1191.936,o),
(947.2,1191.936,cs),
(1147.904,1191.936,o),
(1278.976,1105.92,o),
(1278.976,892.928,cs),
(1278.976,736.256,o),
(1223.68,594.944,o),
(1133.568,467.968,c),
(978.944,625.664,l),
(753.664,454.656,l),
(906.24,287.744,l),
(841.728,267.264,o),
(776.192,254.976,o),
(709.632,254.976,cs)
);
}
);
width = 1617;
},
{
layerId = "57FF79F6-5737-48C1-BD5F-8B84E303409D";
shapes = (
{
closed = 1;
nodes = (
(1234.944,-121.856,l),
(1436.672,35.84,l),
(1272.832,224.256,l),
(1445.888,406.528,o),
(1551.36,669.696,o),
(1551.36,921.6,cs),
(1551.36,1282.048,o),
(1332.224,1468.416,o),
(990.208,1468.416,cs),
(474.112,1468.416,o),
(110.592,1030.144,o),
(110.592,522.24,cs),
(110.592,163.84,o),
(334.848,-20.48,o),
(672.768,-20.48,cs),
(825.344,-20.48,o),
(959.488,13.312,o),
(1076.224,79.872,c)
);
},
{
closed = 1;
nodes = (
(494.592,224.256,o),
(367.616,327.68,o),
(367.616,541.696,cs),
(367.616,877.568,o),
(594.944,1222.656,o),
(960.512,1222.656,cs),
(1170.432,1222.656,o),
(1294.336,1119.232,o),
(1294.336,904.192,cs),
(1294.336,739.328,o),
(1228.8,561.152,o),
(1128.448,432.128,c),
(972.8,600.064,l),
(774.144,446.464,l),
(926.72,270.336,l),
(850.944,239.616,o),
(776.192,224.256,o),
(702.464,224.256,cs)
);
}
);
width = 1611;
},
{
layerId = "730F33E1-68ED-45B5-8902-551965799117";
shapes = (
{
closed = 1;
nodes = (
(1237.248,-101.888,l),
(1366.784,5.888,l),
(1204.48,211.968,l),
(1382.912,392.704,o),
(1489.92,690.432,o),
(1489.92,942.336,cs),
(1489.92,1274.368,o),
(1300.736,1469.184,o),
(970.24,1469.184,cs),
(460.288,1469.184,o),
(131.328,984.832,o),
(131.328,503.04,cs),
(131.328,171.52,o),
(320.256,-20.48,o),
(650.496,-20.48,cs),
(809.216,-20.48,o),
(953.344,17.152,o),
(1078.528,107.52,c)
);
},
{
closed = 1;
nodes = (
(435.456,138.24,o),
(304.64,273.92,o),
(304.64,508.672,cs),
(304.64,881.408,o),
(528.128,1308.672,o),
(948.224,1308.672,cs),
(1193.472,1308.672,o),
(1318.144,1169.92,o),
(1318.144,929.536,cs),
(1318.144,732.416,o),
(1237.248,495.104,o),
(1110.016,343.808,c),
(960.512,529.408,l),
(834.816,421.12,l),
(982.016,231.168,l),
(887.04,168.192,o),
(783.104,138.24,o),
(671.744,138.24,cs)
);
}
);
width = 1596;
},
{
layerId = "67A62FEC-841D-491B-BA5E-8BAEF7B2DF33";
shapes = (
{
closed = 1;
nodes = (
(1238.016,-95.232,l),
(1343.488,-4.096,l),
(1181.696,207.872,l),
(1361.92,388.096,o),
(1469.44,697.344,o),
(1469.44,949.248,cs),
(1469.44,1271.808,o),
(1290.24,1469.44,o),
(963.584,1469.44,cs),
(455.68,1469.44,o),
(138.24,969.728,o),
(138.24,496.64,cs),
(138.24,174.08,o),
(315.392,-20.48,o),
(643.072,-20.48,cs),
(803.84,-20.48,o),
(951.296,18.432,o),
(1079.296,116.736,c)
);
},
{
closed = 1;
nodes = (
(415.744,109.568,o),
(283.648,256,o),
(283.648,497.664,cs),
(283.648,882.688,o),
(505.856,1337.344,o),
(944.128,1337.344,cs),
(1201.152,1337.344,o),
(1326.08,1186.816,o),
(1326.08,937.984,cs),
(1326.08,730.112,o),
(1240.064,473.088,o),
(1103.872,314.368,c),
(956.416,505.856,l),
(855.04,412.672,l),
(1000.448,218.112,l),
(899.072,144.384,o),
(785.408,109.568,o),
(661.504,109.568,cs)
);
}
);
width = 1591;
}
);
leftKerningGroup = B;
unicode = 81;
},
{
glyphname = R;
layers = (
{
layerId = "31A26675-4074-4365-ADEA-834199CB2297";
shapes = (
{
closed = 1;
nodes = (
(1184.768,-2.048,l),
(932.864,631.808,l),
(1137.664,705.536,o),
(1300.48,873.472,o),
(1300.48,1101.824,cs),
(1300.48,1332.224,o),
(1088.512,1446.912,o),
(880.64,1446.912,cs),
(392.192,1446.912,l),
(57.344,-2.048,l),
(346.112,-2.048,l),
(489.472,609.28,l),
(656.384,609.28,l),
(871.424,-2.048,l)
);
},
{
closed = 1;
nodes = (
(544.768,840.704,l),
(623.616,1186.816,l),
(826.368,1186.816,ls),
(904.192,1186.816,o),
(1011.712,1167.36,o),
(1011.712,1069.056,cs),
(1011.712,932.864,o),
(879.616,840.704,o),
(751.616,840.704,cs)
);
}
);
width = 1312;
},
{
layerId = "57FF79F6-5737-48C1-BD5F-8B84E303409D";
shapes = (
{
closed = 1;
nodes = (
(1153.024,-2.048,l),
(906.24,640,l),
(1112.064,704.512,o),
(1281.024,876.544,o),
(1281.024,1102.848,cs),
(1281.024,1342.464,o),
(1075.2,1446.912,o),
(864.256,1446.912,cs),
(402.432,1446.912,l),
(67.584,-2.048,l),
(326.656,-2.048,l),
(472.064,618.496,l),
(658.432,618.496,l),
(872.448,-2.048,l)
);
},
{
closed = 1;
nodes = (
(522.24,830.464,l),
(610.304,1214.464,l),
(826.368,1214.464,ls),
(958.464,1214.464,o),
(1024,1160.192,o),
(1024,1081.344,cs),
(1024,929.792,o),
(882.688,830.464,o),
(744.448,830.464,cs)
);
}
);
width = 1298;
},
{
layerId = "730F33E1-68ED-45B5-8902-551965799117";
shapes = (
{
closed = 1;
nodes = (
(1060.096,-2.048,l),
(827.904,664.576,l),
(1049.088,709.12,o),
(1226.496,892.672,o),
(1226.496,1125.888,cs),
(1226.496,1342.464,o),
(1042.176,1445.376,o),
(846.592,1445.376,cs),
(433.92,1445.376,l),
(98.304,-2.048,l),
(268.288,-2.048,l),
(419.84,645.376,l),
(666.112,645.376,l),
(877.056,-2.048,l)
);
},
{
closed = 1;
nodes = (
(455.424,796.672,l),
(570.368,1295.104,l),
(825.6,1295.104,ls),
(951.552,1295.104,o),
(1061.632,1243.904,o),
(1061.632,1116.672,cs),
(1061.632,948.992,o),
(901.12,796.672,o),
(735.232,796.672,cs)
);
}
);
width = 1262;
},
{
layerId = "67A62FEC-841D-491B-BA5E-8BAEF7B2DF33";
shapes = (
{
closed = 1;
nodes = (
(1029.12,-2.048,l),
(801.792,672.768,l),
(1028.096,710.656,o),
(1208.32,898.048,o),
(1208.32,1133.568,cs),
(1208.32,1342.464,o),
(1031.168,1444.864,o),
(840.704,1444.864,cs),
(444.416,1444.864,l),
(108.544,-2.048,l),
(248.832,-2.048,l),
(402.432,654.336,l),
(668.672,654.336,l),
(878.592,-2.048,l)
);
},
{
closed = 1;
nodes = (
(433.152,785.408,l),
(557.056,1321.984,l),
(825.344,1321.984,ls),
(949.248,1321.984,o),
(1074.176,1271.808,o),
(1074.176,1128.448,cs),
(1074.176,955.392,o),
(907.264,785.408,o),
(732.16,785.408,cs)
);
}
);
width = 1250;
}
);
leftKerningGroup = B;
unicode = 82;
},
{
glyphname = S;
layers = (
{
layerId = "63E1918D-1FC0-440A-8F20-CB7E9D337C03";
name = "#instance";
shapes = (
{
closed = 1;
nodes = (
(755.712,-16.384,o),
(1004.544,165.888,o),
(1004.544,443.392,cs),
(1004.544,834.56,o),
(463.872,762.88,o),
(463.872,1061.888,cs),
(463.872,1233.92,o),
(626.688,1344.512,o),
(786.432,1344.512,cs),
(893.952,1344.512,o),
(984.064,1290.24,o),
(1020.928,1186.816,c),
(1134.592,1244.16,l),
(1080.32,1394.688,o),
(945.152,1468.416,o),
(790.528,1468.416,cs),
(549.888,1468.416,o),
(324.608,1290.24,o),
(324.608,1039.36,cs),
(324.608,669.696,o),
(865.28,733.184,o),
(865.28,416.768,cs),
(865.28,212.992,o),
(680.96,112.64,o),
(497.664,112.64,cs),
(316.416,112.64,o),
(199.68,215.04,o),
(199.68,394.24,c),
(64.512,366.592,l),
(64.512,116.736,o),
(260.096,-16.384,o),
(493.568,-16.384,cs)
);
}
);
width = 1142;
},
{
layerId = "31A26675-4074-4365-ADEA-834199CB2297";
shapes = (
{
closed = 1;
nodes = (
(822.272,-15.36,o),
(1114.112,140.288,o),
(1114.112,447.488,cs),
(1114.112,867.328,o),
(565.248,860.16,o),
(565.248,1075.2,cs),
(565.248,1173.504,o),
(658.432,1223.68,o),
(746.496,1223.68,cs),
(844.8,1223.68,o),
(926.72,1158.144,o),
(956.416,1064.96,c),
(1214.464,1188.864,l),
(1143.808,1382.4,o),
(943.104,1467.392,o),
(748.544,1467.392,cs),
(504.832,1467.392,o),
(260.096,1333.248,o),
(260.096,1061.888,cs),
(260.096,661.504,o),
(808.96,702.464,o),
(808.96,438.272,cs),
(808.96,303.104,o),
(696.32,247.808,o),
(575.488,247.808,cs),
(423.936,247.808,o),
(330.752,334.848,o),
(330.752,487.424,c),
(25.6,437.248,l),
(25.6,138.24,o),
(270.336,-15.36,o),
(546.816,-15.36,cs)
);
}
);
width = 1188;
},
{
layerId = "57FF79F6-5737-48C1-BD5F-8B84E303409D";
shapes = (
{
closed = 1;
nodes = (
(806.912,-16.384,o),
(1090.56,139.264,o),
(1090.56,442.368,cs),
(1090.56,868.352,o),
(530.432,852.992,o),
(530.432,1082.368,cs),
(530.432,1193.984,o),
(638.976,1248.256,o),
(738.304,1248.256,cs),
(837.632,1248.256,o),
(935.936,1196.032,o),
(966.656,1096.704,c),
(1190.912,1204.224,l),
(1122.304,1390.592,o),
(926.72,1468.416,o),
(740.352,1468.416,cs),
(499.712,1468.416,o),
(264.192,1334.272,o),
(264.192,1069.056,cs),
(264.192,663.552,o),
(824.32,714.752,o),
(824.32,432.128,cs),
(824.32,281.6,o),
(696.32,224.256,o),
(564.224,224.256,cs),
(409.6,224.256,o),
(291.84,297.984,o),
(291.84,463.872,c),
(25.6,419.84,l),
(25.6,129.024,o),
(267.264,-16.384,o),
(534.528,-16.384,cs)
);
}
);
width = 1164;
},
{
layerId = "730F33E1-68ED-45B5-8902-551965799117";
shapes = (
{
closed = 1;
nodes = (
(768.512,-16.384,o),
(1026.048,159.232,o),
(1026.048,443.136,cs),
(1026.048,843.008,o),
(480.512,785.408,o),
(480.512,1067.008,cs),
(480.512,1223.936,o),
(629.76,1320.448,o),
(774.4,1320.448,cs),
(879.872,1320.448,o),
(972.032,1266.688,o),
(1007.36,1164.288,c),
(1148.672,1234.176,l),
(1090.816,1393.664,o),
(940.544,1468.416,o),
(777.984,1468.416,cs),
(537.344,1468.416,o),
(309.504,1301.248,o),
(309.504,1046.784,cs),
(309.504,668.16,o),
(855.04,728.576,o),
(855.04,420.608,cs),
(855.04,230.144,o),
(684.8,140.544,o),
(514.304,140.544,cs),
(339.712,140.544,o),
(222.72,235.776,o),
(222.72,411.648,c),
(54.784,379.904,l),
(54.784,119.808,o),
(261.888,-16.384,o),
(503.808,-16.384,cs)
);
}
);
width = 1148;
},
{
layerId = "67A62FEC-841D-491B-BA5E-8BAEF7B2DF33";
shapes = (
{
closed = 1;
nodes = (
(755.712,-16.384,o),
(1004.544,165.888,o),
(1004.544,443.392,cs),
(1004.544,834.56,o),
(463.872,762.88,o),
(463.872,1061.888,cs),
(463.872,1233.92,o),
(626.688,1344.512,o),
(786.432,1344.512,cs),
(893.952,1344.512,o),
(984.064,1290.24,o),
(1020.928,1186.816,c),
(1134.592,1244.16,l),
(1080.32,1394.688,o),
(945.152,1468.416,o),
(790.528,1468.416,cs),
(549.888,1468.416,o),
(324.608,1290.24,o),
(324.608,1039.36,cs),
(324.608,669.696,o),
(865.28,733.184,o),
(865.28,416.768,cs),
(865.28,212.992,o),
(680.96,112.64,o),
(497.664,112.64,cs),
(316.416,112.64,o),
(199.68,215.04,o),
(199.68,394.24,c),
(64.512,366.592,l),
(64.512,116.736,o),
(260.096,-16.384,o),
(493.568,-16.384,cs)
);
}
);
width = 1142;
}
);
leftKerningGroup = B;
unicode = 83;
},
{
glyphname = T;
layers = (
{
layerId = "31A26675-4074-4365-ADEA-834199CB2297";
shapes = (
{
closed = 1;
nodes = (
(636,0,l),
(907,1179,l),
(1349,1179,l),
(1411,1448,l),
(236,1448,l),
(175,1179,l),
(618,1179,l),
(346,0,l)
);
}
);
width = 1213;
},
{
layerId = "57FF79F6-5737-48C1-BD5F-8B84E303409D";
shapes = (
{
closed = 1;
nodes = (
(618,0,l),
(897,1209,l),
(1351,1209,l),
(1405,1448,l),
(239,1448,l),
(184,1209,l),
(638,1209,l),
(358,0,l)
);
}
);
width = 1208;
},
{
layerId = "730F33E1-68ED-45B5-8902-551965799117";
shapes = (
{
closed = 1;
nodes = (
(531.75,0,l),
(832.5,1299.75,l),
(1318,1299.75,l),
(1351,1448,l),
(208.25,1448,l),
(175,1299.75,l),
(661.25,1299.75,l),
(360.25,0,l)
);
}
);
width = 1124;
},
{
layerId = "67A62FEC-841D-491B-BA5E-8BAEF7B2DF33";
shapes = (
{
closed = 1;
nodes = (
(503,0,l),
(811,1330,l),
(1307,1330,l),
(1333,1448,l),
(198,1448,l),
(172,1330,l),
(669,1330,l),
(361,0,l)
);
}
);
width = 1096;
}
);
leftKerningGroup = T2;
rightKerningGroup = T;
unicode = 84;
},
{
glyphname = U;
layers = (
{
anchors = (
{
name = top;
position = "{960, 1620}";
},
{
name = ogonek;
position = "{686, 0}";
},
{
name = pos;
position = "{1782, 1448}";
},
{
name = bottom;
position = "{587, -120}";
}
);
guides = (
{
angle = 90;
position = "{960, 0}";
}
);
layerId = "31A26675-4074-4365-ADEA-834199CB2297";
shapes = (
{
closed = 1;
nodes = (
(1004.544,-20.48,o),
(1206.272,198.656,o),
(1293.312,573.44,cs),
(1495.04,1446.912,l),
(1205.248,1446.912,l),
(1010.688,610.304,ls),
(960.512,393.216,o),
(883.712,261.12,o),
(640,261.12,cs),
(522.24,261.12,o),
(427.008,286.72,o),
(427.008,424.96,cs),
(427.008,479.232,o),
(437.248,533.504,o),
(449.536,586.752,cs),
(647.168,1446.912,l),
(356.352,1446.912,l),
(158.72,585.728,ls),
(143.36,519.168,o),
(133.12,451.584,o),
(133.12,381.952,cs),
(133.12,82.944,o),
(330.752,-20.48,o),
(603.136,-20.48,cs)
);
}
);
width = 1420;
},
{
anchors = (
{
name = top;
position = "{878, 1620}";
},
{
name = ogonek;
position = "{691, 0}";
},
{
name = pos;
position = "{1740, 1447}";
},
{
name = bottom;
position = "{581, -120}";
}
);
guides = (
{
angle = 90;
position = "{878, 0}";
}
);
layerId = "57FF79F6-5737-48C1-BD5F-8B84E303409D";
shapes = (
{
closed = 1;
nodes = (
(957.44,-20.48,o),
(1182.72,174.08,o),
(1272.832,564.224,cs),
(1476.608,1446.912,l),
(1216.512,1446.912,l),
(1020.928,604.16,ls),
(968.704,380.928,o),
(878.592,230.4,o),
(628.736,230.4,cs),
(477.184,230.4,o),
(406.528,283.648,o),
(406.528,414.72,cs),
(406.528,460.8,o),
(414.72,516.096,o),
(430.08,582.656,cs),
(628.736,1446.912,l),
(368.64,1446.912,l),
(167.936,574.464,ls),
(151.552,504.832,o),
(143.36,439.296,o),
(143.36,378.88,cs),
(143.36,136.192,o),
(280.576,-20.48,o),
(598.016,-20.48,cs)
);
}
);
width = 1413;
},
{
anchors = (
{
name = top;
position = "{871, 1620}";
},
{
name = ogonek;
position = "{669, 0}";
},
{
name = pos;
position = "{1673, 1447}";
},
{
name = bottom;
position = "{554, -120}";
}
);
guides = (
{
angle = 90;
position = "{960, 0}";
}
);
layerId = "730F33E1-68ED-45B5-8902-551965799117";
shapes = (
{
closed = 1;
nodes = (
(939.008,-20.48,o),
(1142.016,226.304,o),
(1219.072,561.152,cs),
(1422.848,1446.912,l),
(1252.608,1446.912,l),
(1053.184,584.96,ls),
(997.12,341.76,o),
(879.36,139.776,o),
(598.016,139.776,cs),
(425.728,139.776,o),
(346.624,216.832,o),
(346.624,384,cs),
(346.624,451.584,o),
(380.16,608.256,o),
(407.04,723.2,cs),
(574.208,1446.912,l),
(403.968,1446.912,l),
(233.984,713.472,ls),
(206.848,597.76,o),
(174.08,439.296,o),
(174.08,368.128,cs),
(174.08,118.528,o),
(319.744,-20.48,o),
(584.96,-20.48,cs)
);
}
);
width = 1393;
},
{
anchors = (
{
name = top;
position = "{869, 1620}";
},
{
name = ogonek;
position = "{661, 0}";
},
{
name = pos;
position = "{1650, 1447}";
},
{
name = bottom;
position = "{545, -120}";
}
);
guides = (
{
angle = 90;
position = "{869, 0}";
}
);
layerId = "67A62FEC-841D-491B-BA5E-8BAEF7B2DF33";
shapes = (
{
closed = 1;
nodes = (
(932.864,-20.48,o),
(1128.448,243.712,o),
(1201.152,560.128,cs),
(1404.928,1446.912,l),
(1264.64,1446.912,l),
(1063.936,578.56,ls),
(1006.592,328.704,o),
(879.616,109.568,o),
(587.776,109.568,cs),
(408.576,109.568,o),
(326.656,194.56,o),
(326.656,373.76,cs),
(326.656,448.512,o),
(368.64,638.976,o),
(399.36,770.048,cs),
(556.032,1446.912,l),
(415.744,1446.912,l),
(256,759.808,ls),
(225.28,628.736,o),
(184.32,439.296,o),
(184.32,364.544,cs),
(184.32,112.64,o),
(332.8,-20.48,o),
(580.608,-20.48,cs)
);
}
);
width = 1386;
}
);
leftKerningGroup = B;
unicode = 85;
},
{
glyphname = V;
layers = (
{
layerId = "31A26675-4074-4365-ADEA-834199CB2297";
shapes = (
{
closed = 1;
nodes = (
(680.96,0,l),
(1601.536,1447.912,l),
(1275.904,1447.912,l),
(680.96,486.4,l),
(532.48,1447.912,l),
(211.968,1447.912,l),
(468.992,0,l)
);
}
);
width = 1396;
},
{
layerId = "57FF79F6-5737-48C1-BD5F-8B84E303409D";
shapes = (
{
closed = 1;
nodes = (
(670.72,0,l),
(1581.056,1447.912,l),
(1292.288,1447.912,l),
(664.576,421.888,l),
(514.048,1447.912,l),
(230.4,1447.912,l),
(476.16,0,l)
);
}
);
width = 1375;
},
{
layerId = "730F33E1-68ED-45B5-8902-551965799117";
shapes = (
{
closed = 1;
nodes = (
(620.032,0,l),
(1498.88,1447.912,l),
(1316.864,1447.912,l),
(598.528,234.496,l),
(441.856,1447.912,l),
(261.888,1447.912,l),
(476.16,0,l)
);
}
);
width = 1330;
},
{
layerId = "67A62FEC-841D-491B-BA5E-8BAEF7B2DF33";
shapes = (
{
closed = 1;
nodes = (
(603.136,0,l),
(1471.488,1447.912,l),
(1325.056,1447.912,l),
(576.512,172.032,l),
(417.792,1447.912,l),
(272.384,1447.912,l),
(476.16,0,l)
);
}
);
width = 1315;
}
);
leftKerningGroup = T2;
rightKerningGroup = V;
unicode = 86;
},
{
glyphname = W;
layers = (
{
layerId = "31A26675-4074-4365-ADEA-834199CB2297";
shapes = (
{
closed = 1;
nodes = (
(1440.768,0,l),
(2216.96,1446.912,l),
(1914.88,1446.912,l),
(1384.448,439.296,l),
(1308.672,1446.912,l),
(1085.44,1446.912,l),
(544.768,439.296,l),
(479.232,1446.912,l),
(177.152,1446.912,l),
(285.696,0,l),
(559.104,0,l),
(1089.536,989.184,l),
(1167.36,0,l)
);
}
);
width = 2060;
},
{
layerId = "57FF79F6-5737-48C1-BD5F-8B84E303409D";
shapes = (
{
closed = 1;
nodes = (
(1424.384,0,l),
(2192.384,1446.912,l),
(1922.048,1446.912,l),
(1368.064,381.952,l),
(1293.312,1446.912,l),
(1091.584,1446.912,l),
(525.312,381.952,l),
(462.848,1446.912,l),
(192.512,1446.912,l),
(292.864,0,l),
(543.744,0,l),
(1097.728,1036.288,l),
(1173.504,0,l)
);
}
);
width = 2051;
},
{
layerId = "730F33E1-68ED-45B5-8902-551965799117";
shapes = (
{
closed = 1;
nodes = (
(1377.536,0,l),
(2121.728,1446.912,l),
(1946.624,1446.912,l),
(1322.752,215.296,l),
(1248,1446.912,l),
(1112.32,1446.912,l),
(470.784,215.296,l),
(412.928,1446.912,l),
(239.36,1446.912,l),
(314.368,0,l),
(502.272,0,l),
(1117.696,1171.456,l),
(1190.4,0,l)
);
}
);
width = 2026;
},
{
layerId = "67A62FEC-841D-491B-BA5E-8BAEF7B2DF33";
shapes = (
{
closed = 1;
nodes = (
(1361.92,0,l),
(2098.176,1446.912,l),
(1954.816,1446.912,l),
(1307.648,159.744,l),
(1232.896,1446.912,l),
(1119.232,1446.912,l),
(452.608,159.744,l),
(396.288,1446.912,l),
(254.976,1446.912,l),
(321.536,0,l),
(488.448,0,l),
(1124.352,1216.512,l),
(1196.032,0,l)
);
}
);
width = 2018;
}
);
leftKerningGroup = W2;
rightKerningGroup = W;
unicode = 87;
},
{
glyphname = X;
layers = (
{
layerId = "31A26675-4074-4365-ADEA-834199CB2297";
shapes = (
{
closed = 1;
nodes = (
(1268.736,0,l),
(952.32,723.968,l),
(1606.656,1446.912,l),
(1255.424,1446.912,l),
(784.384,902.144,l),
(571.392,1446.912,l),
(229.376,1446.912,l),
(542.72,723.968,l),
(-113.664,0,l),
(239.616,0,l),
(709.632,537.6,l),
(926.72,0,l)
);
}
);
width = 1399;
},
{
layerId = "57FF79F6-5737-48C1-BD5F-8B84E303409D";
shapes = (
{
closed = 1;
nodes = (
(1228.8,0,l),
(914.432,723.968,l),
(1566.72,1446.912,l),
(1252.352,1446.912,l),
(770.048,888.832,l),
(551.936,1446.912,l),
(245.76,1446.912,l),
(558.08,723.968,l),
(-96.256,0,l),
(220.16,0,l),
(700.416,549.888,l),
(924.672,0,l)
);
}
);
width = 1375;
},
{
layerId = "730F33E1-68ED-45B5-8902-551965799117";
shapes = (
{
closed = 1;
nodes = (
(1076.85,0,l),
(767.858,723.968,l),
(1412.466,1446.912,l),
(1210.226,1446.912,l),
(692.594,848.896,l),
(456.818,1446.912,l),
(258.93,1446.912,l),
(566.642,723.968,l),
(-80.782,0,l),
(125.042,0,l),
(639.09,587.52,l),
(882.546,0,l)
);
}
);
width = 1245;
},
{
layerId = "67A62FEC-841D-491B-BA5E-8BAEF7B2DF33";
shapes = (
{
closed = 1;
nodes = (
(1026.2,0,l),
(719,723.968,l),
(1361.048,1446.912,l),
(1196.184,1446.912,l),
(666.776,835.584,l),
(425.112,1446.912,l),
(263.32,1446.912,l),
(569.496,723.968,l),
(-75.624,0,l),
(93.336,0,l),
(618.648,600.064,l),
(868.504,0,l)
);
}
);
width = 1202;
}
);
leftKerningGroup = B;
unicode = 88;
},
{
glyphname = Y;
layers = (
{
layerId = "31A26675-4074-4365-ADEA-834199CB2297";
shapes = (
{
closed = 1;
nodes = (
(752.64,0,l),
(884.736,563.2,l),
(1687.552,1446.912,l),
(1339.392,1446.912,l),
(789.504,818.176,l),
(533.504,1446.912,l),
(194.56,1446.912,l),
(592.896,563.2,l),
(460.8,0,l)
);
}
);
width = 1446;
},
{
layerId = "57FF79F6-5737-48C1-BD5F-8B84E303409D";
shapes = (
{
closed = 1;
nodes = (
(728.064,0,l),
(860.16,564.224,l),
(1650.688,1446.912,l),
(1340.416,1446.912,l),
(776.192,796.672,l),
(516.096,1446.912,l),
(214.016,1446.912,l),
(600.064,564.224,l),
(467.968,0,l)
);
}
);
width = 1428;
},
{
layerId = "730F33E1-68ED-45B5-8902-551965799117";
shapes = (
{
closed = 1;
nodes = (
(656.64,0,l),
(788.736,565.76,l),
(1543.936,1446.912,l),
(1344.256,1446.912,l),
(737.024,732.16,l),
(465.408,1446.912,l),
(271.616,1446.912,l),
(622.336,565.76,l),
(491.008,0,l)
);
}
);
width = 1379;
},
{
layerId = "67A62FEC-841D-491B-BA5E-8BAEF7B2DF33";
shapes = (
{
closed = 1;
nodes = (
(632.832,0,l),
(764.928,566.272,l),
(1508.352,1446.912,l),
(1345.536,1446.912,l),
(723.968,710.656,l),
(448.512,1446.912,l),
(290.816,1446.912,l),
(629.76,566.272,l),
(498.688,0,l)
);
}
);
width = 1363;
}
);
leftKerningGroup = T2;
rightKerningGroup = T;
unicode = 89;
},
{
glyphname = Z;
layers = (
{
layerId = "31A26675-4074-4365-ADEA-834199CB2297";
shapes = (
{
closed = 1;
nodes = (
(1114.112,0,l),
(1176.576,269.12,l),
(406.528,269.12,l),
(1401.856,1242.088,l),
(1448.96,1447.912,l),
(312.32,1447.912,l),
(250.88,1178.6,l),
(975.872,1178.6,l),
(-25.6,204.608,l),
(-66.56,0,l)
);
}
);
width = 1298;
},
{
layerId = "57FF79F6-5737-48C1-BD5F-8B84E303409D";
shapes = (
{
closed = 1;
nodes = (
(1108.992,0,l),
(1164.288,239.496,l),
(362.496,239.496,l),
(1400.832,1259.496,l),
(1442.816,1447.912,l),
(322.56,1447.912,l),
(268.288,1209.32,l),
(1025.024,1209.32,l),
(-18.432,185.224,l),
(-56.32,0,l)
);
}
);
width = 1303;
},
{
layerId = "730F33E1-68ED-45B5-8902-551965799117";
shapes = (
{
closed = 1;
nodes = (
(1092.864,0,l),
(1129.728,148.356,l),
(232.704,148.356,l),
(1396.992,1310.184,l),
(1426.688,1447.912,l),
(354.048,1447.912,l),
(319.744,1299.944,l),
(1172.48,1299.944,l),
(1.536,124.804,l),
(-24.832,0,l)
);
}
);
width = 1315;
},
{
layerId = "67A62FEC-841D-491B-BA5E-8BAEF7B2DF33";
shapes = (
{
closed = 1;
nodes = (
(1087.488,0,l),
(1118.208,117.976,l),
(189.44,117.976,l),
(1395.712,1327.08,l),
(1421.312,1447.912,l),
(364.544,1447.912,l),
(336.896,1330.152,l),
(1221.632,1330.152,l),
(8.192,104.664,l),
(-14.336,0,l)
);
}
);
width = 1319;
}
);
leftKerningGroup = B;
unicode = 90;
},
{
glyphname = bracketleft;
layers = (
{
layerId = "31A26675-4074-4365-ADEA-834199CB2297";
shapes = (
{
closed = 1;
nodes = (
(473.088,-190.464,l),
(518.144,0,l),
(276.48,0,l),
(610.304,1443.84,l),
(850.944,1443.84,l),
(893.952,1632.256,l),
(429.056,1632.256,l),
(8.192,-190.464,l)
);
}
);
width = 656;
},
{
layerId = "57FF79F6-5737-48C1-BD5F-8B84E303409D";
shapes = (
{
closed = 1;
nodes = (
(465.92,-167.936,l),
(505.856,0,l),
(264.192,0,l),
(598.016,1444.864,l),
(838.656,1444.864,l),
(876.544,1610.752,l),
(434.176,1610.752,l),
(23.552,-167.936,l)
);
}
);
width = 656;
},
{
layerId = "730F33E1-68ED-45B5-8902-551965799117";
shapes = (
{
closed = 1;
nodes = (
(444.416,-102.656,l),
(468.224,-2.304,l),
(226.56,-2.304,l),
(561.152,1448.704,l),
(802.56,1448.704,l),
(824.32,1547.008,l),
(448.768,1547.008,l),
(68.096,-102.656,l)
);
}
);
width = 657;
},
{
layerId = "67A62FEC-841D-491B-BA5E-8BAEF7B2DF33";
shapes = (
{
closed = 1;
nodes = (
(437.248,-80.896,l),
(455.68,-3.072,l),
(214.016,-3.072,l),
(548.864,1449.984,l),
(790.528,1449.984,l),
(806.912,1525.76,l),
(453.632,1525.76,l),
(82.944,-80.896,l)
);
}
);
width = 657;
}
);
leftKerningGroup = B;
unicode = 91;
},
{
glyphname = backslash;
layers = (
{
layerId = "31A26675-4074-4365-ADEA-834199CB2297";
shapes = (
{
closed = 1;
nodes = (
(787.456,-440.32,l),
(438.272,1552.384,l),
(189.44,1552.384,l),
(534.528,-440.32,l)
);
}
);
width = 955;
},
{
layerId = "57FF79F6-5737-48C1-BD5F-8B84E303409D";
shapes = (
{
closed = 1;
nodes = (
(772.096,-440.32,l),
(432.128,1552.384,l),
(205.824,1552.384,l),
(542.72,-440.32,l)
);
}
);
width = 956;
},
{
layerId = "730F33E1-68ED-45B5-8902-551965799117";
shapes = (
{
closed = 1;
nodes = (
(725.248,-441.088,l),
(412.928,1552.384,l),
(253.44,1552.384,l),
(568.832,-441.088,l)
);
}
);
width = 960;
},
{
layerId = "67A62FEC-841D-491B-BA5E-8BAEF7B2DF33";
shapes = (
{
closed = 1;
nodes = (
(709.632,-441.344,l),
(406.528,1552.384,l),
(269.312,1552.384,l),
(577.536,-441.344,l)
);
}
);
width = 961;
}
);
leftKerningGroup = B;
unicode = 92;
},
{
glyphname = bracketright;
layers = (
{
layerId = "31A26675-4074-4365-ADEA-834199CB2297";
shapes = (
{
closed = 1;
nodes = (
(322.56,-190.464,l),
(745.472,1632.256,l),
(280.576,1632.256,l),
(237.568,1443.84,l),
(478.208,1443.84,l),
(145.408,0,l),
(-96.256,0,l),
(-142.336,-190.464,l)
);
}
);
width = 656;
},
{
layerId = "57FF79F6-5737-48C1-BD5F-8B84E303409D";
shapes = (
{
closed = 1;
nodes = (
(318.464,-167.936,l),
(730.112,1610.752,l),
(287.744,1610.752,l),
(249.856,1444.864,l),
(490.496,1444.864,l),
(157.696,0,l),
(-83.968,0,l),
(-123.904,-167.936,l)
);
}
);
width = 656;
},
{
layerId = "730F33E1-68ED-45B5-8902-551965799117";
shapes = (
{
closed = 1;
nodes = (
(304.64,-102.656,l),
(684.8,1547.008,l),
(310.016,1547.008,l),
(287.488,1448.704,l),
(528.896,1448.704,l),
(194.56,-2.304,l),
(-47.104,-2.304,l),
(-70.912,-102.656,l)
);
}
);
width = 657;
},
{
layerId = "67A62FEC-841D-491B-BA5E-8BAEF7B2DF33";
shapes = (
{
closed = 1;
nodes = (
(300.032,-80.896,l),
(669.696,1525.76,l),
(317.44,1525.76,l),
(300.032,1449.984,l),
(541.696,1449.984,l),
(206.848,-3.072,l),
(-34.816,-3.072,l),
(-53.248,-80.896,l)
);
}
);
width = 657;
}
);
leftKerningGroup = B;
unicode = 93;
},
{
glyphname = asciicircum;
layers = (
{
layerId = "31A26675-4074-4365-ADEA-834199CB2297";
shapes = (
{
closed = 1;
nodes = (
(1025.024,813.056,l),
(736.256,1554.432,l),
(110.592,813.056,l),
(391.168,813.056,l),
(645.12,1111.04,l),
(758.784,813.056,l)
);
}
);
width = 1004;
},
{
layerId = "57FF79F6-5737-48C1-BD5F-8B84E303409D";
shapes = (
{
closed = 1;
nodes = (
(1008.64,824.32,l),
(732.16,1532.928,l),
(134.144,824.32,l),
(388.096,824.32,l),
(650.24,1132.544,l),
(768,824.32,l)
);
}
);
width = 1005;
},
{
layerId = "730F33E1-68ED-45B5-8902-551965799117";
shapes = (
{
closed = 1;
nodes = (
(960.256,857.344,l),
(719.872,1467.648,l),
(204.8,857.344,l),
(376.576,857.344,l),
(665.6,1197.056,l),
(796.416,857.344,l)
);
}
);
width = 1009;
},
{
layerId = "67A62FEC-841D-491B-BA5E-8BAEF7B2DF33";
shapes = (
{
closed = 1;
nodes = (
(944.128,868.352,l),
(715.776,1445.888,l),
(228.352,868.352,l),
(372.736,868.352,l),
(670.72,1218.56,l),
(805.888,868.352,l)
);
}
);
width = 1010;
}
);
leftKerningGroup = B;
unicode = 94;
},
{
glyphname = underscore;
layers = (
{
layerId = "31A26675-4074-4365-ADEA-834199CB2297";
shapes = (
{
closed = 1;
nodes = (
(919.552,-210.944,l),
(968.704,0,l),
(75.776,0,l),
(26.624,-210.944,l)
);
}
);
width = 1278;
},
{
layerId = "57FF79F6-5737-48C1-BD5F-8B84E303409D";
shapes = (
{
closed = 1;
nodes = (
(912.384,-188.416,l),
(956.416,0,l),
(86.016,0,l),
(41.984,-188.416,l)
);
}
);
width = 1277;
},
{
layerId = "730F33E1-68ED-45B5-8902-551965799117";
shapes = (
{
closed = 1;
nodes = (
(893.184,-123.904,l),
(921.088,-2.304,l),
(117.504,-2.304,l),
(88.832,-123.904,l)
);
}
);
width = 1275;
},
{
layerId = "67A62FEC-841D-491B-BA5E-8BAEF7B2DF33";
shapes = (
{
closed = 1;
nodes = (
(886.784,-102.4,l),
(909.312,-3.072,l),
(128,-3.072,l),
(104.448,-102.4,l)
);
}
);
width = 1274;
}
);
leftKerningGroup = B;
unicode = 95;
},
{
glyphname = grave;
layers = (
{
layerId = "31A26675-4074-4365-ADEA-834199CB2297";
shapes = (
{
closed = 1;
nodes = (
(680.96,1191.936,l),
(528.384,1508.352,l),
(244.736,1508.352,l),
(494.592,1191.936,l)
);
}
);
width = 543;
},
{
layerId = "57FF79F6-5737-48C1-BD5F-8B84E303409D";
shapes = (
{
closed = 1;
nodes = (
(651.264,1191.936,l),
(490.496,1508.352,l),
(228.352,1508.352,l),
(473.088,1191.936,l)
);
}
);
width = 545;
},
{
layerId = "730F33E1-68ED-45B5-8902-551965799117";
shapes = (
{
closed = 1;
nodes = (
(618.24,1191.936,l),
(460.544,1492.224,l),
(268.288,1492.224,l),
(481.536,1191.936,l)
);
}
);
width = 551;
},
{
layerId = "67A62FEC-841D-491B-BA5E-8BAEF7B2DF33";
shapes = (
{
closed = 1;
nodes = (
(607.232,1191.936,l),
(450.56,1486.848,l),
(281.6,1486.848,l),
(484.352,1191.936,l)
);
}
);
width = 553;
}
);
leftKerningGroup = B;
unicode = 96;
},
{
glyphname = a;
leftMetricsKey = o;
rightMetricsKey = "|n";
layers = (
{
anchors = (
{
name = top;
position = "{641, 1192}";
},
{
name = ogonek;
position = "{971, 0}";
},
{
name = bottom;
position = "{438, -120}";
}
);
guides = (
{
angle = 90;
position = "{641, 0}";
}
);
layerId = "31A26675-4074-4365-ADEA-834199CB2297";
shapes = (
{
closed = 1;
nodes = (
(520.336,-20.48,o),
(625.808,11.264,o),
(711.824,93.184,c),
(702.608,0,l),
(970.896,0,l),
(1215.632,1063.936,l),
(919.696,1063.936,l),
(891.024,963.584,l),
(831.632,1049.6,o),
(721.04,1085.44,o),
(619.664,1085.44,cs),
(267.408,1085.44,o),
(32.912,712.704,o),
(32.912,386.048,cs),
(32.912,152.576,o),
(160.912,-20.48,o),
(401.552,-20.48,cs)
);
},
{
closed = 1;
nodes = (
(387.216,238.592,o),
(316.56,292.864,o),
(316.56,412.672,cs),
(316.56,606.208,o),
(445.584,832.512,o),
(659.6,832.512,cs),
(775.312,832.512,o),
(838.8,777.216,o),
(838.8,655.36,cs),
(838.8,456.704,o),
(717.968,238.592,o),
(497.808,238.592,cs)
);
}
);
width = 1229;
},
{
anchors = (
{
name = top;
position = "{644, 1192}";
},
{
name = ogonek;
position = "{954, 0}";
},
{
name = bottom;
position = "{422, -120}";
}
);
guides = (
{
angle = 90;
position = "{644, 0}";
}
);
layerId = "57FF79F6-5737-48C1-BD5F-8B84E303409D";
shapes = (
{
closed = 1;
nodes = (
(535.624,-20.48,o),
(643.144,20.48,o),
(727.112,102.4,c),
(712.776,0,l),
(954.44,0,l),
(1200.2,1063.936,l),
(936.008,1063.936,l),
(905.288,951.296,l),
(846.92,1048.576,o),
(735.304,1084.416,o),
(626.76,1084.416,cs),
(270.408,1084.416,o),
(48.2,701.44,o),
(48.2,379.904,cs),
(48.2,149.504,o),
(165.96,-20.48,o),
(405.576,-20.48,cs)
);
},
{
closed = 1;
nodes = (
(366.664,209.92,o),
(301.128,279.552,o),
(301.128,402.432,cs),
(301.128,608.256,o),
(436.296,858.112,o),
(665.672,858.112,cs),
(797.768,858.112,o),
(854.088,779.264,o),
(854.088,663.552,cs),
(854.088,455.68,o),
(725.064,209.92,o),
(490.568,209.92,cs)
);
}
);
width = 1203;
},
{
anchors = (
{
name = top;
position = "{637, 1192}";
},
{
name = ogonek;
position = "{893, 0}";
},
{
name = bottom;
position = "{409, -120}";
}
);
guides = (
{
angle = 90;
position = "{641, 0}";
}
);
layerId = "730F33E1-68ED-45B5-8902-551965799117";
shapes = (
{
closed = 1;
nodes = (
(541.162,-20.48,o),
(667.114,35.84,o),
(758.762,132.352,c),
(732.138,0,l),
(892.394,0,l),
(1136.618,1063.936,l),
(969.962,1063.936,l),
(933.098,916.736,l),
(872.426,1037.056,o),
(763.882,1084.416,o),
(633.066,1084.416,cs),
(283.626,1084.416,o),
(74.474,670.72,o),
(74.474,363.776,cs),
(74.474,151.04,o),
(175.338,-20.48,o),
(404.97,-20.48,cs)
);
},
{
closed = 1;
nodes = (
(300.778,125.44,o),
(236.778,227.328,o),
(236.778,370.944,cs),
(236.778,612.096,o),
(388.074,937.216,o),
(665.066,937.216,cs),
(820.202,937.216,o),
(882.666,836.096,o),
(882.666,694.272,cs),
(882.666,451.84,o),
(735.21,125.44,o),
(454.634,125.44,cs)
);
}
);
width = 1174;
},
{
anchors = (
{
name = top;
position = "{635, 1192}";
},
{
name = ogonek;
position = "{872, 0}";
},
{
name = bottom;
position = "{405, -120}";
}
);
guides = (
{
angle = 90;
position = "{635, 0}";
}
);
layerId = "67A62FEC-841D-491B-BA5E-8BAEF7B2DF33";
shapes = (
{
closed = 1;
nodes = (
(543.008,-20.48,o),
(675.104,40.96,o),
(769.312,142.336,c),
(738.592,0,l),
(871.712,0,l),
(1115.424,1063.936,l),
(981.28,1063.936,l),
(942.368,905.216,l),
(880.928,1033.216,o),
(773.408,1084.416,o),
(635.168,1084.416,cs),
(288.032,1084.416,o),
(83.232,660.48,o),
(83.232,358.4,cs),
(83.232,151.552,o),
(178.464,-20.48,o),
(404.768,-20.48,cs)
);
},
{
closed = 1;
nodes = (
(278.816,97.28,o),
(215.328,209.92,o),
(215.328,360.448,cs),
(215.328,613.376,o),
(372,963.584,o),
(664.864,963.584,cs),
(827.68,963.584,o),
(892.192,855.04,o),
(892.192,704.512,cs),
(892.192,450.56,o),
(738.592,97.28,o),
(442.656,97.28,cs)
);
}
);
width = 1165;
}
);
leftKerningGroup = a;
unicode = 97;
},
{
glyphname = b;
rightMetricsKey = o;
layers = (
{
layerId = "63E1918D-1FC0-440A-8F20-CB7E9D337C03";
name = "#instance";
shapes = (
{
closed = 1;
nodes = (
(899.072,-20.48,o),
(1099.776,406.528,o),
(1099.776,706.56,cs),
(1099.776,914.432,o),
(1004.544,1087.488,o),
(776.192,1087.488,cs),
(627.712,1087.488,o),
(507.904,1021.952,o),
(408.576,914.432,c),
(548.864,1446.912,l),
(415.744,1446.912,l),
(68.608,0,l),
(201.728,0,l),
(240.64,159.744,l),
(297.984,24.576,o),
(411.648,-20.48,o),
(550.912,-20.48,cs)
);
},
{
closed = 1;
nodes = (
(350.208,91.136,o),
(288.768,206.848,o),
(288.768,355.328,cs),
(288.768,608.256,o),
(444.416,973.824,o),
(740.352,973.824,cs),
(907.264,973.824,o),
(969.728,847.872,o),
(969.728,697.344,cs),
(969.728,442.368,o),
(808.96,91.136,o),
(514.048,91.136,cs)
);
}
);
width = 1174;
},
{
layerId = "31A26675-4074-4365-ADEA-834199CB2297";
shapes = (
{
closed = 1;
nodes = (
(987.136,-20.48,o),
(1213.44,347.136,o),
(1213.44,676.864,cs),
(1213.44,913.408,o),
(1093.632,1084.416,o),
(847.872,1084.416,cs),
(736.256,1084.416,o),
(632.832,1055.744,o),
(549.888,982.016,c),
(674.816,1443.84,l),
(372.736,1443.84,l),
(26.624,0,l),
(329.728,0,l),
(356.352,100.352,l),
(416.768,13.312,o),
(527.36,-20.48,o),
(629.76,-20.48,cs)
);
},
{
closed = 1;
nodes = (
(478.208,239.616,o),
(408.576,293.888,o),
(408.576,416.768,cs),
(408.576,620.544,o),
(537.6,829.44,o),
(753.664,829.44,cs),
(865.28,829.44,o),
(933.888,774.144,o),
(933.888,654.336,cs),
(933.888,458.752,o),
(808.96,239.616,o),
(591.872,239.616,cs)
);
}
);
width = 1238;
},
{
layerId = "57FF79F6-5737-48C1-BD5F-8B84E303409D";
shapes = (
{
closed = 1;
nodes = (
(970.752,-20.48,o),
(1189.888,359.424,o),
(1189.888,683.008,cs),
(1189.888,915.456,o),
(1073.152,1085.44,o),
(832.512,1085.44,cs),
(708.608,1085.44,o),
(605.184,1046.528,o),
(521.216,969.728,c),
(649.216,1444.864,l),
(380.928,1444.864,l),
(34.816,0,l),
(303.104,0,l),
(333.824,111.616,l),
(391.168,17.408,o),
(506.88,-20.48,o),
(612.352,-20.48,cs)
);
},
{
closed = 1;
nodes = (
(451.584,209.92,o),
(384,279.552,o),
(384,404.48,cs),
(384,610.304,o),
(523.264,859.136,o),
(750.592,859.136,cs),
(878.592,859.136,o),
(940.032,788.48,o),
(940.032,663.552,cs),
(940.032,456.704,o),
(807.936,209.92,o),
(576.512,209.92,cs)
);
}
);
width = 1229;
},
{
layerId = "730F33E1-68ED-45B5-8902-551965799117";
shapes = (
{
closed = 1;
nodes = (
(916.992,-20.48,o),
(1122.304,394.752,o),
(1122.304,700.672,cs),
(1122.304,914.688,o),
(1021.696,1086.976,o),
(790.272,1086.976,cs),
(647.936,1086.976,o),
(532.224,1028.096,o),
(436.736,928.256,c),
(573.952,1446.4,l),
(407.04,1446.4,l),
(60.16,0,l),
(227.072,0,l),
(263.936,147.712,l),
(321.28,22.784,o),
(435.456,-20.48,o),
(566.272,-20.48,cs)
);
},
{
closed = 1;
nodes = (
(375.552,120.832,o),
(312.576,225.024,o),
(312.576,367.616,cs),
(312.576,608.768,o),
(464.128,945.152,o),
(742.912,945.152,cs),
(900.096,945.152,o),
(962.304,833.024,o),
(962.304,688.896,cs),
(962.304,445.952,o),
(808.704,120.832,o),
(529.664,120.832,cs)
);
}
);
width = 1187;
},
{
layerId = "67A62FEC-841D-491B-BA5E-8BAEF7B2DF33";
shapes = (
{
closed = 1;
nodes = (
(899.072,-20.48,o),
(1099.776,406.528,o),
(1099.776,706.56,cs),
(1099.776,914.432,o),
(1004.544,1087.488,o),
(776.192,1087.488,cs),
(627.712,1087.488,o),
(507.904,1021.952,o),
(408.576,914.432,c),
(548.864,1446.912,l),
(415.744,1446.912,l),
(68.608,0,l),
(201.728,0,l),
(240.64,159.744,l),
(297.984,24.576,o),
(411.648,-20.48,o),
(550.912,-20.48,cs)
);
},
{
closed = 1;
nodes = (
(350.208,91.136,o),
(288.768,206.848,o),
(288.768,355.328,cs),
(288.768,608.256,o),
(444.416,973.824,o),
(740.352,973.824,cs),
(907.264,973.824,o),
(969.728,847.872,o),
(969.728,697.344,cs),
(969.728,442.368,o),
(808.96,91.136,o),
(514.048,91.136,cs)
);
}
);
width = 1174;
}
);
leftKerningGroup = B;
unicode = 98;
},
{
glyphname = c;
layers = (
{
anchors = (
{
name = top;
position = "{683, 1192}";
},
{
name = cedilla;
position = "{456, 0}";
}
);
guides = (
{
angle = 90;
position = "{683, 0}";
}
);
layerId = "31A26675-4074-4365-ADEA-834199CB2297";
shapes = (
{
closed = 1;
nodes = (
(685.056,-23.552,o),
(868.352,91.136,o),
(976.896,281.6,c),
(734.208,408.576,l),
(683.008,314.368,o),
(596.992,243.712,o),
(489.472,243.712,cs),
(382.976,243.712,o),
(314.368,296.96,o),
(314.368,411.648,cs),
(314.368,605.184,o),
(439.296,813.056,o),
(644.096,813.056,cs),
(729.088,813.056,o),
(795.648,759.808,o),
(795.648,672.768,c),
(1087.488,758.784,l),
(1047.552,962.56,o),
(891.904,1081.344,o),
(683.008,1081.344,cs),
(315.392,1081.344,o),
(34.816,762.88,o),
(34.816,399.36,cs),
(34.816,133.12,o),
(200.704,-23.552,o),
(461.824,-23.552,cs)
);
}
);
width = 1065;
},
{
anchors = (
{
name = top;
position = "{681, 1192}";
},
{
name = cedilla;
position = "{458, 0}";
}
);
guides = (
{
angle = 90;
position = "{681, 0}";
}
);
layerId = "57FF79F6-5737-48C1-BD5F-8B84E303409D";
shapes = (
{
closed = 1;
nodes = (
(674.816,-20.48,o),
(847.872,94.208,o),
(958.464,276.48,c),
(743.424,391.168,l),
(694.272,289.792,o),
(593.92,214.016,o),
(479.232,214.016,cs),
(357.376,214.016,o),
(295.936,282.624,o),
(295.936,402.432,cs),
(295.936,602.112,o),
(424.96,845.824,o),
(648.192,845.824,cs),
(745.472,845.824,o),
(808.96,797.696,o),
(814.08,691.2,c),
(1074.176,768,l),
(1035.264,952.32,o),
(900.096,1081.344,o),
(680.96,1081.344,cs),
(316.416,1081.344,o),
(47.104,749.568,o),
(47.104,396.288,cs),
(47.104,133.12,o),
(201.728,-20.48,o),
(457.728,-20.48,cs)
);
}
);
width = 1058;
},
{
anchors = (
{
name = top;
position = "{670, 1192}";
},
{
name = cedilla;
position = "{453, 0}";
}
);
guides = (
{
angle = 90;
position = "{683, 0}";
}
);
layerId = "730F33E1-68ED-45B5-8902-551965799117";
shapes = (
{
closed = 1;
nodes = (
(641.792,-20.48,o),
(804.864,88.064,o),
(902.4,254.208,c),
(770.304,328.192,l),
(712.704,212.992,o),
(589.312,124.928,o),
(457.728,124.928,cs),
(299.008,124.928,o),
(239.872,231.936,o),
(239.872,377.088,cs),
(239.872,609.024,o),
(382.72,934.144,o),
(651.264,934.144,cs),
(767.744,934.144,o),
(855.808,863.744,o),
(863.232,742.656,c),
(1027.328,800.256,l),
(986.112,977.664,o),
(858.624,1081.344,o),
(669.44,1081.344,cs),
(311.04,1081.344,o),
(78.592,706.56,o),
(78.592,378.624,cs),
(78.592,143.104,o),
(201.728,-20.48,o),
(446.208,-20.48,cs)
);
}
);
width = 1031;
},
{
anchors = (
{
name = top;
position = "{666, 1192}";
},
{
name = cedilla;
position = "{451, 0}";
}
);
guides = (
{
angle = 90;
position = "{666, 0}";
}
);
layerId = "67A62FEC-841D-491B-BA5E-8BAEF7B2DF33";
shapes = (
{
closed = 1;
nodes = (
(630.784,-20.48,o),
(790.528,86.016,o),
(883.712,246.784,c),
(779.264,307.2,l),
(718.848,187.392,o),
(587.776,95.232,o),
(450.56,95.232,cs),
(279.552,95.232,o),
(221.184,215.04,o),
(221.184,368.64,cs),
(221.184,611.328,o),
(368.64,963.584,o),
(652.288,963.584,cs),
(775.168,963.584,o),
(871.424,885.76,o),
(879.616,759.808,c),
(1011.712,811.008,l),
(969.728,986.112,o),
(844.8,1081.344,o),
(665.6,1081.344,cs),
(309.248,1081.344,o),
(89.088,692.224,o),
(89.088,372.736,cs),
(89.088,146.432,o),
(201.728,-20.48,o),
(442.368,-20.48,cs)
);
}
);
width = 1022;
}
);
leftKerningGroup = a;
unicode = 99;
},
{
glyphname = d;
leftMetricsKey = o;
layers = (
{
layerId = "31A26675-4074-4365-ADEA-834199CB2297";
shapes = (
{
closed = 1;
nodes = (
(519.312,-20.48,o),
(628.88,11.264,o),
(711.824,93.184,c),
(702.608,0,l),
(970.896,0,l),
(1318.032,1446.912,l),
(1012.096,1446.912,l),
(891.024,963.584,l),
(831.632,1049.6,o),
(722.064,1085.44,o),
(619.664,1085.44,cs),
(265.36,1085.44,o),
(32.912,713.728,o),
(32.912,386.048,cs),
(32.912,149.504,o),
(157.84,-20.48,o),
(401.552,-20.48,cs)
);
},
{
closed = 1;
nodes = (
(387.216,238.592,o),
(316.56,292.864,o),
(316.56,412.672,cs),
(316.56,606.208,o),
(445.584,832.512,o),
(659.6,832.512,cs),
(775.312,832.512,o),
(838.8,777.216,o),
(838.8,655.36,cs),
(838.8,456.704,o),
(717.968,238.592,o),
(497.808,238.592,cs)
);
}
);
width = 1243;
},
{
layerId = "57FF79F6-5737-48C1-BD5F-8B84E303409D";
shapes = (
{
closed = 1;
nodes = (
(535.624,-20.48,o),
(643.144,20.48,o),
(727.112,102.4,c),
(712.776,0,l),
(954.44,0,l),
(1297.6,1446.912,l),
(1033.408,1446.912,l),
(915.288,953.344,l),
(854.824,1050.624,o),
(739.201,1085.44,o),
(626.76,1085.44,cs),
(270.408,1085.44,o),
(48.2,701.44,o),
(48.2,379.904,cs),
(48.2,149.504,o),
(165.96,-20.48,o),
(405.576,-20.48,cs)
);
},
{
closed = 1;
nodes = (
(366.664,209.92,o),
(301.128,279.552,o),
(301.128,402.432,cs),
(301.128,608.256,o),
(436.296,859.136,o),
(665.672,859.136,cs),
(797.768,859.136,o),
(854.088,781.312,o),
(854.088,665.6,cs),
(854.088,457.728,o),
(725.064,209.92,o),
(490.568,209.92,cs)
);
}
);
width = 1234;
},
{
layerId = "730F33E1-68ED-45B5-8902-551965799117";
shapes = (
{
closed = 1;
nodes = (
(548.842,-20.48,o),
(663.274,29.696,o),
(758.762,132.352,c),
(732.138,0,l),
(892.394,0,l),
(1238.536,1446.912,l),
(1064.38,1446.912,l),
(935.598,918.016,l),
(875.938,1038.336,o),
(763.32,1085.44,o),
(633.066,1085.44,cs),
(283.626,1085.44,o),
(74.474,671.488,o),
(74.474,363.776,cs),
(74.474,151.04,o),
(173.034,-20.48,o),
(404.97,-20.48,cs)
);
},
{
closed = 1;
nodes = (
(301.546,125.44,o),
(236.778,227.328,o),
(236.778,370.944,cs),
(236.778,612.096,o),
(388.074,938.24,o),
(665.066,938.24,cs),
(820.202,938.24,o),
(883.434,836.608,o),
(883.434,694.784,cs),
(883.434,453.888,o),
(734.442,125.44,o),
(455.402,125.44,cs)
);
}
);
width = 1195;
},
{
layerId = "67A62FEC-841D-491B-BA5E-8BAEF7B2DF33";
shapes = (
{
closed = 1;
nodes = (
(553.248,-20.48,o),
(669.984,32.768,o),
(769.312,142.336,c),
(738.592,0,l),
(871.712,0,l),
(1218.848,1446.912,l),
(1074.704,1446.912,l),
(942.368,906.24,l),
(882.976,1034.24,o),
(771.36,1085.44,o),
(635.168,1085.44,cs),
(288.032,1085.44,o),
(83.232,661.504,o),
(83.232,358.4,cs),
(83.232,151.552,o),
(175.392,-20.48,o),
(404.768,-20.48,cs)
);
},
{
closed = 1;
nodes = (
(279.84,97.28,o),
(215.328,209.92,o),
(215.328,360.448,cs),
(215.328,613.376,o),
(372,964.608,o),
(664.864,964.608,cs),
(827.68,964.608,o),
(893.216,855.04,o),
(893.216,704.512,cs),
(893.216,452.608,o),
(737.568,97.28,o),
(443.68,97.28,cs)
);
}
);
width = 1182;
}
);
leftKerningGroup = a;
unicode = 100;
},
{
glyphname = e;
leftMetricsKey = o;
rightMetricsKey = o;
layers = (
{
anchors = (
{
name = top;
position = "{714, 1192}";
},
{
name = ogonek;
position = "{610, 0}";
},
{
name = bottom;
position = "{450, -120}";
}
);
guides = (
{
angle = 90;
position = "{714, 0}";
},
{
angle = 128.834;
position = "{956, 153}";
}
);
layerId = "31A26675-4074-4365-ADEA-834199CB2297";
shapes = (
{
closed = 1;
nodes = (
(660.408,-20.48,o),
(821.176,33.792,o),
(956.344,152.576,c),
(794.552,353.28,l),
(713.656,275.456,o),
(615.352,214.016,o),
(468.92,214.016,cs),
(365.496,214.016,o),
(304.056,281.6,o),
(304.056,352.256,cs),
(304.056,377.856,o),
(308.152,428.032,o),
(321.464,452.608,c),
(1053.624,452.608,l),
(1086.392,535.552,o),
(1091.512,601.088,o),
(1091.512,691.2,cs),
(1091.512,957.44,o),
(925.624,1084.416,o),
(675.768,1084.416,cs),
(314.296,1084.416,o),
(36.792,762.88,o),
(36.792,405.504,cs),
(36.792,134.144,o),
(223.16,-20.48,o),
(480.184,-20.48,cs)
);
},
{
closed = 1;
nodes = (
(380.856,651.24,l),
(435.128,779.24,o),
(516.024,850.944,o),
(652.216,850.944,cs),
(778.168,850.944,o),
(837.56,776.192,o),
(837.56,679.936,cs),
(837.56,669.696,o),
(836.536,661.48,o),
(835.512,651.24,c)
);
}
);
width = 1116;
},
{
anchors = (
{
name = top;
position = "{722, 1192}";
},
{
name = ogonek;
position = "{595, 0}";
},
{
name = bottom;
position = "{479, -120}";
}
);
guides = (
{
angle = 90;
position = "{722, 0}";
},
{
angle = 129.359;
position = "{945, 147}";
}
);
layerId = "57FF79F6-5737-48C1-BD5F-8B84E303409D";
shapes = (
{
closed = 1;
nodes = (
(661.36,-20.48,o),
(817.008,35.84,o),
(945.008,147.456,c),
(798.576,324.608,l),
(709.488,242.688,o),
(623.472,211.968,o),
(501.616,211.968,cs),
(369.52,211.968,o),
(292.72,266.24,o),
(292.72,364.544,cs),
(292.72,395.264,o),
(297.84,418.816,o),
(306.032,439.296,c),
(1033.072,439.296,l),
(1062.768,516.096,o),
(1078.128,615.424,o),
(1078.128,697.344,cs),
(1078.128,955.392,o),
(927.6,1084.416,o),
(676.72,1084.416,cs),
(315.248,1084.416,o),
(51.056,747.52,o),
(51.056,398.336,cs),
(51.056,129.024,o),
(225.136,-20.48,o),
(479.088,-20.48,cs)
);
},
{
closed = 1;
nodes = (
(351.088,619.52,l),
(403.312,758.784,o),
(508.784,874.496,o),
(657.264,874.496,cs),
(784.24,874.496,o),
(843.632,814.08,o),
(843.632,677.888,cs),
(843.632,660.48,o),
(842.608,641.024,o),
(840.56,619.52,c)
);
}
);
width = 1114;
},
{
anchors = (
{
name = top;
position = "{709, 1192}";
},
{
name = ogonek;
position = "{561, 0}";
},
{
name = bottom;
position = "{461, -120}";
}
);
guides = (
{
angle = 90;
position = "{714, 0}";
},
{
angle = 128.834;
position = "{956, 153}";
}
);
layerId = "730F33E1-68ED-45B5-8902-551965799117";
shapes = (
{
closed = 1;
nodes = (
(623.104,-20.48,o),
(776.448,30.464,o),
(897.536,135.168,c),
(800.256,237.824,l),
(707.328,153.6,o),
(596.736,123.648,o),
(473.344,123.648,cs),
(318.208,123.648,o),
(235.264,216.32,o),
(235.264,360.704,cs),
(235.264,399.872,o),
(241.92,438.016,o),
(250.88,473.856,c),
(988.672,473.856,l),
(1014.528,555.264,o),
(1030.656,636.928,o),
(1030.656,726.528,cs),
(1030.656,963.84,o),
(898.56,1084.416,o),
(666.112,1084.416,cs),
(307.712,1084.416,o),
(76.544,702.976,o),
(76.544,373.76,cs),
(76.544,131.328,o),
(219.904,-20.48,o),
(460.8,-20.48,cs)
);
},
{
closed = 1;
nodes = (
(281.344,603.392,l),
(331.264,778.752,o),
(457.472,942.848,o),
(650.496,942.848,cs),
(793.6,942.848,o),
(886.016,877.056,o),
(886.016,722.432,cs),
(886.016,681.984,o),
(877.312,642.56,o),
(867.584,603.392,c)
);
}
);
width = 1089;
},
{
anchors = (
{
name = top;
position = "{704, 1192}";
},
{
name = ogonek;
position = "{550, 0}";
},
{
name = bottom;
position = "{455, -120}";
}
);
guides = (
{
angle = 90;
position = "{704, 0}";
},
{
angle = 136.081;
position = "{882, 131}";
}
);
layerId = "67A62FEC-841D-491B-BA5E-8BAEF7B2DF33";
shapes = (
{
closed = 1;
nodes = (
(610.352,-20.48,o),
(762.928,28.672,o),
(881.712,131.072,c),
(800.816,208.896,l),
(706.608,123.904,o),
(587.824,94.208,o),
(463.92,94.208,cs),
(301.104,94.208,o),
(216.112,199.68,o),
(216.112,359.424,cs),
(216.112,401.408,o),
(223.28,444.416,o),
(232.496,485.376,c),
(973.872,485.376,l),
(998.448,568.32,o),
(1014.832,644.096,o),
(1014.832,736.256,cs),
(1014.832,966.656,o),
(888.88,1084.416,o),
(662.576,1084.416,cs),
(305.2,1084.416,o),
(85.04,688.128,o),
(85.04,365.568,cs),
(85.04,132.096,o),
(218.16,-20.48,o),
(454.704,-20.48,cs)
);
},
{
closed = 1;
nodes = (
(258.096,598.016,l),
(307.248,785.408,o),
(440.368,965.632,o),
(648.24,965.632,cs),
(796.72,965.632,o),
(900.144,898.048,o),
(900.144,737.28,cs),
(900.144,689.152,o),
(888.88,643.072,o),
(876.592,598.016,c)
);
}
);
width = 1081;
}
);
leftKerningGroup = a;
unicode = 101;
},
{
glyphname = f;
layers = (
{
layerId = "63E1918D-1FC0-440A-8F20-CB7E9D337C03";
name = "#instance";
shapes = (
{
closed = 1;
nodes = (
(221.184,0,l),
(453.632,958.464,l),
(756.736,958.464,l),
(782.336,1063.936,l),
(476.16,1063.936,l),
(492.544,1124.352,ls),
(540.672,1303.552,o),
(579.584,1356.8,o),
(698.368,1356.8,cs),
(740.352,1356.8,o),
(781.312,1346.56,o),
(821.248,1331.2,c),
(872.448,1428.48,l),
(822.272,1456.128,o),
(765.952,1468.416,o),
(708.608,1468.416,cs),
(539.648,1468.416,o),
(426.12,1382.363,o),
(387.072,1238.016,cs),
(339.968,1063.888,l),
(135.168,1063.888,l),
(109.568,958.464,l),
(315.392,958.464,l),
(84.992,0,l)
);
}
);
width = 728;
},
{
layerId = "31A26675-4074-4365-ADEA-834199CB2297";
shapes = (
{
closed = 1;
nodes = (
(392.192,0,l),
(578.56,828.416,l),
(810.984,828.416,l),
(866.328,1063.936,l),
(634.88,1063.936,l),
(645.12,1112.064,ls),
(657.408,1169.408,o),
(681.984,1226.752,o),
(761.856,1226.752,cs),
(787.456,1226.752,o),
(811.008,1220.608,o),
(830.464,1208.32,c),
(980.992,1420.288,l),
(920.576,1447.936,o),
(857.088,1468.416,o),
(788.48,1468.416,cs),
(507.904,1468.416,o),
(409.22,1339.98,o),
(357.376,1144.832,cs),
(335.872,1063.888,l),
(138.24,1063.888,l),
(81.92,828.416,l),
(275.456,828.416,l),
(88.064,0,l)
);
}
);
width = 738;
},
{
layerId = "57FF79F6-5737-48C1-BD5F-8B84E303409D";
shapes = (
{
closed = 1;
nodes = (
(362.496,0,l),
(562.176,855.04,l),
(804.864,855.04,l),
(855.04,1063.936,l),
(612.352,1063.936,l),
(643.072,1164.288,ls),
(660.48,1222.656,o),
(698.368,1254.4,o),
(754.688,1254.4,cs),
(783.36,1254.4,o),
(809.984,1248.256,o),
(834.56,1234.944,c),
(963.584,1422.336,l),
(898.048,1453.056,o),
(835.584,1468.416,o),
(776.192,1468.416,cs),
(553.984,1468.416,o),
(430.153,1369.814,o),
(382.976,1198.08,cs),
(346.112,1063.888,l),
(143.36,1063.888,l),
(94.208,855.04,l),
(293.888,855.04,l),
(94.208,0,l)
);
}
);
width = 737;
},
{
layerId = "730F33E1-68ED-45B5-8902-551965799117";
shapes = (
{
closed = 1;
nodes = (
(256.512,0,l),
(480.768,932.608,l),
(768.768,932.608,l),
(800.512,1063.936,l),
(510.208,1063.936,l),
(530.176,1134.336,ls),
(570.624,1283.328,o),
(609.28,1331.2,o),
(712.448,1331.2,cs),
(751.104,1331.2,o),
(788.48,1321.984,o),
(824.576,1307.136,c),
(895.232,1426.944,l),
(841.216,1455.36,o),
(783.36,1468.416,o),
(725.504,1468.416,cs),
(543.232,1468.416,o),
(427.128,1379.226,o),
(386.048,1228.032,cs),
(341.504,1063.888,l),
(137.216,1063.888,l),
(105.728,932.608,l),
(310.016,932.608,l),
(87.296,0,l)
);
}
);
width = 730;
},
{
layerId = "67A62FEC-841D-491B-BA5E-8BAEF7B2DF33";
shapes = (
{
closed = 1;
nodes = (
(221.184,0,l),
(453.632,958.464,l),
(756.736,958.464,l),
(782.336,1063.936,l),
(476.16,1063.936,l),
(492.544,1124.352,ls),
(540.672,1303.552,o),
(579.584,1356.8,o),
(698.368,1356.8,cs),
(740.352,1356.8,o),
(781.312,1346.56,o),
(821.248,1331.2,c),
(872.448,1428.48,l),
(822.272,1456.128,o),
(765.952,1468.416,o),
(708.608,1468.416,cs),
(539.648,1468.416,o),
(426.12,1382.363,o),
(387.072,1238.016,cs),
(339.968,1063.888,l),
(135.168,1063.888,l),
(109.568,958.464,l),
(315.392,958.464,l),
(84.992,0,l)
);
}
);
width = 728;
}
);
leftKerningGroup = a;
unicode = 102;
},
{
glyphname = g;
leftMetricsKey = o;
rightMetricsKey = a;
layers = (
{
anchors = (
{
name = top;
position = "{737, 1192}";
}
);
guides = (
{
angle = 77.;
position = "{462, 0}";
}
);
layerId = "31A26675-4074-4365-ADEA-834199CB2297";
shapes = (
{
closed = 1;
nodes = (
(669.816,-450.56,o),
(894.072,-299.008,o),
(964.728,1.024,cs),
(1211.512,1063.936,l),
(917.624,1063.936,l),
(888.952,964.608,l),
(834.68,1054.72,o),
(716.92,1085.44,o),
(615.544,1085.44,cs),
(271.48,1085.44,o),
(38.008,735.232,o),
(38.008,412.672,cs),
(38.008,187.392,o),
(167.032,16.384,o),
(401.528,16.384,cs),
(516.216,16.384,o),
(616.568,41.984,o),
(702.584,119.808,c),
(687.224,60.416,ls),
(645.24,-102.4,o),
(580.728,-204.8,o),
(397.432,-204.8,cs),
(309.368,-204.8,o),
(194.68,-173.056,o),
(167.032,-74.752,c),
(-75.656,-216.064,l),
(16.504,-387.072,o),
(174.2,-450.56,o),
(365.688,-450.56,cs)
);
},
{
closed = 1;
nodes = (
(393.336,276.48,o),
(320.632,323.584,o),
(320.632,445.44,cs),
(320.632,634.88,o),
(459.896,830.464,o),
(657.528,830.464,cs),
(771.192,830.464,o),
(839.8,776.192,o),
(839.8,656.384,cs),
(839.8,465.92,o),
(703.608,276.48,o),
(504.952,276.48,cs)
);
}
);
width = 1224;
},
{
anchors = (
{
name = top;
position = "{720, 1192}";
}
);
guides = (
{
angle = 77.;
position = "{444.41, 0}";
}
);
layerId = "57FF79F6-5737-48C1-BD5F-8B84E303409D";
shapes = (
{
closed = 1;
nodes = (
(666.672,-448.512,o),
(879.664,-294.912,o),
(949.296,2.048,cs),
(1197.104,1063.936,l),
(934.96,1063.936,l),
(904.24,953.344,l),
(847.92,1043.456,o),
(740.4,1085.44,o),
(625.712,1085.44,cs),
(275.504,1085.44,o),
(51.248,715.776,o),
(51.248,396.288,cs),
(51.248,171.008,o),
(169.008,0,o),
(408.624,0,cs),
(535.6,0,o),
(640.048,38.912,o),
(720.944,115.712,c),
(693.296,10.24,ls),
(651.312,-153.6,o),
(538.672,-230.4,o),
(391.216,-230.4,cs),
(256.048,-230.4,o),
(179.248,-175.104,o),
(155.696,-100.352,c),
(-60.368,-220.16,l),
(24.624,-391.168,o),
(184.368,-448.512,o),
(365.616,-448.512,cs)
);
},
{
closed = 1;
nodes = (
(372.784,230.4,o),
(303.152,297.984,o),
(303.152,420.864,cs),
(303.152,622.592,o),
(443.44,859.136,o),
(664.624,859.136,cs),
(790.576,859.136,o),
(855.088,788.48,o),
(855.088,664.576,cs),
(855.088,462.848,o),
(716.848,230.4,o),
(495.664,230.4,cs)
);
}
);
width = 1200;
},
{
anchors = (
{
name = top;
position = "{711, 1192}";
}
);
guides = (
{
angle = 77.;
position = "{462, 0}";
}
);
layerId = "730F33E1-68ED-45B5-8902-551965799117";
shapes = (
{
closed = 1;
nodes = (
(657.618,-444.672,o),
(828.37,-262.656,o),
(895.698,25.088,cs),
(1139.666,1063.936,l),
(970.45,1063.936,l),
(933.586,916.48,l),
(876.498,1034.24,o),
(770.514,1085.44,o),
(640.466,1085.44,cs),
(284.114,1085.44,o),
(75.986,681.216,o),
(75.986,366.336,cs),
(75.986,151.04,o),
(179.922,-15.36,o),
(412.626,-15.36,cs),
(551.122,-15.36,o),
(671.698,45.056,o),
(762.578,141.824,c),
(728.018,7.168,ls),
(680.658,-175.872,o),
(547.282,-306.432,o),
(356.818,-306.432,cs),
(238.546,-306.432,o),
(145.618,-258.816,o),
(108.242,-157.952,c),
(-32.558,-235.52,l),
(34.002,-391.168,o),
(189.906,-444.672,o),
(348.114,-444.672,cs)
);
},
{
closed = 1;
nodes = (
(303.826,126.72,o),
(238.034,230.4,o),
(238.034,374.016,cs),
(238.034,614.143,o),
(392.914,942.847,o),
(668.626,942.847,cs),
(821.458,942.847,o),
(885.202,838.399,o),
(885.202,696.831,cs),
(885.202,459.007,o),
(730.834,126.72,o),
(457.426,126.72,cs)
);
}
);
width = 1176;
},
{
anchors = (
{
name = top;
position = "{708, 1192}";
}
);
guides = (
{
angle = 77.;
position = "{434.009, 0}";
}
);
layerId = "67A62FEC-841D-491B-BA5E-8BAEF7B2DF33";
shapes = (
{
closed = 1;
nodes = (
(654.6,-443.392,o),
(811.272,-251.904,o),
(877.832,32.768,cs),
(1120.52,1063.936,l),
(982.28,1063.936,l),
(943.368,904.192,l),
(886.024,1031.168,o),
(780.552,1085.44,o),
(645.384,1085.44,cs),
(286.984,1085.44,o),
(84.232,669.696,o),
(84.232,356.352,cs),
(84.232,144.384,o),
(183.56,-20.48,o),
(413.96,-20.48,cs),
(556.296,-20.48,o),
(682.248,47.104,o),
(776.456,150.528,c),
(739.592,6.144,ls),
(690.44,-183.296,o),
(550.152,-331.776,o),
(345.352,-331.776,cs),
(232.712,-331.776,o),
(134.408,-286.72,o),
(92.424,-177.152,c),
(-23.288,-240.64,l),
(37.128,-391.168,o),
(191.752,-443.392,o),
(342.28,-443.392,cs)
);
},
{
closed = 1;
nodes = (
(280.84,92.16,o),
(216.328,207.872,o),
(216.328,358.399,cs),
(216.328,611.327,o),
(376.072,970.75,o),
(669.96,970.75,cs),
(831.752,970.75,o),
(895.24,855.038,o),
(895.24,707.583,cs),
(895.24,457.727,o),
(735.496,92.16,o),
(444.68,92.16,cs)
);
}
);
width = 1168;
}
);
leftKerningGroup = a;
unicode = 103;
},
{
glyphname = h;
leftMetricsKey = "=140";
rightMetricsKey = n;
layers = (
{
layerId = "63E1918D-1FC0-440A-8F20-CB7E9D337C03";
name = "#instance";
shapes = (
{
closed = 1;
nodes = (
(746.5,0,l),
(914,0,l),
(1058.75,646.75,ls),
(1068.801,693.608,o),
(1075,740.75,o),
(1075,785.5,cs),
(1075,946,o),
(999.25,1084,o),
(788.25,1084,cs),
(652.5,1084,o),
(531.25,998.25,o),
(433,895.25,c),
(371,895.25,l),
(301.25,578.75,l),
(349.5,578.75,l),
(394.5,757,o),
(564,932.5,o),
(754.75,932.5,cs),
(862.75,932.5,o),
(909.25,870.75,o),
(909.25,767.5,cs),
(909.25,722.25,o),
(905.468,684.068,o),
(876.25,561,c)
);
},
{
closed = 1;
nodes = (
(45.75,0,l),
(210.75,0,l),
(557.5,1448,l),
(392.5,1448,l)
);
}
);
width = 1186;
},
{
layerId = "31A26675-4074-4365-ADEA-834199CB2297";
shapes = (
{
closed = 1;
nodes = (
(712,0,l),
(1000,0,l),
(1139,622,ls),
(1150.379,672.917,o),
(1155,724,o),
(1155,768,cs),
(1155,965,o),
(1048,1084,o),
(857,1084,cs),
(740,1084,o),
(638,1048,o),
(549,969,c),
(488,969,l),
(398,549,l),
(441,549,l),
(474,701,o),
(616,822,o),
(753,822,cs),
(822,822,o),
(867,784,o),
(867,726,cs),
(867,683,o),
(859,635,o),
(849,592,cs)
);
},
{
closed = 1;
nodes = (
(22,0,l),
(310,0,l),
(656,1448,l),
(368,1448,l)
);
}
);
width = 1241;
},
{
layerId = "57FF79F6-5737-48C1-BD5F-8B84E303409D";
leftMetricsKey = n;
shapes = (
{
closed = 1;
nodes = (
(712,0,l),
(971,0,l),
(1109,628,ls),
(1119.203,674.432,o),
(1126,719,o),
(1126,763,cs),
(1126,937,o),
(1036,1084,o),
(813,1084,cs),
(687,1084,o),
(607,1041,o),
(514,953,c),
(449,953,l),
(365,578,l),
(414,578,l),
(447,721,o),
(603,850,o),
(751,850,cs),
(829,850,o),
(868,810,o),
(868,733,cs),
(868,699,o),
(861.874,663.272,o),
(853,624,cs)
);
},
{
closed = 1;
nodes = (
(12,0,l),
(276,0,l),
(622,1448,l),
(358,1448,l)
);
}
);
width = 1199;
},
{
layerId = "730F33E1-68ED-45B5-8902-551965799117";
shapes = (
{
closed = 1;
nodes = (
(723.5,0,l),
(891,0,l),
(1035.75,646.75,ls),
(1045.801,693.608,o),
(1052,740.75,o),
(1052,785.5,cs),
(1052,946,o),
(976.25,1084,o),
(765.25,1084,cs),
(629.5,1084,o),
(508.25,998.25,o),
(410,895.25,c),
(348,895.25,l),
(278.25,578.75,l),
(326.5,578.75,l),
(371.5,757,o),
(541,932.5,o),
(731.75,932.5,cs),
(839.75,932.5,o),
(886.25,870.75,o),
(886.25,767.5,cs),
(886.25,722.25,o),
(882.468,684.068,o),
(853.25,561,c)
);
},
{
closed = 1;
nodes = (
(22.75,0,l),
(187.75,0,l),
(534.5,1448,l),
(369.5,1448,l)
);
}
);
width = 1162;
},
{
layerId = "67A62FEC-841D-491B-BA5E-8BAEF7B2DF33";
leftMetricsKey = n;
rightMetricsKey = n;
shapes = (
{
closed = 1;
nodes = (
(758,0,l),
(895,0,l),
(1042,653,ls),
(1052,700,o),
(1058,748,o),
(1058,793,cs),
(1058,949,o),
(987,1084,o),
(780,1084,cs),
(641,1084,o),
(506,984,o),
(406,876,c),
(345,876,l),
(280,579,l),
(328,579,l),
(377,769,o),
(551,960,o),
(756,960,cs),
(874,960,o),
(923,891,o),
(923,779,cs),
(923,730,o),
(920,691,o),
(884,540,cs)
);
},
{
closed = 1;
nodes = (
(57,0,l),
(189,0,l),
(536,1448,l),
(404,1448,l)
);
}
);
width = 1181;
}
);
leftKerningGroup = B;
unicode = 104;
},
{
glyphname = i;
layers = (
{
layerId = "63E1918D-1FC0-440A-8F20-CB7E9D337C03";
name = "#instance";
shapes = (
{
closed = 1;
nodes = (
(476,1260,l),
(520,1447,l),
(387,1447,l),
(343,1260,l)
);
},
{
closed = 1;
nodes = (
(207,0,l),
(441,1064,l),
(308,1064,l),
(74,0,l)
);
}
);
width = 496;
},
{
layerId = "31A26675-4074-4365-ADEA-834199CB2297";
shapes = (
{
closed = 1;
nodes = (
(539,1177,l),
(605,1447,l),
(350,1447,l),
(284,1177,l)
);
},
{
closed = 1;
nodes = (
(276,0,l),
(511,1064,l),
(256,1064,l),
(22,0,l)
);
}
);
width = 558;
},
{
layerId = "57FF79F6-5737-48C1-BD5F-8B84E303409D";
shapes = (
{
closed = 1;
nodes = (
(532,1217,l),
(586,1447,l),
(355,1447,l),
(302,1217,l)
);
},
{
closed = 1;
nodes = (
(262,0,l),
(497,1064,l),
(266,1064,l),
(32,0,l)
);
}
);
width = 545;
},
{
layerId = "730F33E1-68ED-45B5-8902-551965799117";
shapes = (
{
closed = 1;
nodes = (
(490,1249.25,l),
(536.5,1447,l),
(379,1447,l),
(332.75,1249.25,l)
);
},
{
closed = 1;
nodes = (
(220.75,0,l),
(455,1064,l),
(297.5,1064,l),
(63.5,0,l)
);
}
);
width = 508;
},
{
layerId = "67A62FEC-841D-491B-BA5E-8BAEF7B2DF33";
shapes = (
{
closed = 1;
nodes = (
(476,1260,l),
(520,1447,l),
(387,1447,l),
(343,1260,l)
);
},
{
closed = 1;
nodes = (
(207,0,l),
(441,1064,l),
(308,1064,l),
(74,0,l)
);
}
);
width = 496;
}
);
leftKerningGroup = a;
unicode = 105;
},
{
glyphname = j;
layers = (
{
layerId = "63E1918D-1FC0-440A-8F20-CB7E9D337C03";
name = "#instance";
shapes = (
{
closed = 1;
nodes = (
(502.784,1259.52,l),
(548.864,1453.056,l),
(403.456,1453.056,l),
(358.4,1259.52,l)
);
},
{
closed = 1;
nodes = (
(24.576,-449.536,o),
(132.096,-333.824,o),
(171.008,-164.864,cs),
(457.728,1063.936,l),
(313.344,1063.936,l),
(23.552,-177.152,ls),
(4.096,-262.144,o),
(-47.104,-322.56,o),
(-138.24,-322.56,cs),
(-178.176,-322.56,o),
(-218.112,-318.464,o),
(-258.048,-307.2,c),
(-307.2,-417.792,l),
(-259.072,-437.248,o),
(-207.872,-449.536,o),
(-155.648,-449.536,cs)
);
}
);
width = 531;
},
{
layerId = "31A26675-4074-4365-ADEA-834199CB2297";
shapes = (
{
closed = 1;
nodes = (
(563.2,1176.576,l),
(624.64,1444.864,l),
(351.232,1444.864,l),
(289.792,1176.576,l)
);
},
{
closed = 1;
nodes = (
(97.28,-448.512,o),
(224.256,-306.176,o),
(271.36,-108.544,cs),
(546.816,1063.936,l),
(273.408,1063.936,l),
(8.192,-81.92,ls),
(-5.12,-139.264,o),
(-37.888,-201.728,o),
(-92.16,-201.728,cs),
(-126.976,-201.728,o),
(-160.768,-197.632,o),
(-193.536,-189.44,c),
(-299.008,-409.6,l),
(-241.664,-433.152,o),
(-182.272,-448.512,o),
(-117.76,-448.512,cs)
);
}
);
width = 607;
},
{
layerId = "57FF79F6-5737-48C1-BD5F-8B84E303409D";
shapes = (
{
closed = 1;
nodes = (
(572.416,1216.512,l),
(625.664,1446.912,l),
(376.832,1446.912,l),
(323.584,1216.512,l)
);
},
{
closed = 1;
nodes = (
(84.992,-448.512,o),
(208.896,-310.272,o),
(253.952,-118.784,cs),
(530.432,1063.936,l),
(281.6,1063.936,l),
(8.192,-112.64,ls),
(-9.216,-187.392,o),
(-44.032,-224.256,o),
(-102.4,-224.256,cs),
(-138.24,-224.256,o),
(-173.056,-220.16,o),
(-205.824,-211.968,c),
(-299.008,-410.624,l),
(-238.592,-436.224,o),
(-179.2,-448.512,o),
(-122.88,-448.512,cs)
);
}
);
width = 592;
},
{
layerId = "730F33E1-68ED-45B5-8902-551965799117";
shapes = (
{
closed = 1;
nodes = (
(520.192,1248.768,l),
(568.064,1451.52,l),
(396.8,1451.52,l),
(349.696,1248.768,l)
);
},
{
closed = 1;
nodes = (
(39.68,-449.28,o),
(151.296,-327.936,o),
(191.744,-153.344,cs),
(475.904,1063.936,l),
(305.408,1063.936,l),
(19.712,-161.024,ls),
(0.768,-243.456,o),
(-46.336,-297.984,o),
(-129.28,-297.984,cs),
(-168.192,-297.984,o),
(-206.848,-293.888,o),
(-244.992,-283.392,c),
(-305.152,-416,l),
(-253.952,-436.992,o),
(-200.704,-449.28,o),
(-147.456,-449.28,cs)
);
}
);
width = 546;
},
{
layerId = "67A62FEC-841D-491B-BA5E-8BAEF7B2DF33";
shapes = (
{
closed = 1;
nodes = (
(502.784,1259.52,l),
(548.864,1453.056,l),
(403.456,1453.056,l),
(358.4,1259.52,l)
);
},
{
closed = 1;
nodes = (
(24.576,-449.536,o),
(132.096,-333.824,o),
(171.008,-164.864,cs),
(457.728,1063.936,l),
(313.344,1063.936,l),
(23.552,-177.152,ls),
(4.096,-262.144,o),
(-47.104,-322.56,o),
(-138.24,-322.56,cs),
(-178.176,-322.56,o),
(-218.112,-318.464,o),
(-258.048,-307.2,c),
(-307.2,-417.792,l),
(-259.072,-437.248,o),
(-207.872,-449.536,o),
(-155.648,-449.536,cs)
);
}
);
width = 531;
}
);
leftKerningGroup = a;
unicode = 106;
},
{
glyphname = k;
layers = (
{
layerId = "63E1918D-1FC0-440A-8F20-CB7E9D337C03";
name = "#instance";
shapes = (
{
closed = 1;
nodes = (
(1112.368,1063.936,l),
(943.408,1063.936,l),
(294.192,466.944,l),
(256.304,289.792,l)
);
},
{
closed = 1;
nodes = (
(935.216,0,l),
(673.072,702.464,l),
(567.6,599.04,l),
(776.496,0,l)
);
},
{
closed = 1;
nodes = (
(62,0,l),
(194,0,l),
(541,1448,l),
(409,1448,l)
);
}
);
width = 1104;
},
{
layerId = "31A26675-4074-4365-ADEA-834199CB2297";
shapes = (
{
closed = 1;
nodes = (
(1311.984,1063.936,l),
(925.936,1063.936,l),
(430.32,637.952,l),
(356.592,292.864,l)
);
},
{
closed = 1;
nodes = (
(1096.944,0,l),
(785.648,673.792,l),
(549.104,500.736,l),
(759.024,0,l)
);
},
{
closed = 1;
nodes = (
(22,0,l),
(310,0,l),
(656,1448,l),
(368,1448,l)
);
}
);
width = 1204;
},
{
layerId = "57FF79F6-5737-48C1-BD5F-8B84E303409D";
shapes = (
{
closed = 1;
nodes = (
(1277.952,1063.936,l),
(935.936,1063.936,l),
(408.576,601.088,l),
(343.04,291.84,l)
);
},
{
closed = 1;
nodes = (
(1071.104,0,l),
(770.048,679.936,l),
(563.2,523.264,l),
(770.048,0,l)
);
},
{
closed = 1;
nodes = (
(32,0,l),
(296,0,l),
(642,1448,l),
(378,1448,l)
);
}
);
width = 1192;
},
{
layerId = "730F33E1-68ED-45B5-8902-551965799117";
shapes = (
{
closed = 1;
nodes = (
(1153.764,1063.936,l),
(941.54,1063.936,l),
(322.788,500.48,l),
(277.988,290.304,l)
);
},
{
closed = 1;
nodes = (
(969.188,0,l),
(697.316,696.832,l),
(566.5,580.096,l),
(774.884,0,l)
);
},
{
closed = 1;
nodes = (
(54.5,0,l),
(219.5,0,l),
(566.25,1448,l),
(401.25,1448,l)
);
}
);
width = 1126;
},
{
layerId = "67A62FEC-841D-491B-BA5E-8BAEF7B2DF33";
shapes = (
{
closed = 1;
nodes = (
(1112.368,1063.936,l),
(943.408,1063.936,l),
(294.192,466.944,l),
(256.304,289.792,l)
);
},
{
closed = 1;
nodes = (
(935.216,0,l),
(673.072,702.464,l),
(567.6,599.04,l),
(776.496,0,l)
);
},
{
closed = 1;
nodes = (
(62,0,l),
(194,0,l),
(541,1448,l),
(409,1448,l)
);
}
);
width = 1104;
}
);
leftKerningGroup = B;
unicode = 107;
},
{
glyphname = l;
leftMetricsKey = n;
layers = (
{
layerId = "63E1918D-1FC0-440A-8F20-CB7E9D337C03";
name = "#instance";
shapes = (
{
closed = 1;
nodes = (
(242.688,-20.48,o),
(285.696,-14.336,o),
(327.68,-2.048,c),
(348.16,105.472,l),
(315.392,95.232,o),
(281.6,90.112,o),
(246.784,90.112,cs),
(223.232,90.112,o),
(202.752,104.448,o),
(202.752,129.024,c),
(518.144,1447.936,l),
(379.904,1447.936,l),
(81.92,178.176,ls),
(74.752,149.504,o),
(67.584,120.832,o),
(67.584,91.136,cs),
(67.584,4.096,o),
(119.808,-20.48,o),
(198.656,-20.48,cs)
);
}
);
width = 535;
},
{
layerId = "31A26675-4074-4365-ADEA-834199CB2297";
shapes = (
{
closed = 1;
nodes = (
(344.992,-20.48,o),
(409.504,-12.288,o),
(476.064,-2.048,c),
(519.072,239.616,l),
(495.52,234.496,o),
(470.944,233.472,o),
(446.368,233.472,cs),
(410.528,233.472,o),
(376.76,239.616,o),
(376.76,284.672,c),
(656.312,1447.936,l),
(367.52,1447.936,l),
(80.8,253.952,ls),
(72.608,218.112,o),
(62.368,161.792,o),
(62.368,126.976,cs),
(62.368,16.384,o),
(160.672,-20.48,o),
(276.384,-20.48,cs)
);
}
);
width = 629;
},
{
layerId = "57FF79F6-5737-48C1-BD5F-8B84E303409D";
shapes = (
{
closed = 1;
nodes = (
(309.248,-20.48,o),
(369.664,-14.336,o),
(438.272,-2.048,c),
(476.16,211.968,l),
(433.152,206.848,o),
(404.48,203.776,o),
(390.144,203.776,cs),
(352.256,203.776,o),
(332.8,216.064,o),
(332.8,240.64,c),
(619.568,1447.936,l),
(356.496,1447.936,l),
(61.8,214.016,ls),
(54.704,184.303,o),
(50.536,157.696,o),
(50.536,133.12,cs),
(50.536,22.528,o),
(129.978,-20.48,o),
(259.072,-20.48,cs)
);
}
);
width = 597;
},
{
layerId = "730F33E1-68ED-45B5-8902-551965799117";
shapes = (
{
closed = 1;
nodes = (
(271.328,-20.48,o),
(318.688,-14.336,o),
(367.328,-2.048,c),
(392.16,132.096,l),
(356.832,123.136,o),
(324.32,118.528,o),
(294.624,118.528,cs),
(267.488,118.528,o),
(247.264,132.352,o),
(247.264,156.928,c),
(555.5,1447.936,l),
(386.052,1447.936,l),
(88.89,187.136,ls),
(81.74,158.204,o),
(75.322,130.048,o),
(75.322,101.632,cs),
(75.322,8.704,o),
(134.351,-20.48,o),
(225.76,-20.48,cs)
);
}
);
width = 563;
},
{
layerId = "67A62FEC-841D-491B-BA5E-8BAEF7B2DF33";
shapes = (
{
closed = 1;
nodes = (
(242.688,-20.48,o),
(285.696,-14.336,o),
(327.68,-2.048,c),
(348.16,105.472,l),
(315.392,95.232,o),
(281.6,90.112,o),
(246.784,90.112,cs),
(223.232,90.112,o),
(202.752,104.448,o),
(202.752,129.024,c),
(518.144,1447.936,l),
(379.904,1447.936,l),
(81.92,178.176,ls),
(74.752,149.504,o),
(67.584,120.832,o),
(67.584,91.136,cs),
(67.584,4.096,o),
(119.808,-20.48,o),
(198.656,-20.48,cs)
);
}
);
width = 535;
}
);
leftKerningGroup = a;
unicode = 108;
},
{
glyphname = m;
leftMetricsKey = n;
rightMetricsKey = n;
layers = (
{
layerId = "63E1918D-1FC0-440A-8F20-CB7E9D337C03";
name = "#instance";
shapes = (
{
closed = 1;
nodes = (
(1533.418,0,l),
(1675.754,636.928,ls),
(1686.762,685.568,o),
(1692.65,733.44,o),
(1692.65,780.032,cs),
(1692.65,974.336,o),
(1587.178,1084.416,o),
(1395.946,1084.416,cs),
(1236.714,1084.416,o),
(1118.442,1001.728,o),
(1022.442,873.472,c),
(1002.986,1006.848,o),
(900.586,1084.416,o),
(741.61,1084.416,cs),
(617.706,1084.416,o),
(547.306,1043.712,o),
(434.41,918.784,c),
(424.938,918.784,l),
(460.522,1063.936,l),
(292.074,1063.936,l),
(48.362,0,l),
(215.786,0,l),
(353.002,601.088,ls),
(391.402,767.488,o),
(528.362,944.64,o),
(713.706,944.64,cs),
(824.554,944.64,o),
(869.61,881.92,o),
(869.61,776.192,cs),
(869.61,734.72,o),
(863.722,689.92,o),
(852.97,643.328,cs),
(705.002,0,l),
(873.962,0,l),
(1011.946,601.088,ls),
(1050.602,767.488,o),
(1184.234,944.64,o),
(1369.322,944.64,cs),
(1483.242,944.64,o),
(1529.066,878.336,o),
(1529.066,769.024,cs),
(1529.066,734.464,o),
(1528.042,699.648,o),
(1504.234,598.272,cs),
(1365.226,0,l)
);
}
);
width = 1805;
},
{
layerId = "31A26675-4074-4365-ADEA-834199CB2297";
shapes = (
{
closed = 1;
nodes = (
(1627.136,0,l),
(1739.776,510.976,ls),
(1757.184,589.824,o),
(1773.568,669.696,o),
(1773.568,750.592,cs),
(1773.568,955.392,o),
(1631.232,1084.416,o),
(1427.456,1084.416,cs),
(1288.192,1084.416,o),
(1182.72,1034.24,o),
(1077.248,941.056,c),
(1015.808,1039.36,o),
(926.72,1084.416,o),
(807.936,1084.416,cs),
(721.92,1084.416,o),
(610.304,1036.288,o),
(535.552,957.44,c),
(530.432,957.44,l),
(562.176,1063.936,l),
(268.288,1063.936,l),
(24.576,0,l),
(317.44,0,l),
(446.464,572.416,ls),
(475.136,698.368,o),
(583.68,819.2,o),
(716.8,819.2,cs),
(791.552,819.2,o),
(832.512,780.288,o),
(832.512,718.848,cs),
(832.512,686.08,o),
(828.416,654.336,o),
(821.248,622.592,cs),
(677.888,0,l),
(974.848,0,l),
(1102.848,572.416,ls),
(1131.52,698.368,o),
(1238.016,819.2,o),
(1374.208,819.2,cs),
(1447.936,819.2,o),
(1489.92,783.36,o),
(1489.92,715.776,cs),
(1489.92,696.32,o),
(1481.728,636.928,o),
(1461.248,545.792,cs),
(1337.344,0,l)
);
}
);
width = 1869;
},
{
layerId = "57FF79F6-5737-48C1-BD5F-8B84E303409D";
shapes = (
{
closed = 1;
nodes = (
(1586.608,0,l),
(1725.872,627.712,ls),
(1736.112,671.744,o),
(1741.232,715.776,o),
(1741.232,757.76,cs),
(1741.232,960.512,o),
(1623.472,1084.416,o),
(1426.864,1084.416,cs),
(1296.816,1084.416,o),
(1161.648,1036.288,o),
(1047.984,925.696,c),
(1000.88,1029.12,o),
(907.696,1084.416,o),
(775.6,1084.416,cs),
(670.128,1084.416,o),
(594.352,1044.48,o),
(496.048,934.912,c),
(485.808,934.912,l),
(520.624,1063.936,l),
(258.48,1063.936,l),
(14.768,0,l),
(275.888,0,l),
(406.96,579.584,l),
(440.752,719.872,o),
(552.368,850.944,o),
(710.064,850.944,cs),
(787.888,850.944,o),
(826.8,812.032,o),
(826.8,733.184,cs),
(826.8,705.536,o),
(821.68,670.72,o),
(812.464,628.736,cs),
(669.104,0,l),
(933.296,0,l),
(1064.368,579.584,ls),
(1096.112,719.872,o),
(1209.776,850.944,o),
(1366.448,850.944,cs),
(1444.272,850.944,o),
(1483.184,809.984,o),
(1483.184,729.088,cs),
(1483.184,698.368,o),
(1479.088,663.552,o),
(1469.872,623.616,cs),
(1328.56,0,l)
);
}
);
width = 1815;
},
{
layerId = "730F33E1-68ED-45B5-8902-551965799117";
shapes = (
{
closed = 1;
nodes = (
(1532.418,0,l),
(1674.754,636.928,ls),
(1685.762,685.568,o),
(1691.65,733.44,o),
(1691.65,780.032,cs),
(1691.65,974.336,o),
(1586.178,1084.416,o),
(1394.946,1084.416,cs),
(1235.714,1084.416,o),
(1117.442,1001.728,o),
(1021.442,873.472,c),
(1001.986,1006.848,o),
(899.586,1084.416,o),
(740.61,1084.416,cs),
(616.706,1084.416,o),
(546.306,1043.712,o),
(433.41,918.784,c),
(423.938,918.784,l),
(459.522,1063.936,l),
(291.074,1063.936,l),
(47.362,0,l),
(214.786,0,l),
(352.002,601.088,ls),
(390.402,767.488,o),
(527.362,944.64,o),
(712.706,944.64,cs),
(823.554,944.64,o),
(868.61,881.92,o),
(868.61,776.192,cs),
(868.61,734.72,o),
(862.722,689.92,o),
(851.97,643.328,cs),
(704.002,0,l),
(872.962,0,l),
(1010.946,601.088,ls),
(1049.602,767.488,o),
(1183.234,944.64,o),
(1368.322,944.64,cs),
(1482.242,944.64,o),
(1528.066,878.336,o),
(1528.066,769.024,cs),
(1528.066,734.464,o),
(1527.042,699.648,o),
(1503.234,598.272,cs),
(1364.226,0,l)
);
}
);
width = 1804;
},
{
layerId = "67A62FEC-841D-491B-BA5E-8BAEF7B2DF33";
shapes = (
{
closed = 1;
nodes = (
(1515.688,0,l),
(1659.048,640,ls),
(1670.312,690.176,o),
(1676.456,739.328,o),
(1676.456,787.456,cs),
(1676.456,978.944,o),
(1575.08,1084.416,o),
(1385.64,1084.416,cs),
(1216.68,1084.416,o),
(1104.04,990.208,o),
(1013.928,856.064,c),
(1003.688,999.424,o),
(898.216,1084.416,o),
(730.28,1084.416,cs),
(600.232,1084.416,o),
(531.624,1043.456,o),
(413.864,913.408,c),
(404.648,913.408,l),
(440.488,1063.936,l),
(303.272,1063.936,l),
(59.56,0,l),
(195.752,0,l),
(335.016,608.256,ls),
(374.952,783.36,o),
(520.36,975.872,o),
(714.92,975.872,cs),
(836.776,975.872,o),
(883.88,905.216,o),
(883.88,790.528,cs),
(883.88,744.448,o),
(877.736,696.32,o),
(866.472,648.192,cs),
(716.968,0,l),
(854.184,0,l),
(994.472,608.256,ls),
(1035.432,783.36,o),
(1175.72,975.872,o),
(1370.28,975.872,cs),
(1496.232,975.872,o),
(1544.36,901.12,o),
(1544.36,782.336,cs),
(1544.36,746.496,o),
(1544.36,711.68,o),
(1515.688,589.824,cs),
(1377.448,0,l)
);
}
);
width = 1802;
}
);
leftKerningGroup = B;
unicode = 109;
},
{
glyphname = n;
leftMetricsKey = "=130";
rightMetricsKey = "=110";
layers = (
{
layerId = "63E1918D-1FC0-440A-8F20-CB7E9D337C03";
name = "#instance";
shapes = (
{
closed = 1;
nodes = (
(756,0,l),
(893,0,l),
(1040,653,ls),
(1050,700,o),
(1056,748,o),
(1056,793,cs),
(1056,949,o),
(985,1084,o),
(778,1084,cs),
(639,1084,o),
(504,984,o),
(404,876,c),
(343,876,l),
(278,579,l),
(326,579,l),
(375,769,o),
(549,960,o),
(754,960,cs),
(872,960,o),
(921,891,o),
(921,779,cs),
(921,730,o),
(918,691,o),
(882,540,cs)
);
},
{
closed = 1;
nodes = (
(190,0,l),
(441,1064,l),
(308,1064,l),
(57,0,l)
);
}
);
width = 1179;
},
{
layerId = "31A26675-4074-4365-ADEA-834199CB2297";
shapes = (
{
closed = 1;
nodes = (
(712,0,l),
(1000,0,l),
(1139,622,ls),
(1150.379,672.917,o),
(1155,724,o),
(1155,768,cs),
(1155,965,o),
(1048,1084,o),
(857,1084,cs),
(740,1084,o),
(638,1048,o),
(549,969,c),
(488,969,l),
(398,549,l),
(441,549,l),
(474,701,o),
(616,822,o),
(753,822,cs),
(822,822,o),
(867,784,o),
(867,726,cs),
(867,683,o),
(859,635,o),
(849,592,cs)
);
},
{
closed = 1;
nodes = (
(310,0,l),
(565,1064,l),
(277,1064,l),
(22,0,l)
);
}
);
width = 1241;
},
{
layerId = "57FF79F6-5737-48C1-BD5F-8B84E303409D";
shapes = (
{
closed = 1;
nodes = (
(679,0,l),
(938,0,l),
(1076,628,ls),
(1086.203,674.432,o),
(1093,719,o),
(1093,763,cs),
(1093,937,o),
(1003,1084,o),
(780,1084,cs),
(654,1084,o),
(574,1041,o),
(481,953,c),
(416,953,l),
(332,578,l),
(381,578,l),
(414,721,o),
(570,850,o),
(718,850,cs),
(796,850,o),
(835,810,o),
(835,733,cs),
(835,699,o),
(828.874,663.272,o),
(820,624,cs)
);
},
{
closed = 1;
nodes = (
(276,0,l),
(531,1064,l),
(267,1064,l),
(12,0,l)
);
}
);
width = 1166;
},
{
layerId = "730F33E1-68ED-45B5-8902-551965799117";
shapes = (
{
closed = 1;
nodes = (
(736.75,0,l),
(904.25,0,l),
(1049,646.75,ls),
(1059.051,693.608,o),
(1065.25,740.75,o),
(1065.25,785.5,cs),
(1065.25,946,o),
(989.5,1084,o),
(778.5,1084,cs),
(642.75,1084,o),
(521.5,998.25,o),
(423.25,895.25,c),
(361.25,895.25,l),
(291.5,578.75,l),
(339.75,578.75,l),
(384.75,757,o),
(554.25,932.5,o),
(745,932.5,cs),
(853,932.5,o),
(899.5,870.75,o),
(899.5,767.5,cs),
(899.5,722.25,o),
(895.718,684.068,o),
(866.5,561,c)
);
},
{
closed = 1;
nodes = (
(211.5,0,l),
(463.5,1064,l),
(297.75,1064,l),
(45.75,0,l)
);
}
);
width = 1176;
},
{
layerId = "67A62FEC-841D-491B-BA5E-8BAEF7B2DF33";
leftMetricsKey = "=175";
rightMetricsKey = "=168";
shapes = (
{
closed = 1;
nodes = (
(756,0,l),
(893,0,l),
(1040,653,ls),
(1050,700,o),
(1056,748,o),
(1056,793,cs),
(1056,949,o),
(985,1084,o),
(778,1084,cs),
(639,1084,o),
(504,984,o),
(404,876,c),
(343,876,l),
(278,579,l),
(326,579,l),
(375,769,o),
(549,960,o),
(754,960,cs),
(872,960,o),
(921,891,o),
(921,779,cs),
(921,730,o),
(918,691,o),
(882,540,cs)
);
},
{
closed = 1;
nodes = (
(190,0,l),
(441,1064,l),
(308,1064,l),
(57,0,l)
);
}
);
width = 1179;
}
);
leftKerningGroup = B;
unicode = 110;
},
{
glyphname = o;
leftMetricsKey = "=42";
rightMetricsKey = "=42";
layers = (
{
anchors = (
{
name = top;
position = "{732, 1192}";
},
{
name = ogonek;
position = "{591, 0}";
},
{
name = pos;
position = "{1398, 1064}";
},
{
name = bottom;
position = "{433, -120}";
}
);
guides = (
{
angle = 90;
position = "{732, 0}";
}
);
layerId = "31A26675-4074-4365-ADEA-834199CB2297";
shapes = (
{
closed = 1;
nodes = (
(836.512,-20.48,o),
(1148.832,267.264,o),
(1148.832,643.072,cs),
(1148.832,912.384,o),
(970.656,1084.416,o),
(711.584,1084.416,cs),
(341.92,1084.416,o),
(33.696,772.096,o),
(33.696,397.312,cs),
(33.696,135.168,o),
(224.16,-20.48,o),
(471.968,-20.48,cs)
);
},
{
closed = 1;
nodes = (
(388,220.16,o),
(315.296,279.552,o),
(315.296,407.552,cs),
(315.296,605.184,o),
(457.632,843.776,o),
(674.72,843.776,cs),
(794.528,843.776,o),
(867.232,776.192,o),
(867.232,648.192,cs),
(867.232,446.464,o),
(732.064,220.16,o),
(507.808,220.16,cs)
);
}
);
width = 1178;
},
{
anchors = (
{
name = top;
position = "{735, 1192}";
},
{
name = ogonek;
position = "{599, 0}";
},
{
name = pos;
position = "{1404, 1064}";
},
{
name = bottom;
position = "{462, -120}";
}
);
guides = (
{
angle = 90;
position = "{735, 0}";
}
);
layerId = "57FF79F6-5737-48C1-BD5F-8B84E303409D";
leftMetricsKey = "=58";
rightMetricsKey = "=58";
shapes = (
{
closed = 1;
nodes = (
(844.56,-20.48,o),
(1145.616,290.816,o),
(1145.616,647.168,cs),
(1145.616,917.504,o),
(969.488,1084.416,o),
(709.392,1084.416,cs),
(354.064,1084.416,o),
(51.984,764.928,o),
(51.984,410.624,cs),
(51.984,143.36,o),
(230.16,-20.48,o),
(488.208,-20.48,cs)
);
},
{
closed = 1;
nodes = (
(378.64,194.56,o),
(305.936,266.24,o),
(305.936,398.336,cs),
(305.936,614.4,o),
(449.296,869.376,o),
(686.864,869.376,cs),
(821.008,869.376,o),
(891.664,791.552,o),
(891.664,657.408,cs),
(891.664,442.368,o),
(748.304,194.56,o),
(509.712,194.56,cs)
);
}
);
width = 1189;
},
{
anchors = (
{
name = top;
position = "{741, 1192}";
},
{
name = ogonek;
position = "{570, 0}";
},
{
name = pos;
position = "{1371, 1064}";
},
{
name = bottom;
position = "{458, -120}";
}
);
guides = (
{
angle = 90;
position = "{732, 0}";
}
);
layerId = "730F33E1-68ED-45B5-8902-551965799117";
leftMetricsKey = "=88";
rightMetricsKey = "=88";
shapes = (
{
closed = 1;
nodes = (
(827.844,-20.48,o),
(1108.164,323.072,o),
(1108.164,658.688,cs),
(1108.164,901.376,o),
(952.004,1084.416,o),
(705.732,1084.416,cs),
(353.476,1084.416,o),
(78.276,730.368,o),
(78.276,392.96,cs),
(78.276,150.272,o),
(234.18,-20.48,o),
(479.172,-20.48,cs)
);
},
{
closed = 1;
nodes = (
(331.972,123.903,o),
(243.908,229.375,o),
(243.908,382.207,cs),
(243.908,632.063,o),
(420.292,940.032,o),
(695.492,940.032,cs),
(855.748,940.032,o),
(941.764,833.024,o),
(941.764,676.608,cs),
(941.764,423.935,o),
(769.988,123.903,o),
(489.156,123.903,cs)
);
}
);
width = 1179;
},
{
anchors = (
{
name = top;
position = "{743, 1192}";
},
{
name = ogonek;
position = "{560, 0}";
},
{
name = pos;
position = "{1360, 1064}";
},
{
name = bottom;
position = "{456, -120}";
}
);
guides = (
{
angle = 90;
position = "{743, 0}";
}
);
layerId = "67A62FEC-841D-491B-BA5E-8BAEF7B2DF33";
leftMetricsKey = "=98";
rightMetricsKey = "=98";
shapes = (
{
closed = 1;
nodes = (
(822.272,-20.48,o),
(1095.68,333.824,o),
(1095.68,662.528,cs),
(1095.68,896,o),
(946.176,1084.416,o),
(704.512,1084.416,cs),
(353.28,1084.416,o),
(87.04,718.848,o),
(87.04,387.072,cs),
(87.04,152.576,o),
(235.52,-20.48,o),
(476.16,-20.48,cs)
);
},
{
closed = 1;
nodes = (
(316.416,100.35,o),
(223.232,217.086,o),
(223.232,376.831,cs),
(223.232,637.951,o),
(410.624,963.584,o),
(698.368,963.584,cs),
(867.328,963.584,o),
(958.464,846.848,o),
(958.464,683.007,cs),
(958.464,417.791,o),
(777.216,100.35,o),
(482.304,100.35,cs)
);
}
);
width = 1176;
}
);
leftKerningGroup = a;
unicode = 111;
},
{
glyphname = p;
leftMetricsKey = "=138";
rightMetricsKey = o;
layers = (
{
layerId = "31A26675-4074-4365-ADEA-834199CB2297";
rightMetricsKey = "=o+60";
shapes = (
{
closed = 1;
nodes = (
(214.016,-448.512,l),
(351.232,100.352,l),
(408.576,15.36,o),
(521.216,-20.48,o),
(622.592,-20.48,cs),
(977.92,-20.48,o),
(1208.32,346.112,o),
(1208.32,675.84,cs),
(1208.32,911.36,o),
(1085.44,1084.416,o),
(841.728,1084.416,cs),
(730.112,1084.416,o),
(625.664,1055.744,o),
(542.72,982.016,c),
(559.104,1063.936,l),
(270.336,1063.936,l),
(-82.944,-448.512,l)
);
},
{
closed = 1;
nodes = (
(474.112,239.616,o),
(403.456,293.888,o),
(403.456,413.696,cs),
(403.456,615.424,o),
(528.384,833.536,o),
(744.448,833.536,cs),
(858.112,833.536,o),
(924.672,775.168,o),
(924.672,655.36,cs),
(924.672,459.776,o),
(803.84,239.616,o),
(584.704,239.616,cs)
);
}
);
width = 1292;
},
{
layerId = "57FF79F6-5737-48C1-BD5F-8B84E303409D";
leftMetricsKey = n;
shapes = (
{
closed = 1;
nodes = (
(173.44,-448.512,l),
(312.704,111.616,l),
(371.072,16.384,o),
(483.712,-20.48,o),
(591.232,-20.48,cs),
(946.56,-20.48,o),
(1169.792,358.4,o),
(1169.792,681.984,cs),
(1169.792,913.408,o),
(1052.032,1084.416,o),
(812.416,1084.416,cs),
(686.464,1084.416,o),
(583.04,1046.528,o),
(500.096,969.728,c),
(520.576,1063.936,l),
(262.528,1063.936,l),
(-90.752,-448.512,l)
);
},
{
closed = 1;
nodes = (
(429.44,209.92,o),
(363.904,280.576,o),
(363.904,402.432,cs),
(363.904,606.208,o),
(500.096,861.184,o),
(727.424,861.184,cs),
(855.424,861.184,o),
(917.888,790.528,o),
(917.888,664.576,cs),
(917.888,454.656,o),
(787.84,209.92,o),
(553.344,209.92,cs)
);
}
);
width = 1209;
},
{
layerId = "730F33E1-68ED-45B5-8902-551965799117";
rightMetricsKey = "=o+60";
shapes = (
{
closed = 1;
nodes = (
(84.266,-449.28,l),
(230.442,148.48,l),
(288.042,26.368,o),
(397.61,-20.48,o),
(528.17,-20.48,cs),
(881.194,-20.48,o),
(1089.834,389.12,o),
(1089.834,700.416,cs),
(1089.834,914.176,o),
(985.898,1084.416,o),
(756.266,1084.416,cs),
(613.418,1084.416,o),
(496.938,1030.4,o),
(402.474,929.024,c),
(436.01,1063.936,l),
(270.89,1063.936,l),
(-83.158,-449.28,l)
);
},
{
closed = 1;
nodes = (
(338.73,120.832,o),
(278.57,229.12,o),
(278.57,370.944,cs),
(278.57,607.744,o),
(432.426,943.36,o),
(705.834,943.36,cs),
(863.018,943.36,o),
(930.09,836.608,o),
(930.09,690.688,cs),
(930.09,447.744,o),
(771.626,120.832,o),
(494.122,120.832,cs)
);
}
);
width = 1215;
},
{
layerId = "67A62FEC-841D-491B-BA5E-8BAEF7B2DF33";
leftMetricsKey = n;
shapes = (
{
closed = 1;
nodes = (
(89.208,-449.536,l),
(237.688,160.768,l),
(295.032,29.696,o),
(403.576,-20.48,o),
(541.816,-20.48,cs),
(894.072,-20.48,o),
(1097.848,399.36,o),
(1097.848,706.56,cs),
(1097.848,914.432,o),
(998.52,1084.416,o),
(772.216,1084.416,cs),
(623.736,1084.416,o),
(502.904,1025.024,o),
(404.6,915.456,c),
(442.488,1063.936,l),
(308.344,1063.936,l),
(-45.96,-449.536,l)
);
},
{
closed = 1;
nodes = (
(343.16,91.136,o),
(284.792,211.968,o),
(284.792,360.448,cs),
(284.792,608.256,o),
(444.536,970.752,o),
(733.304,970.752,cs),
(900.216,970.752,o),
(968.824,851.968,o),
(968.824,699.392,cs),
(968.824,445.44,o),
(800.888,91.136,o),
(509.048,91.136,cs)
);
}
);
width = 1172;
}
);
leftKerningGroup = B;
unicode = 112;
},
{
glyphname = q;
layers = (
{
layerId = "31A26675-4074-4365-ADEA-834199CB2297";
shapes = (
{
closed = 1;
nodes = (
(866.304,-448.512,l),
(1219.584,1063.936,l),
(933.888,1063.936,l),
(897.024,963.584,l),
(842.752,1051.648,o),
(726.016,1084.416,o),
(625.664,1084.416,cs),
(269.312,1084.416,o),
(40.96,713.728,o),
(40.96,386.048,cs),
(40.96,149.504,o),
(163.84,-20.48,o),
(406.528,-20.48,cs),
(517.12,-20.48,o),
(623.616,7.168,o),
(705.536,81.92,c),
(572.416,-448.512,l)
);
},
{
closed = 1;
nodes = (
(394.24,239.616,o),
(324.608,293.888,o),
(324.608,413.696,cs),
(324.608,614.4,o),
(451.584,830.464,o),
(665.6,830.464,cs),
(781.312,830.464,o),
(845.824,776.192,o),
(845.824,654.336,cs),
(845.824,459.776,o),
(721.92,239.616,o),
(504.832,239.616,cs)
);
}
);
width = 1242;
},
{
layerId = "57FF79F6-5737-48C1-BD5F-8B84E303409D";
shapes = (
{
closed = 1;
nodes = (
(846.848,-448.512,l),
(1201.152,1063.936,l),
(945.152,1063.936,l),
(908.288,953.344,l),
(849.92,1050.624,o),
(738.304,1084.416,o),
(629.76,1084.416,cs),
(273.408,1084.416,o),
(51.2,701.44,o),
(51.2,379.904,cs),
(51.2,149.504,o),
(168.96,-20.48,o),
(408.576,-20.48,cs),
(534.528,-20.48,o),
(638.976,17.408,o),
(720.896,94.208,c),
(584.704,-448.512,l)
);
},
{
closed = 1;
nodes = (
(369.664,209.92,o),
(304.128,279.552,o),
(304.128,402.432,cs),
(304.128,608.256,o),
(439.296,859.136,o),
(668.672,859.136,cs),
(800.768,859.136,o),
(857.088,781.312,o),
(857.088,665.6,cs),
(857.088,457.728,o),
(728.064,209.92,o),
(493.568,209.92,cs)
);
}
);
width = 1231;
},
{
layerId = "730F33E1-68ED-45B5-8902-551965799117";
shapes = (
{
closed = 1;
nodes = (
(792.32,-449.28,l),
(1145.856,1063.936,l),
(980.48,1063.936,l),
(940.544,918.016,l),
(882.176,1039.872,o),
(773.632,1084.416,o),
(642.816,1084.416,cs),
(291.84,1084.416,o),
(82.688,674.56,o),
(82.688,364.544,cs),
(82.688,151.04,o),
(181.248,-20.48,o),
(413.184,-20.48,cs),
(559.104,-20.48,o),
(670.464,34.304,o),
(768.512,135.68,c),
(623.872,-449.28,l)
);
},
{
closed = 1;
nodes = (
(305.152,120.832,o),
(244.992,226.56,o),
(244.992,369.408,cs),
(244.992,611.328,o),
(395.52,942.848,o),
(674.816,942.848,cs),
(830.72,942.848,o),
(890.88,836.608,o),
(890.88,697.088,cs),
(890.88,454.656,o),
(741.888,120.832,o),
(461.312,120.832,cs)
);
}
);
width = 1200;
},
{
layerId = "67A62FEC-841D-491B-BA5E-8BAEF7B2DF33";
shapes = (
{
closed = 1;
nodes = (
(774.144,-449.536,l),
(1127.424,1063.936,l),
(992.256,1063.936,l),
(951.296,906.24,l),
(892.928,1036.288,o),
(785.408,1084.416,o),
(647.168,1084.416,cs),
(297.984,1084.416,o),
(93.184,665.6,o),
(93.184,359.424,cs),
(93.184,151.552,o),
(185.344,-20.48,o),
(414.72,-20.48,cs),
(567.296,-20.48,o),
(680.96,39.936,o),
(784.384,149.504,c),
(636.928,-449.536,l)
);
},
{
closed = 1;
nodes = (
(283.648,91.136,o),
(225.28,208.896,o),
(225.28,358.4,cs),
(225.28,612.352,o),
(380.928,970.752,o),
(676.864,970.752,cs),
(840.704,970.752,o),
(902.144,855.04,o),
(902.144,707.584,cs),
(902.144,453.632,o),
(746.496,91.136,o),
(450.56,91.136,cs)
);
}
);
width = 1189;
}
);
leftKerningGroup = a;
unicode = 113;
},
